<svg width="200" height="80" fill="none" xmlns="http://www.w3.org/2000/svg"><path d="M16.12 43.365c0-1.69-.029-3.103-.12-4.368h3.194l.151 2.17h.089c.723-1.145 2.048-2.503 4.519-2.503 1.929 0 3.434 1.087 4.067 2.713h.062c.512-.813 1.113-1.417 1.805-1.837.814-.574 1.75-.876 2.954-.876 2.441 0 4.91 1.657 4.91 6.36v8.644h-3.616v-8.105c0-2.439-.843-3.887-2.62-3.887-1.266 0-2.2.907-2.59 1.96-.11.403-.17.817-.182 1.234v8.799h-3.615V45.17c0-2.044-.813-3.493-2.531-3.493-1.383 0-2.317 1.087-2.652 2.109-.149.362-.21.786-.21 1.204v8.679H16.12V43.365zm35.716 6.78c0 1.324.06 2.619.21 3.524H48.7l-.24-1.626h-.09C47.465 53.19 45.928 54 44.034 54c-2.954 0-4.61-2.137-4.61-4.367 0-3.71 3.28-5.574 8.706-5.544v-.24c0-.966-.393-2.563-2.984-2.563-1.448 0-2.953.454-3.947 1.084l-.723-2.41c1.086-.664 2.984-1.296 5.302-1.296 4.701 0 6.058 2.986 6.058 6.176v5.306zm-3.616-3.644c-2.623-.062-5.121.51-5.121 2.74 0 1.446.936 2.11 2.11 2.11 1.474 0 2.56-.967 2.891-2.02.082-.263.122-.537.121-.813v-2.017h-.001zm6.175-3.136c0-1.69-.03-3.103-.117-4.368h3.25l.18 2.203h.09c.632-1.147 2.23-2.536 4.67-2.536 2.562 0 5.211 1.657 5.211 6.3v8.704h-3.705v-8.283c0-2.109-.784-3.71-2.802-3.71-1.474 0-2.502 1.055-2.892 2.171-.12.33-.15.784-.15 1.202v8.618h-3.736l.002-10.301zm29.351-10.262v16.439c0 1.506.062 3.136.12 4.127h-3.311l-.152-2.318h-.061c-.872 1.626-2.652 2.65-4.789 2.65-3.496 0-6.266-2.983-6.266-7.499-.032-4.912 3.04-7.836 6.568-7.836 2.017 0 3.463.843 4.126 1.933h.063v-7.495h3.704v-.001h-.002zm-3.703 12.01c0-.3-.03-.662-.092-.965-.33-1.443-1.503-2.62-3.192-2.62-2.38 0-3.708 2.11-3.708 4.85 0 2.68 1.327 4.64 3.678 4.64 1.504 0 2.83-1.027 3.192-2.623.09-.33.123-.694.123-1.084v-2.199h-.001zm6.324 8.556V38.997h3.739v14.672h-3.739zm6.357-9.94c0-1.989-.028-3.407-.118-4.73h3.223l.118 2.799h.122c.723-2.078 2.439-2.8 4.01-2.8.361 0 .57-.061.87 0v3.256a5.105 5.105 0 00-1.082-.12c-1.782 0-2.986 1.145-3.316 2.799a6.648 6.648 0 00-.12 1.148v7.59h-3.707v-9.943zm9.945 9.94V38.997h3.733v14.672h-3.733z" fill="#0D2B5B"/><path d="M129.656 23.48c-1.85-2.11-3.817-1.155-5.379-.379-.658.325-5.402 3.014-5.402 3.014-2.6 1.072-4.624-.098-5.418-1.082a2.368 2.368 0 01-.205-.297l-.185-.32a14.508 14.508 0 00-1.041-1.558 8.783 8.783 0 00-.749-.854c-1.778-1.796-4.621-3.053-9.372-.77-2.25 1.304-9.577 5.49-9.577 5.49-2.754 1.134-4.86-.247-5.544-1.26a.738.738 0 01-.08-.121l-.09-.153-.465-.76c-.209-.332-.434-.655-.673-.967a9.718 9.718 0 00-.75-.853c-1.766-1.785-4.594-3.04-9.303-.8l-9.472 5.413-.003.003-4.847 2.77 2.508 3.08c1.056 1.006 3.04 2.656 6.109 1.265 0 0 8.47-4.906 8.504-4.92 7.242-3.975 10.815-.178 12.396 2.354.055.079.099.165.148.241l.003.004c.02.03.032.06.05.089l.178.292c.77 1.167 1.984 1.92 3.431 1.886.799-.016 1.34-.276 2.13-.715l8.195-4.754.017-.008c7.334-4.023 10.968.023 12.519 2.554.121.219.258.428.399.622.768 1.043 1.828 1.726 3.175 1.692.889-.017 1.886-.551 2.035-.65l9.825-5.67c.003.002-1-1.515-3.067-3.878z" fill="url(#paint0_linear)"/><defs><linearGradient id="paint0_linear" x1="64.166" y1="35.111" x2="123.194" y2="8.195" gradientUnits="userSpaceOnUse"><stop stop-color="#F89C0E"/><stop offset=".286" stop-color="#FBC507"/><stop offset=".438" stop-color="#F89C0E"/><stop offset=".646" stop-color="#FBC507"/><stop offset=".813" stop-color="#F89C0E"/><stop offset="1" stop-color="#FBC507"/></linearGradient></defs></svg>