<svg width="200" height="80" fill="none" xmlns="http://www.w3.org/2000/svg"><g clip-path="url(#clip0)" fill="#EDF0F5"><path d="M52.778 32.032h7.325c2.967 0 5.178 1.3 5.178 4.039 0 2.007-1.026 3.125-2.806 3.719v.046c2.122.434 3.217 1.574 3.217 3.514 0 3.81-3.354 4.608-6.206 4.608h-6.708V32.032zm4.244 6.299h1.187c1.391 0 2.83-.343 2.83-1.69 0-1.459-1.37-1.597-2.786-1.597h-1.231v3.287zm0 6.616h1.255c1.552 0 3.172-.229 3.172-1.848 0-1.734-1.666-1.893-3.127-1.893h-1.3v3.741zM71.263 32.032h5.203l6.138 15.927h-4.655l-1.187-3.4h-5.978l-1.255 3.4h-4.312l6.046-15.927zm2.601 3.286h-.046l-2.053 6.23h3.994l-1.895-6.23zM83.193 32.032h5.408l5.385 10.816h.045l-.068-10.816h3.88v15.927H92.57l-5.566-10.885h-.044l.134 10.885h-3.9V32.032zM99.282 32.032h4.244v6.504h.046l4.791-6.504h5.11l-5.886 7.415 6.343 8.511h-5.408l-4.95-7.233h-.046v7.233h-4.244V32.032zM119.193 32.032h7.325c2.965 0 5.18 1.3 5.18 4.039 0 2.007-1.027 3.125-2.807 3.719v.046c2.123.434 3.216 1.574 3.216 3.514 0 3.81-3.353 4.608-6.205 4.608h-6.709V32.032zm4.244 6.299h1.187c1.393 0 2.829-.343 2.829-1.69 0-1.459-1.368-1.597-2.784-1.597h-1.232v3.287zm0 6.616h1.255c1.551 0 3.172-.229 3.172-1.848 0-1.734-1.665-1.893-3.126-1.893h-1.301v3.741zM133.049 32.032h7.575c2.829 0 5.134 1.278 5.134 4.017 0 2.121-1.003 3.536-3.057 4.014v.046c1.367.366 1.459 1.575 2.259 3.514l1.55 4.336h-4.425l-.913-2.874c-.867-2.739-1.416-3.425-2.99-3.425h-.89v6.299h-4.243V32.032zm4.243 6.617h1.118c1.37 0 3.104-.046 3.104-1.849 0-1.482-1.483-1.756-3.104-1.756h-1.118v3.605zM147.681 32.031h4.243v15.927h-4.243V32.03zM43.093 24h-22.21C18.186 24 16 26.24 16 29.002V50.998c0 2.736 2.145 4.961 4.807 5.002h22.274c2.697 0 4.884-2.239 4.884-5.002l.01-21.996c0-2.763-2.185-5.002-4.882-5.002zM23.522 53.436l-1.211.014c-1.467 0-2.657-1.206-2.657-2.693l-.006-.212V30.232l.008-1.095c.055-1.439 1.149-2.596 2.58-2.596h2.463c2.233 0 4.042 1.942 4.042 4.23 0 1.133-.443 2.16-1.162 2.908l-6.285 6.378 5.891 6c.76.782 1.218 1.81 1.218 2.936 0 2.454-2.184 4.443-4.881 4.443zm18.11-.02l-10.982-.004s1.268-2.744 1.268-4.443c0-2.073-.691-3.923-1.776-5.147l-3.756-3.83 3.833-3.962c1.142-1.072 1.9-2.976 1.9-5.145 0-1.718-.474-3.24-1.239-4.344h2.66c2.234 0 4.045 1.942 4.045 4.23 0 1.133-.444 2.16-1.163 2.908l-6.165 6.312 12.805 13.057c-.406.255-.917.368-1.43.368zm2.683-4.076l-9.176-9.353 4.37-4.442c.889-1.113 1.453-2.787 1.453-4.66 0-1.729-.48-3.29-1.252-4.394l1.955.06c1.467 0 2.656 1.205 2.656 2.693l-.006 20.096z"/></g><defs><clipPath id="clip0"><path fill="#fff" d="M16 24h135.924v32H16z"/></clipPath></defs></svg>