<svg width="200" height="80" fill="none" xmlns="http://www.w3.org/2000/svg"><path d="M16 36.353l6.934 8.736L16 50.829V36.354zM18.792 50.83l5.223-4.369 3.603 4.368h-8.826zM16 31.67l1.801 2.296 7.43 9.298 2.409-1.913s-2.004-2.364-3.355-4.976c-2.634-5.133-.765-8.33-.765-8.33H16v3.625zM26.311 44.683l2.455-2.026s2.341 3.084 5.065 3.805c3.557.945 5.133-1.374 5.133-1.374v5.741H31.13l1.756-1.53s-.923.607-3.175-.946c-1.306-.9-3.4-3.67-3.4-3.67zM26.536 28s-.788 1.058-.225 3.67c.585 2.792 2.972 5.74 2.95 5.673 0 0 .157-2.927 1.868-4.66 3.67-3.67 7.835-1.486 7.835-1.486V28H26.536z" fill="#F15A23"/><path d="M38.964 35.07s-2.319-1.982-4.345-1.982c-2.59 0-3.985 2.23-3.985 3.85 0 2.364 1.125 3.67 2.274 4.796 1.62 1.62 3.602 3.377 6.056 1.981V35.07z" fill="#F15A23"/><path d="M65.374 28.225h5.471s4.84 7.34 7.227 10.38c2.386 3.039 4.953 6.483 4.953 6.483v-15.22c0-.652-1.733-1.643-1.733-1.643h6.303s-2.07.856-2.07 1.644V52s-1.982-1.103-4.233-3.715c-2.522-2.95-11.528-14.814-11.528-14.814v15.377c0 .788 1.734 1.981 1.734 1.981h-6.124s1.666-1.193 1.666-1.98v-18.98c.023-.698-1.666-1.644-1.666-1.644zM91.152 28.225h7.025s-1.891.9-1.891 1.644v18.98c0 .81 1.89 1.98 1.89 1.98h-7.024s1.757-1.193 1.757-1.98v-18.98c0-.72-1.757-1.644-1.757-1.644zM44.706 28.225s1.824.9 1.824 1.644v18.98c0 .81-1.824 1.98-1.824 1.98h10.402c.653 0 7.925-1.193 7.925-6.799s-5.651-6.146-5.651-6.146 3.444-.968 3.444-4.796c0-4.142-5.066-4.863-5.718-4.863H44.706zm5.539 9.298v-7.069h4.232c.653 0 2.927.765 2.927 3.58 0 2.319-2.274 3.49-2.927 3.49h-4.232zm0 1.847h4.885c.653 0 4.48.99 4.48 4.322 0 3.4-3.827 4.593-4.48 4.593h-4.885V39.37z" fill="#005E6A"/></svg>