<svg width="200" height="80" fill="none" xmlns="http://www.w3.org/2000/svg"><path d="M95.166 52.273c.012-.235.026-.61.038-1.122v-9.857l-.032-.956a4.837 4.837 0 00-.028-.415.948.948 0 00-.048-.202.807.807 0 00-.484-.52c-.227-.095-.563-.14-.999-.144v-.334l5.629-.002c.819.004 1.557.056 2.217.163.66.104 1.191.25 1.598.436 1.176.559 1.757 1.498 1.751 2.833.014 1.911-1.242 3.13-3.843 3.445l-.436.07c.585.022 1.375.215 1.744.301.365.084.723.218 1.074.4 1.38.694 2.06 1.802 2.046 3.338.007 1.861-.901 3.07-2.744 3.643a9.24 9.24 0 01-1.517.272c-.613.066-1.277.1-1.995.101h-5.524v-.336c.651-.008 1.099-.107 1.297-.34a.723.723 0 00.18-.266c.04-.101.063-.275.076-.508zm1.733-13.09v6.255h2.197c2.554-.015 3.877-1.076 3.89-3.2.019-2.063-1.375-3.07-4.079-3.055H96.9zm6.528 10.355c-.016-1.457-.542-2.488-1.593-3.066-.319-.16-.725-.286-1.212-.376a9.123 9.123 0 00-1.61-.135h-2.113v7.302h2.113c1.53.006 2.65-.28 3.339-.878.348-.289.614-.677.798-1.167.183-.49.275-1.051.278-1.68zM113.53 53.31c-.114-.225-.195-.494-.228-1.182l-.011-.202-.135.154c-.161.179-.319.339-.473.472a6.349 6.349 0 01-.538.413c-.444.327-.873.557-1.283.69a4.343 4.343 0 01-1.388.194c-.898.005-1.588-.209-2.08-.628a2.583 2.583 0 01-.651-.936 3.215 3.215 0 01-.241-1.219c.01-1.605.995-2.64 3.011-3.099a17.657 17.657 0 011.689-.304c.594-.08 1.269-.145 2.021-.196l.079-1.4c0-.479-.023-.867-.069-1.162a2.696 2.696 0 00-.234-.78c-.298-.583-.909-.862-1.789-.862-1.414-.008-2.18.666-2.26 2.003a1.802 1.802 0 01-.056.453.365.365 0 01-.137.195c-.141.095-.365.149-.686.153-.694.01-.953-.196-.942-.543.005-.363.125-.714.366-1.052.243-.339.58-.635 1.015-.885.782-.434 1.785-.656 3.014-.66 1.345.005 2.246.308 2.739.892.2.244.348.547.443.915.097.365.145.83.145 1.395l-.002.118-.011.548-.029 1.446-.022 1.987-.02.963c.002.453.02.798.053 1.184.03.376.165.797.466.908.313.116.616.162 1.191.166.422-.008.748-.057.968-.15.251-.107.406-.334.473-.656.065-.314.092-.792.086-1.432V45.6c.014-.765-.075-1.302-.292-1.583-.213-.273-.608-.391-1.152-.385v-.3l2.993-.216v2.384l.156-.28c.443-.787.945-1.346 1.505-1.68.559-.335 1.26-.502 2.104-.493 1.27-.018 2.153.407 2.671 1.257.19.286.327.628.41 1.03.082.402.124.915.121 1.541v4.335c-.008.646.019 1.128.081 1.441.065.322.217.548.469.65.209.088.696.134 1.11.145.389-.01.689-.06.895-.149.244-.108.393-.335.456-.655.061-.315.088-.792.08-1.432V41.019c.008-.584-.017-1.017-.075-1.297-.061-.292-.212-.491-.457-.579-.214-.075-.534-.11-.954-.112v-.297l3.113-.16a74.034 74.034 0 00-.119 4.097v6.846l3.428-3.757c.485-.537.751-.988.755-1.35.024-.504-.483-.73-1.318-.772v-.298h4.456v.302c-.267.03-.5.08-.698.148-.216.073-.437.179-.662.316a7.121 7.121 0 00-.576.38 5.112 5.112 0 00-.559.505 44.37 44.37 0 00-.934.992l-1.132 1.219 2.963 4.661c.338.553.649.942.935 1.163.273.212.621.349 1.04.413v.304h-2.71c-.074-.15-.177-.347-.307-.588l-.431-.787-.331-.593-2.192-3.573-1.723 1.93-.004 1.079c-.009.64.018 1.118.08 1.432.064.322.214.547.463.655.218.094.541.143.962.15v.295h-9.159v-.294c.62-.018 1.047-.118 1.217-.346a.982.982 0 00.157-.3c.036-.111.059-.257.069-.435.013-.14.025-.343.039-.608.015-.267.023-.45.024-.548v-4.21c.004-1.038-.107-1.806-.342-2.295-.358-.769-1.002-1.154-1.917-1.157-1.02-.003-1.832.482-2.434 1.441a4.64 4.64 0 00-.532 1.236c-.125.46-.192.915-.193 1.36v3.624c-.007.646.019 1.128.081 1.441.065.322.217.548.469.65.221.093.549.14.977.147v.294h-4.505c-.399.014-1.161.034-1.537.03-.396-.007-.587-.048-.947-.076-.321-.094-.455-.177-.561-.387zm-5.312-2.307c.008.684.174 1.237.505 1.655.332.42.781.637 1.335.646a3.24 3.24 0 001.585-.436 3.19 3.19 0 001.166-1.133c.172-.299.297-.684.376-1.152.078-.464.117-1.042.117-1.734v-1.075c-1.004.087-1.722.182-2.243.293-.525.11-.989.269-1.393.477-.959.476-1.44 1.302-1.448 2.46zM20.08 47.409v3.731c-.008.599.027 1.044.103 1.334.077.29.243.482.5.575.254.094.648.148 1.178.157v.522H16v-.522c.499-.009.868-.063 1.11-.157.239-.093.393-.285.464-.575.07-.29.103-.735.095-1.334v-9.81c.007-.6-.024-1.044-.092-1.335-.068-.291-.218-.484-.446-.581-.23-.097-.582-.154-1.057-.17v-.523h5.582c1.882-.007 3.261.324 4.137.996.875.673 1.308 1.73 1.297 3.178.007 2.032-.785 3.362-2.374 3.992-.414.161-.942.288-1.584.38-.643.092-1.358.14-2.143.142h-.909zm0-.582h.965c1.16-.005 2.012-.277 2.56-.823.297-.314.522-.729.676-1.24.153-.51.231-1.093.232-1.75-.006-2.47-1.089-3.708-3.245-3.711H20.08v7.524zM36.643 48.066h-6.818c.006.728.049 1.338.127 1.831a5.8 5.8 0 00.374 1.35c.566 1.32 1.441 1.98 2.626 1.98a3.093 3.093 0 001.823-.593c.545-.391 1-.955 1.36-1.687l.483.32c-.474.945-1.055 1.639-1.74 2.082-.684.442-1.52.662-2.506.657-1.552-.02-2.98-.516-3.874-1.487-.895-.972-1.35-2.304-1.368-3.993.018-1.702.459-3.048 1.322-4.04.863-.99 2.242-1.497 3.727-1.519.988.002 1.942.227 2.619.676.677.446 1.176 1.102 1.498 1.965.105.285.185.612.239.982.054.368.09.86.108 1.476zm-6.8-.579h4.266a15.451 15.451 0 00-.099-1.49 4.943 4.943 0 00-.229-1.01c-.36-1.05-.913-1.57-1.66-1.56-.837.007-1.46.593-1.872 1.76-.105.302-.19.634-.254.993-.064.36-.115.795-.151 1.307zM36.875 43.268l3.782-.26c.02.377.036.693.046.95.01.258.015.483.015.68v.602c.822-1.502 1.815-2.26 2.977-2.273.504.01.912.157 1.225.44.314.283.476.647.486 1.09-.008.368-.143.663-.408.885-.264.22-.611.336-1.04.34-.517.017-.832-.196-.946-.642-.075-.277-.152-.464-.232-.564-.08-.1-.196-.146-.352-.141h-.04c-.396.034-.771.348-1.127.947a3.83 3.83 0 00-.362.987c-.08.36-.12.777-.12 1.246v3.722c-.008.594.021 1.031.086 1.314.065.28.214.465.444.553.231.086.59.135 1.08.145v.483h-5.594v-.483c.456.002.794-.042 1.013-.133.22-.09.362-.28.428-.565.066-.288.095-.726.089-1.314v-5.574c.017-.83-.065-1.368-.25-1.617-.185-.248-.585-.36-1.2-.334v-.484zM50.13 43.007L50.152 45c.815-1.34 1.982-2.018 3.501-2.032 1.545-.009 2.498.694 2.857 2.114.436-.733.936-1.268 1.496-1.607.56-.343 1.215-.511 1.964-.507 1.184.006 2.056.396 2.616 1.167.218.293.375.649.467 1.071.094.423.14.972.137 1.645v4.427c-.008.588.022 1.025.087 1.312.066.287.21.476.428.567.22.09.558.135 1.014.132v.483h-5.453v-.483c.436.003.76-.041.97-.132.212-.09.35-.28.413-.567.064-.287.092-.724.086-1.312V46.87c.005-1.057-.126-1.82-.39-2.288-.264-.47-.69-.699-1.28-.69-.708-.013-1.305.356-1.79 1.107a3.56 3.56 0 00-.624 2.033v4.245c-.007.588.022 1.025.086 1.312.064.287.203.476.417.567.215.09.543.135.986.132v.483h-5.393v-.483c.436.003.76-.041.971-.132.212-.09.35-.28.412-.567.064-.287.093-.724.086-1.312V46.85c.01-1.992-.533-2.977-1.63-2.957-.682.024-1.255.348-1.715.97-.461.623-.7 1.4-.719 2.33v4.084c-.006.594.022 1.036.086 1.322.063.286.2.474.412.561.211.088.535.13.971.128v.483h-5.453v-.483c.456.003.793-.04 1.014-.128.22-.087.362-.275.427-.561.066-.286.095-.728.088-1.322v-5.593c.022-.82-.061-1.35-.247-1.592-.184-.243-.598-.355-1.241-.34v-.484l3.923-.26zM78.765 43.961v6.72c-.001.437.015.8.047 1.086.033.287.084.528.154.724.085.225.217.404.394.54a.994.994 0 00.59.205c.431-.006.9-.215 1.41-.623l.282.502c-.808.678-1.727 1.013-2.756 1.007-1.11-.017-1.868-.387-2.275-1.107-.079-.16-.141-.34-.185-.546a5.474 5.474 0 01-.091-.828 29.272 29.272 0 01-.025-1.402V43.96h-1.147v-.603c.439-.017.81-.11 1.114-.277.305-.168.57-.43.798-.79.178-.273.325-.577.44-.91.115-.333.216-.748.304-1.243l1.007-.1a39.245 39.245 0 00-.054 1.799c-.005.385-.007.88-.007 1.48H81.2v.644h-2.435zM75.185 53.342v.425c-.588.038-.826.038-1.445.038-.491 0-1-.008-1.422-.166a1.389 1.389 0 01-.601-.387c-.136-.216-.222-.228-.266-.828-.52.561-1.06.972-1.621 1.238a4.184 4.184 0 01-1.819.392c-.966-.011-1.721-.277-2.267-.8-.545-.523-.822-1.243-.832-2.158-.003-1.727 1.07-2.8 3.219-3.219.97-.188 2.069-.316 3.3-.383v-1.308c.01-1.047-.1-1.773-.332-2.177-.232-.403-.644-.597-1.237-.578-.63-.014-1.08.215-1.348.683a1.808 1.808 0 00-.214.557c-.045.209-.081.499-.108.872-.016.359-.12.614-.312.764-.192.152-.497.226-.916.223-.932-.008-1.401-.317-1.408-.926.003-.356.113-.697.33-1.019.216-.324.522-.608.918-.853.837-.516 1.938-.77 3.3-.765 1.384-.006 2.377.269 2.977.826.27.255.47.58.596.975.127.396.19.902.188 1.52l-.02 1.75-.02 1.75c-.016.574-.023.936-.02 1.087-.007.726.016 1.255.069 1.589.053.334.11.482.33.663.384.22.713.213.98.215zm-3.754-3.835V47.96c-1.44.096-2.462.363-3.066.798-.602.436-.895 1.114-.877 2.037.006.724.154 1.298.445 1.723.29.425.685.642 1.184.65.41-.002.787-.12 1.134-.354.347-.231.62-.557.818-.973.129-.254.222-.565.28-.933a9.4 9.4 0 00.082-1.4zM92.464 53.34v.425c-.59.039-.827.04-1.446.04-.49 0-.998-.008-1.421-.166-.261-.098-.406-.18-.601-.388-.136-.215-.223-.228-.266-.827-.52.56-1.06.972-1.622 1.238a4.204 4.204 0 01-1.819.392c-.965-.011-1.72-.278-2.266-.8-.545-.523-.822-1.243-.833-2.158-.002-1.727 1.07-2.8 3.22-3.219.97-.189 2.069-.316 3.3-.383v-1.308c.01-1.047-.101-1.773-.332-2.178-.232-.404-.645-.596-1.238-.577-.63-.014-1.08.215-1.348.683a1.797 1.797 0 00-.213.557 6.605 6.605 0 00-.108.872c-.016.358-.12.613-.313.764-.192.152-.497.226-.915.223-.932-.008-1.401-.316-1.409-.926.003-.356.114-.697.33-1.019.216-.324.523-.608.918-.852.838-.517 1.938-.772 3.3-.766 1.385-.006 2.377.269 2.978.826.27.255.469.58.596.975.126.396.19.902.188 1.52l-.02 1.75-.02 1.75c-.017.574-.024.936-.02 1.087-.008.726.016 1.255.068 1.589.053.334.11.482.33.663.384.22.714.212.982.213zm-3.754-3.832v-1.55c-1.441.098-2.463.364-3.066.799-.604.436-.896 1.114-.878 2.037.006.724.155 1.298.445 1.723.29.425.686.642 1.184.65.41-.002.788-.12 1.135-.354.346-.231.619-.557.817-.973.13-.255.223-.565.28-.933.056-.368.084-.835.083-1.4z" fill="#EDF0F5"/><path d="M134.072 28.53l-.04.776 14.867 17.441.534.086.067-.034.262-.482-6.341-21.223-1.076-.725-8.273 4.162z" fill="#0096B8"/><path d="M134.032 29.348l14.867 17.441.534.086-10.964-16.68-4.437-.847z" fill="#005675"/><path d="M142.216 24.37l-3.79 4.461 1.548.677 3.318-4.413-1.076-.726z" fill="#0BBBEF"/><path d="M133.845 29.368l4.436.847.085-1.322-4.483-.298-.038.773zM140.105 29.603l9.4 17.291.261-.483-6.34-21.22-3.321 4.412z" fill="#007290"/><path d="M157.922 24.076l9.614 4.42.018 1.247-15.777 23.897-.719.19-.107-.049-.224-.538 6.358-28.701.837-.466z" fill="#81B73E"/><path d="M161.251 30.225l-10.092 23.54.719-.188 15.777-23.898-6.404.546z" fill="#69931D"/><path d="M157.171 24.516l-6.358 28.698.225.539 8.383-24.49-2.25-4.747z" fill="#277933"/><path d="M160.685 28.557l.363 1.705 6.404-.546-.018-1.246-6.749.087z" fill="#AECC53"/><path d="M156.903 24.425l2.248 4.746 1.454-.704-2.864-4.507-.838.465z" fill="#69931D"/><path d="M143.111 17.184l.384-.736 12.307-.133.795.825-5.896 19.701-.374.217-.012-.002-.404-.272-6.8-19.6z" fill="#E4032E"/><path d="M143.111 17.194l4.768 2.375.887-1.049-5.273-2.06-.382.734z" fill="#B51227"/><path d="M143.111 17.195l6.8 19.6.402.271-2.433-17.499-4.769-2.373z" fill="#791B15"/><path d="M150.16 19.566l.132 17.497.375-.218 5.896-19.7-6.403 2.42z" fill="#B51227"/><path d="M155.8 16.322l-7.034 2.195 1.427 1.05 6.402-2.42-.795-.825z" fill="#EA5160"/></svg>