<svg width="120" height="120" viewBox="0 0 120 120" fill="none" xmlns="http://www.w3.org/2000/svg">
<path d="M59.5 93C75.7924 93 89 80.2401 89 64.5C89 48.7599 75.7924 36 59.5 36C43.2076 36 30 48.7599 30 64.5C30 80.2401 43.2076 93 59.5 93Z" fill="url(#paint0_linear)"/>
<path d="M57.3347 59.9334L73.9821 53.1131C74.7322 52.8093 75.5689 53.1407 75.8863 53.831C76.1459 54.4109 75.944 55.1012 75.4535 55.4601L61.2585 66.2015C59.5851 67.4716 57.1615 67.1955 55.8344 65.594C54.5072 63.9924 54.7957 61.673 56.4691 60.4028C56.7288 60.2371 57.0461 60.0714 57.3347 59.9334Z" fill="white"/>
<path d="M85.0705 92C84.4933 92 83.8872 91.774 83.4254 91.3503C82.5307 90.4746 82.5307 89.0339 83.4254 88.1582C89.8325 81.887 93.3534 73.5819 93.3534 64.7119C93.3534 46.435 78.1728 31.548 59.4711 31.548C40.7695 31.548 25.6177 46.4068 25.6177 64.6836C25.6177 73.5254 29.1387 81.8588 35.5457 88.1299C36.4404 89.0056 36.4404 90.4463 35.5457 91.322C34.651 92.1977 33.1792 92.1977 32.2845 91.322C25.0116 84.2034 21 74.7401 21 64.6836C21 43.9209 38.2586 27 59.5 27C80.7414 27 98 43.8927 98 64.6836C98 74.7401 93.9884 84.2034 86.7155 91.322C86.2537 91.774 85.6765 92 85.0705 92Z" fill="url(#paint1_linear)"/>
<defs>
<linearGradient id="paint0_linear" x1="30" y1="36" x2="86.9661" y2="94.9649" gradientUnits="userSpaceOnUse">
<stop stop-color="#FFBE41"/>
<stop offset="1" stop-color="#FF9141"/>
</linearGradient>
<linearGradient id="paint1_linear" x1="21" y1="27" x2="85.0782" y2="102.908" gradientUnits="userSpaceOnUse">
<stop stop-color="#78A0FF"/>
<stop offset="1" stop-color="#5078E6"/>
</linearGradient>
</defs>
</svg>
