<svg width="120" height="120" viewBox="0 0 120 120" fill="none" xmlns="http://www.w3.org/2000/svg">
<path d="M35 26V86H85V26L35 26Z" fill="url(#paint0_linear)"/>
<path fill-rule="evenodd" clip-rule="evenodd" d="M30.1129 30H89.8871C91.0458 30 92 30.9053 92 32.0452V36.1692V90.7201C92 91.9941 90.9436 93 89.6826 93H30.3174C29.0224 93 28 91.9606 28 90.7201V36.2028V32.0788C28 30.9388 28.9542 30 30.1129 30ZM32 89H87.9667H88V40H32V89Z" fill="url(#paint1_linear)"/>
<path d="M32.5 36C33.3284 36 34 35.3284 34 34.5C34 33.6716 33.3284 33 32.5 33C31.6716 33 31 33.6716 31 34.5C31 35.3284 31.6716 36 32.5 36Z" fill="white"/>
<path d="M38.5 36C39.3284 36 40 35.3284 40 34.5C40 33.6716 39.3284 33 38.5 33C37.6716 33 37 33.6716 37 34.5C37 35.3284 37.6716 36 38.5 36Z" fill="white"/>
<path d="M44.5 36C45.3284 36 46 35.3284 46 34.5C46 33.6716 45.3284 33 44.5 33C43.6716 33 43 33.6716 43 34.5C43 35.3284 43.6716 36 44.5 36Z" fill="white"/>
<path fill-rule="evenodd" clip-rule="evenodd" d="M50.4536 57H70.5464C71.9058 57 73 58.125 73 59.5227V75.4773C73 76.875 71.9058 78 70.5464 78H50.4536C49.0942 78 48 76.875 48 75.4773V59.5227C48 58.125 49.0942 57 50.4536 57ZM62.0583 72.3751V68.0455C62.7878 67.5341 63.2851 66.6478 63.3183 65.6251C63.3183 63.9887 62.0252 62.6932 60.4668 62.6932C58.8753 62.6932 57.6154 64.0228 57.6154 65.6251C57.6154 66.6478 58.1127 67.5341 58.8753 68.0455V72.3751H62.0583Z" fill="white"/>
<path d="M68.2056 61C67.2556 61 66.4815 60.211 66.4815 59.2427V53.8274C66.4815 50.4921 63.913 47.6589 60.6407 47.5513C57.2278 47.4437 54.4481 50.241 54.4481 53.6839V59.2427C54.4481 60.211 53.6741 61 52.7241 61C51.7741 61 51 60.211 51 59.2427V53.8632C51 48.4479 55.363 43.9291 60.6759 44.0008C65.8481 44.1084 70 48.412 70 53.6839V59.2427C69.9296 60.211 69.1556 61 68.2056 61Z" fill="white"/>
<defs>
<linearGradient id="paint0_linear" x1="35" y1="26" x2="94.0164" y2="75.1803" gradientUnits="userSpaceOnUse">
<stop stop-color="#FFBE41"/>
<stop offset="1" stop-color="#FF9141"/>
</linearGradient>
<linearGradient id="paint1_linear" x1="28" y1="30" x2="90.9922" y2="93.9921" gradientUnits="userSpaceOnUse">
<stop stop-color="#78A0FF"/>
<stop offset="1" stop-color="#5078E6"/>
</linearGradient>
</defs>
</svg>
