<svg width="120" height="120" viewBox="0 0 120 120" fill="none" xmlns="http://www.w3.org/2000/svg">
<path d="M83 31.8244C68.6644 24.0585 51.3356 24.0585 37 31.8244V42.3347C37 61.0788 46.389 77.2966 60 85C73.611 77.2966 83 61.0788 83 42.3347V31.8244Z" fill="url(#paint0_linear)"/>
<path fill-rule="evenodd" clip-rule="evenodd" d="M56.6139 91.106L60 93L63.3861 91.0749C71.3291 86.6348 78.0063 79.8038 82.7215 71.3273C87.5 62.7575 90 52.8526 90 42.6994V41.209C90 39.8738 89.3038 38.6629 88.1646 37.9487C79.7152 32.7324 69.9684 30 60 30C50.0316 30 40.2848 32.7634 31.8354 37.9487C30.6962 38.6629 30 39.8738 30 41.209V42.7304C30 52.8837 32.5316 62.7886 37.2785 71.3583C41.9937 79.8349 48.6709 86.6658 56.6139 91.106ZM33.7026 40.8364C41.5823 35.9927 50.6962 33.4155 60 33.4155C69.3038 33.4155 78.4178 35.9616 86.3608 40.8054C86.4874 40.8985 86.5507 41.0227 86.5507 41.178V42.6994C86.5507 52.2938 84.2089 61.6087 79.7152 69.6817C75.3165 77.6304 69.0823 83.9956 61.7089 88.1252L60.0317 89.0567L58.3545 88.1252C50.981 83.9646 44.7469 77.5994 40.3481 69.6817C35.8861 61.6087 33.5127 52.2938 33.5127 42.6994V41.209C33.5127 41.0538 33.576 40.9296 33.7026 40.8364Z" fill="url(#paint1_linear)"/>
<path d="M60.1884 66C59.7461 66 59.3038 65.8425 58.9879 65.5274L49.5416 56.548C48.8466 55.8863 48.815 54.7836 49.4785 54.0905C50.1419 53.3973 51.2477 53.3658 51.9427 54.0274L59.8409 61.5576L69.7926 45.8042C70.2981 44.985 71.3722 44.7645 72.1936 45.2686C73.015 45.7727 73.2362 46.8439 72.7307 47.6631L61.6417 65.2123C61.3573 65.6534 60.915 65.937 60.3779 66C60.3148 65.9685 60.2516 66 60.1884 66Z" fill="white"/>
<defs>
<linearGradient id="paint0_linear" x1="37" y1="26" x2="94.2185" y2="70.611" gradientUnits="userSpaceOnUse">
<stop stop-color="#FFBE41"/>
<stop offset="1" stop-color="#FF9141"/>
</linearGradient>
<linearGradient id="paint1_linear" x1="30" y1="30" x2="92.9251" y2="89.9287" gradientUnits="userSpaceOnUse">
<stop stop-color="#78A0FF"/>
<stop offset="1" stop-color="#5078E6"/>
</linearGradient>
</defs>
</svg>
