<svg width="120" height="120" viewBox="0 0 120 120" fill="none" xmlns="http://www.w3.org/2000/svg">
<path d="M91.8094 71.8472L67.3901 58L63.9788 59.9592L88.567 73.9061L61.0742 89.5133C60.9053 89.6129 60.7026 89.6461 60.5 89.6461C60.2974 89.6461 60.0947 89.5797 59.9258 89.5133L32.433 73.9061L57.0212 59.9592L53.6099 58L29.1906 71.8472C27.6031 72.7438 27.6031 75.0351 29.1906 75.9317L58.2371 92.4023C58.9463 92.8008 59.7232 93 60.5 93C61.2768 93 62.0874 92.8008 62.7629 92.4023L91.8094 75.9317C93.3969 75.0019 93.3969 72.7438 91.8094 71.8472Z" fill="url(#paint0_linear)"/>
<path d="M61 57L77 48L61 39L45 48L61 57Z" fill="url(#paint1_linear)"/>
<path d="M91.0183 61.736C92.347 60.9661 92.3482 59.048 91.0205 58.2764L80.4219 52.1169C79.8011 51.7561 79.0346 51.7558 78.4135 52.116L61.0002 62.2159C60.6665 62.4168 59.3 61.8834 58.9663 61.6825L41.5842 51.5824C40.9643 51.2222 40.199 51.2213 39.5784 51.5802L27.9917 58.2786C26.6605 59.0482 26.6595 60.9696 27.9899 61.7406L58.4974 79.4189C59.1176 79.7783 59.8827 79.7783 60.5029 79.4189L91.0183 61.736Z" fill="url(#paint2_linear)"/>
<path fill-rule="evenodd" clip-rule="evenodd" d="M58.2371 26.6099C58.9126 26.2033 59.7232 26 60.5 26C61.2768 26 62.0874 26.2033 62.7629 26.6099L91.8094 43.4162C93.3969 44.331 93.3969 46.669 91.8094 47.5838L62.7629 64.3901C62.0874 64.7967 61.2768 65 60.5 65C59.7232 65 58.9463 64.7967 58.2371 64.3901L29.1906 47.5838C27.6031 46.669 27.6031 44.331 29.1906 43.4162L58.2371 26.6099ZM61.5728 29.135C61.4043 29.0675 61.2022 29 61 29C60.7978 29 60.5957 29.0675 60.4272 29.1688L33 45.0338L60.4272 60.865C60.5957 60.9325 60.7978 61 61 61C61.2022 61 61.4043 60.9662 61.5728 60.865L89 45L61.5728 29.135Z" fill="url(#paint3_linear)"/>
<defs>
<linearGradient id="paint0_linear" x1="28" y1="58" x2="57.2202" y2="112.266" gradientUnits="userSpaceOnUse">
<stop stop-color="#78A0FF"/>
<stop offset="1" stop-color="#5078E6"/>
</linearGradient>
<linearGradient id="paint1_linear" x1="45" y1="39" x2="60.3828" y2="66.3472" gradientUnits="userSpaceOnUse">
<stop stop-color="#FFBE41"/>
<stop offset="1" stop-color="#FF9141"/>
</linearGradient>
<linearGradient id="paint2_linear" x1="26.9927" y1="51.3116" x2="47.7982" y2="98.9855" gradientUnits="userSpaceOnUse">
<stop stop-color="#FFBE41"/>
<stop offset="1" stop-color="#FF9141"/>
</linearGradient>
<linearGradient id="paint3_linear" x1="28" y1="26" x2="62.4118" y2="83.3529" gradientUnits="userSpaceOnUse">
<stop stop-color="#78A0FF"/>
<stop offset="1" stop-color="#5078E6"/>
</linearGradient>
</defs>
</svg>
