<svg width="120" height="120" viewBox="0 0 120 120" fill="none" xmlns="http://www.w3.org/2000/svg">
<path d="M59.4375 95.8737C59.1851 95.8737 58.9537 95.8317 58.7223 95.7265L54.9145 93.9593C54.073 93.5596 53.7153 92.5709 54.094 91.7294C54.4937 90.8879 55.4825 90.5302 56.324 90.9089L59.4375 92.3605L62.5511 90.9089C63.3926 90.5092 64.4024 90.8879 64.7811 91.7294C65.1808 92.5709 64.8021 93.5807 63.9606 93.9593L60.1528 95.7265C59.9214 95.8317 59.69 95.8737 59.4375 95.8737Z" fill="url(#paint0_linear)"/>
<path d="M54.9143 93.9383C54.0728 93.5386 53.6941 92.5498 54.0938 91.7083C54.4935 90.8668 55.4823 90.5092 56.3238 90.8878C57.1653 91.2876 57.5229 92.2763 57.1443 93.1178C56.8497 93.7279 56.2607 94.0855 55.6296 94.0855C55.3771 94.1066 55.1457 94.0435 54.9143 93.9383Z" fill="url(#paint1_linear)"/>
<path d="M46.6046 89.899C46.3521 89.899 46.1207 89.857 45.8893 89.7307L36.8642 85.5233C36.2752 85.2498 35.8965 84.6397 35.8965 84.0086C35.8965 83.7561 35.9386 83.5247 36.0648 83.2933C36.3383 82.7042 36.9484 82.3256 37.6005 82.3256C37.853 82.3256 38.0844 82.3676 38.3158 82.4939L47.3409 86.7014C48.1824 87.1011 48.54 88.0898 48.1613 88.9313C47.8458 89.5204 47.2567 89.899 46.6046 89.899Z" fill="url(#paint2_linear)"/>
<path d="M28.5543 81.5051C28.3228 81.5051 28.0704 81.463 27.839 81.3368L24.0312 79.5697C23.4422 79.2962 23.0635 78.7071 23.0635 78.0339V73.8264C23.0635 72.9008 23.8208 72.1434 24.7465 72.1434C25.6721 72.1434 26.4295 72.9008 26.4295 73.8264V76.961L29.2695 78.2864C30.111 78.6861 30.4687 79.6748 30.09 80.5163C29.7955 81.1264 29.1854 81.5051 28.5543 81.5051Z" fill="url(#paint3_linear)"/>
<path d="M23.0635 73.8264C23.0635 72.9008 23.8208 72.1434 24.7465 72.1434C25.6721 72.1434 26.4295 72.9008 26.4295 73.8264C26.4295 74.7521 25.6721 75.5094 24.7465 75.5094C23.7998 75.5094 23.0635 74.7521 23.0635 73.8264Z" fill="url(#paint4_linear)"/>
<path d="M24.7465 65.2853C23.8208 65.2853 23.0635 64.5279 23.0635 63.6023V53.3781C23.0635 52.4524 23.8208 51.6951 24.7465 51.6951C25.6721 51.6951 26.4295 52.4524 26.4295 53.3781V63.6023C26.4295 64.5279 25.6721 65.2853 24.7465 65.2853Z" fill="url(#paint5_linear)"/>
<path d="M24.7465 44.8368C23.8208 44.8368 23.0635 44.0795 23.0635 43.1538V38.9463C23.0635 38.2521 23.4842 37.642 24.1153 37.3896L28.0073 35.8117C28.8698 35.4541 29.8586 35.8749 30.1952 36.7374C30.5528 37.5999 30.1321 38.5887 29.2695 38.9253L26.4295 40.0823V43.1538C26.4295 44.0795 25.6721 44.8368 24.7465 44.8368Z" fill="url(#paint6_linear)"/>
<path d="M27.0818 37.9786C26.7241 37.1161 27.1449 36.1273 28.0074 35.7907C28.8699 35.4331 29.8587 35.8539 30.1953 36.7164C30.5529 37.5789 30.1322 38.5677 29.2697 38.9043C29.0593 38.9884 28.8489 39.0305 28.6385 39.0305C27.9653 39.0305 27.3342 38.6308 27.0818 37.9786Z" fill="url(#paint7_linear)"/>
<path fill-rule="evenodd" clip-rule="evenodd" d="M63.2029 28.1541C63.4133 28.2383 63.6237 28.2804 63.834 28.2804C64.5283 28.2804 65.1384 27.8596 65.3908 27.2495C65.7274 26.387 65.3277 25.4193 64.4652 25.0616L60.0683 23.2734C59.6686 23.1051 59.2058 23.1051 58.8061 23.2734L54.4093 25.0616C53.5467 25.3982 53.126 26.387 53.4836 27.2495C53.7361 27.8806 54.3462 28.3014 55.0404 28.3014C55.2297 28.3014 55.398 28.2593 55.5874 28.1962C55.5995 28.1841 55.6046 28.179 55.6108 28.1768C55.6154 28.1752 55.6205 28.1752 55.6294 28.1752C55.64 28.1752 55.6452 28.1699 55.6505 28.1647C55.6557 28.1594 55.661 28.1541 55.6715 28.1541L59.4372 26.6184L63.2029 28.1541ZM81.4425 35.4331C81.2321 35.4331 81.0007 35.3911 80.8114 35.3069L72.0177 31.7095C71.3866 31.457 70.9658 30.847 70.9658 30.1527C70.9658 29.9423 71.0079 29.7109 71.092 29.5216C71.3445 28.8905 71.9546 28.4697 72.6488 28.4697C72.8592 28.4697 73.0696 28.5118 73.2799 28.596L82.0736 32.1723C82.7047 32.4248 83.1255 33.0349 83.1255 33.7291C83.1255 33.9395 83.0834 34.1498 82.9992 34.3602C82.7468 35.0334 82.1367 35.4331 81.4425 35.4331ZM35.8752 34.4022C36.1277 35.0333 36.7378 35.4541 37.432 35.4541C37.6634 35.4541 37.8738 35.412 38.0631 35.3489L46.8568 31.7515C47.4879 31.499 47.9086 30.889 47.9086 30.1947C47.9086 29.9843 47.8666 29.774 47.7824 29.5636C47.53 28.9325 46.9199 28.5117 46.2256 28.5117C46.0153 28.5117 45.8049 28.5538 45.5945 28.6379L36.8009 32.2143C35.9383 32.5509 35.5176 33.5397 35.8752 34.4022ZM89.6049 38.9043C89.7942 38.9885 90.0256 39.0305 90.236 39.0305C90.9302 39.0305 91.5403 38.6098 91.7927 37.9787C92.1293 37.1161 91.7296 36.1484 90.8671 35.7908C90.6567 35.7066 90.4464 35.6646 90.236 35.6646C89.5417 35.6646 88.9317 36.0853 88.6792 36.7164C88.5951 36.9058 88.553 37.1372 88.553 37.3475C88.553 38.0418 88.9737 38.6519 89.6049 38.9043Z" fill="url(#paint8_linear)"/>
<path d="M94.1281 44.8368C93.2025 44.8368 92.4451 44.0795 92.4451 43.1538V40.0823L89.6051 38.9253C88.7425 38.5676 88.3218 37.5999 88.6794 36.7374C89.0371 35.8749 90.0048 35.4541 90.8673 35.8117L94.7592 37.3896C95.3904 37.642 95.8111 38.2731 95.8111 38.9463V43.1538C95.8111 44.0795 95.0748 44.8368 94.1281 44.8368Z" fill="url(#paint9_linear)"/>
<path d="M92.4453 43.1538C92.4453 42.2282 93.2027 41.4708 94.1283 41.4708C95.054 41.4708 95.8113 42.2282 95.8113 43.1538C95.8113 44.0795 95.054 44.8368 94.1283 44.8368C93.2027 44.8368 92.4453 44.0795 92.4453 43.1538Z" fill="url(#paint10_linear)"/>
<path fill-rule="evenodd" clip-rule="evenodd" d="M92.4453 63.6023C92.4453 64.5279 93.2027 65.2853 94.1283 65.2853C95.075 65.2853 95.8113 64.5279 95.8113 63.6023V53.3781C95.8113 52.4524 95.054 51.6951 94.1283 51.6951C93.2027 51.6951 92.4453 52.4524 92.4453 53.3781V63.6023ZM92.4453 73.8264C92.4453 74.7521 93.2027 75.5094 94.1283 75.5094C95.075 75.5094 95.8113 74.7521 95.8113 73.8264C95.8113 72.9008 95.054 72.1434 94.1283 72.1434C93.2027 72.1434 92.4453 72.9008 92.4453 73.8264Z" fill="url(#paint11_linear)"/>
<path d="M90.3205 81.5052C89.6894 81.5052 89.0793 81.1475 88.7848 80.5375C88.385 79.696 88.7637 78.6862 89.6052 78.3075L92.4453 76.9821V73.8475C92.4453 72.9219 93.2026 72.1646 94.1283 72.1646C95.0539 72.1646 95.8113 72.9219 95.8113 73.8475V78.055C95.8113 78.7072 95.4326 79.2963 94.8435 79.5908L91.0358 81.3579C90.8043 81.4421 90.5729 81.5052 90.3205 81.5052Z" fill="url(#paint12_linear)"/>
<path d="M88.8053 80.5164C88.4055 79.6749 88.7842 78.6651 89.6257 78.2865C90.4672 77.8867 91.477 78.2654 91.8557 79.1069C92.2554 79.9484 91.8767 80.9582 91.0352 81.3369C90.8038 81.4421 90.5724 81.5052 90.32 81.5052C89.6888 81.5052 89.0787 81.1265 88.8053 80.5164Z" fill="url(#paint13_linear)"/>
<path d="M72.2704 89.899C71.6183 89.899 71.0082 89.5204 70.7347 88.9313C70.6295 88.6999 70.5664 88.4685 70.5664 88.2161C70.5664 87.5639 70.9451 86.9748 71.5341 86.7014L80.5592 82.4939C80.7906 82.3887 81.022 82.3256 81.2745 82.3256C81.9266 82.3256 82.5367 82.7042 82.8102 83.2933C83.2099 84.1348 82.8312 85.1446 81.9897 85.5233L72.9647 89.7307C72.7543 89.857 72.5229 89.899 72.2704 89.899Z" fill="url(#paint14_linear)"/>
<path d="M59 48C57.9 48 57 47.2448 57 46.3217V28.6783C57 27.7552 57.9 27 59 27C60.1 27 61 27.7552 61 28.6783V46.3217C61 47.2448 60.1 48 59 48Z" fill="url(#paint15_linear)"/>
<path d="M59 94C57.9 94 57 93.2448 57 92.3217V74.6783C57 73.7552 57.9 73 59 73C60.1 73 61 73.7552 61 74.6783V92.3217C61 93.2448 60.1 94 59 94Z" fill="url(#paint16_linear)"/>
<path d="M97.2927 82C97.0169 82 96.7198 81.9364 96.4652 81.788L20.8585 39.169C20.0521 38.7025 19.755 37.6847 20.2219 36.8578C20.6887 36.0521 21.7285 35.7552 22.5348 36.2217L98.1415 78.8195C98.9479 79.286 99.245 80.3037 98.7781 81.1307C98.4598 81.6819 97.8869 82 97.2927 82Z" fill="url(#paint17_linear)"/>
<path d="M22.7047 81C22.1112 81 21.5389 80.6811 21.2209 80.1282C20.7546 79.299 21.0513 78.2784 21.878 77.8106L97.4686 35.2216C98.2953 34.7538 99.3127 35.0515 99.7791 35.8807C100.245 36.71 99.9487 37.7306 99.122 38.1984L23.5314 80.7874C23.2771 80.9362 22.9803 81 22.7047 81Z" fill="url(#paint18_linear)"/>
<path d="M59.5 79C70.2696 79 79 70.2696 79 59.5C79 48.7304 70.2696 40 59.5 40C48.7304 40 40 48.7304 40 59.5C40 70.2696 48.7304 79 59.5 79Z" fill="url(#paint19_linear)"/>
<path d="M24.5 46C28.6421 46 32 42.6421 32 38.5C32 34.3579 28.6421 31 24.5 31C20.3579 31 17 34.3579 17 38.5C17 42.6421 20.3579 46 24.5 46Z" fill="url(#paint20_linear)"/>
<path d="M94.5 46C98.6421 46 102 42.6421 102 38.5C102 34.3579 98.6421 31 94.5 31C90.3579 31 87 34.3579 87 38.5C87 42.6421 90.3579 46 94.5 46Z" fill="url(#paint21_linear)"/>
<path d="M59.5 32C63.6421 32 67 28.6421 67 24.5C67 20.3579 63.6421 17 59.5 17C55.3579 17 52 20.3579 52 24.5C52 28.6421 55.3579 32 59.5 32Z" fill="url(#paint22_linear)"/>
<path d="M59.5 102C63.6421 102 67 98.6421 67 94.5C67 90.3579 63.6421 87 59.5 87C55.3579 87 52 90.3579 52 94.5C52 98.6421 55.3579 102 59.5 102Z" fill="url(#paint23_linear)"/>
<path d="M24.5 86C28.6421 86 32 82.6421 32 78.5C32 74.3579 28.6421 71 24.5 71C20.3579 71 17 74.3579 17 78.5C17 82.6421 20.3579 86 24.5 86Z" fill="url(#paint24_linear)"/>
<path d="M94.5 86C98.6421 86 102 82.6421 102 78.5C102 74.3579 98.6421 71 94.5 71C90.3579 71 87 74.3579 87 78.5C87 82.6421 90.3579 86 94.5 86Z" fill="url(#paint25_linear)"/>
<defs>
<linearGradient id="paint0_linear" x1="53.9434" y1="90.7491" x2="57.8673" y2="99.1699" gradientUnits="userSpaceOnUse">
<stop stop-color="#78A0FF"/>
<stop offset="1" stop-color="#5078E6"/>
</linearGradient>
<linearGradient id="paint1_linear" x1="53.9341" y1="90.7372" x2="57.2865" y2="94.098" gradientUnits="userSpaceOnUse">
<stop stop-color="#78A0FF"/>
<stop offset="1" stop-color="#5078E6"/>
</linearGradient>
<linearGradient id="paint2_linear" x1="35.8965" y1="82.3256" x2="42.6304" y2="93.3648" gradientUnits="userSpaceOnUse">
<stop stop-color="#78A0FF"/>
<stop offset="1" stop-color="#5078E6"/>
</linearGradient>
<linearGradient id="paint3_linear" x1="23.0635" y1="72.1434" x2="32.1041" y2="79.0745" gradientUnits="userSpaceOnUse">
<stop stop-color="#78A0FF"/>
<stop offset="1" stop-color="#5078E6"/>
</linearGradient>
<linearGradient id="paint4_linear" x1="23.0635" y1="72.1434" x2="26.4295" y2="75.5094" gradientUnits="userSpaceOnUse">
<stop stop-color="#78A0FF"/>
<stop offset="1" stop-color="#5078E6"/>
</linearGradient>
<linearGradient id="paint5_linear" x1="23.0635" y1="51.6951" x2="29.4064" y2="53.2661" gradientUnits="userSpaceOnUse">
<stop stop-color="#78A0FF"/>
<stop offset="1" stop-color="#5078E6"/>
</linearGradient>
<linearGradient id="paint6_linear" x1="23.0635" y1="35.6841" x2="31.9758" y2="42.7528" gradientUnits="userSpaceOnUse">
<stop stop-color="#78A0FF"/>
<stop offset="1" stop-color="#5078E6"/>
</linearGradient>
<linearGradient id="paint7_linear" x1="26.9541" y1="35.6631" x2="30.3215" y2="39.0319" gradientUnits="userSpaceOnUse">
<stop stop-color="#78A0FF"/>
<stop offset="1" stop-color="#5078E6"/>
</linearGradient>
<linearGradient id="paint8_linear" x1="35.7476" y1="23.1472" x2="44.066" y2="52.5614" gradientUnits="userSpaceOnUse">
<stop stop-color="#78A0FF"/>
<stop offset="1" stop-color="#5078E6"/>
</linearGradient>
<linearGradient id="paint9_linear" x1="88.5518" y1="35.6841" x2="97.4641" y2="42.7528" gradientUnits="userSpaceOnUse">
<stop stop-color="#78A0FF"/>
<stop offset="1" stop-color="#5078E6"/>
</linearGradient>
<linearGradient id="paint10_linear" x1="92.4453" y1="41.4708" x2="95.8113" y2="44.8368" gradientUnits="userSpaceOnUse">
<stop stop-color="#78A0FF"/>
<stop offset="1" stop-color="#5078E6"/>
</linearGradient>
<linearGradient id="paint11_linear" x1="92.4453" y1="51.6951" x2="99.0454" y2="52.628" gradientUnits="userSpaceOnUse">
<stop stop-color="#78A0FF"/>
<stop offset="1" stop-color="#5078E6"/>
</linearGradient>
<linearGradient id="paint12_linear" x1="88.625" y1="72.1646" x2="97.6535" y2="79.1107" gradientUnits="userSpaceOnUse">
<stop stop-color="#78A0FF"/>
<stop offset="1" stop-color="#5078E6"/>
</linearGradient>
<linearGradient id="paint13_linear" x1="88.6455" y1="78.1267" x2="92.024" y2="81.4966" gradientUnits="userSpaceOnUse">
<stop stop-color="#78A0FF"/>
<stop offset="1" stop-color="#5078E6"/>
</linearGradient>
<linearGradient id="paint14_linear" x1="70.5664" y1="82.3256" x2="77.3033" y2="93.359" gradientUnits="userSpaceOnUse">
<stop stop-color="#78A0FF"/>
<stop offset="1" stop-color="#5078E6"/>
</linearGradient>
<linearGradient id="paint15_linear" x1="57" y1="27" x2="64.7199" y2="28.4705" gradientUnits="userSpaceOnUse">
<stop stop-color="#78A0FF"/>
<stop offset="1" stop-color="#5078E6"/>
</linearGradient>
<linearGradient id="paint16_linear" x1="57" y1="73" x2="64.7199" y2="74.4705" gradientUnits="userSpaceOnUse">
<stop stop-color="#78A0FF"/>
<stop offset="1" stop-color="#5078E6"/>
</linearGradient>
<linearGradient id="paint17_linear" x1="20" y1="36" x2="60.0057" y2="104.706" gradientUnits="userSpaceOnUse">
<stop stop-color="#78A0FF"/>
<stop offset="1" stop-color="#5078E6"/>
</linearGradient>
<linearGradient id="paint18_linear" x1="21" y1="35" x2="61.0057" y2="103.706" gradientUnits="userSpaceOnUse">
<stop stop-color="#78A0FF"/>
<stop offset="1" stop-color="#5078E6"/>
</linearGradient>
<linearGradient id="paint19_linear" x1="40" y1="40" x2="79" y2="79" gradientUnits="userSpaceOnUse">
<stop stop-color="#FFBE41"/>
<stop offset="1" stop-color="#FF9141"/>
</linearGradient>
<linearGradient id="paint20_linear" x1="17" y1="31" x2="32" y2="46" gradientUnits="userSpaceOnUse">
<stop stop-color="#FFBE41"/>
<stop offset="1" stop-color="#FF9141"/>
</linearGradient>
<linearGradient id="paint21_linear" x1="87" y1="31" x2="102" y2="46" gradientUnits="userSpaceOnUse">
<stop stop-color="#FFBE41"/>
<stop offset="1" stop-color="#FF9141"/>
</linearGradient>
<linearGradient id="paint22_linear" x1="52" y1="17" x2="67" y2="32" gradientUnits="userSpaceOnUse">
<stop stop-color="#FFBE41"/>
<stop offset="1" stop-color="#FF9141"/>
</linearGradient>
<linearGradient id="paint23_linear" x1="52" y1="87" x2="67" y2="102" gradientUnits="userSpaceOnUse">
<stop stop-color="#FFBE41"/>
<stop offset="1" stop-color="#FF9141"/>
</linearGradient>
<linearGradient id="paint24_linear" x1="17" y1="71" x2="32" y2="86" gradientUnits="userSpaceOnUse">
<stop stop-color="#FFBE41"/>
<stop offset="1" stop-color="#FF9141"/>
</linearGradient>
<linearGradient id="paint25_linear" x1="87" y1="71" x2="102" y2="86" gradientUnits="userSpaceOnUse">
<stop stop-color="#FFBE41"/>
<stop offset="1" stop-color="#FF9141"/>
</linearGradient>
</defs>
</svg>
