<svg width="120" height="120" viewBox="0 0 120 120" fill="none" xmlns="http://www.w3.org/2000/svg">
<path fill-rule="evenodd" clip-rule="evenodd" d="M27.9396 95H93.0604C94.1272 95 95 94.1145 95 93.0323V26.9677C95 25.8855 94.1272 25 93.0604 25H27.9396C26.8728 25 26 25.8855 26 26.9677V93.0323C26 94.1145 26.8728 95 27.9396 95ZM91 91H30V29H91V91Z" fill="url(#paint0_linear)"/>
<path d="M103.118 84H16.8823C14.747 84 13 82.2403 13 80.0896V39.9104C13 37.7597 14.747 36 16.8823 36H103.118C105.253 36 107 37.7597 107 39.9104V80.1141C107 82.2648 105.253 84 103.118 84Z" fill="url(#paint1_linear)"/>
<path d="M27.8671 71C26.8402 71 26 70.1189 26 69.042V51.958C26 50.8811 26.8402 50 27.8671 50H37.1329C38.1598 50 39 50.8811 39 51.958C39 53.035 38.1598 53.9161 37.1329 53.9161H29.7343V69.042C29.7343 70.1189 28.8941 71 27.8671 71Z" fill="white"/>
<path fill-rule="evenodd" clip-rule="evenodd" d="M43 69.042C43 70.1189 43.897 71 44.9934 71C46.0897 71 46.9867 70.1189 46.9867 69.042V62.9231H51.4219C55.0349 62.9231 58 60.035 58 56.4615C58 52.9126 55.0598 50 51.4219 50H44.9934C43.897 50 43 50.8811 43 51.958V69.042ZM51.4219 59.007H46.9867V53.9161H51.4219C52.8422 53.9161 54.0133 55.042 54.0133 56.4615C54.0133 57.8566 52.8671 59.007 51.4219 59.007Z" fill="white"/>
<path d="M34.1818 62H27.8182C26.8182 62 26 61.1 26 60C26 58.9 26.8182 58 27.8182 58H34.1818C35.1818 58 36 58.9 36 60C36 61.125 35.1818 62 34.1818 62Z" fill="white"/>
<path d="M74.1329 71H64.8671C63.8402 71 63 70.1189 63 69.042V51.958C63 50.8811 63.8402 50 64.8671 50H74.1329C75.1598 50 76 50.8811 76 51.958C76 53.035 75.1598 53.9161 74.1329 53.9161H66.7343V67.0839H74.1329C75.1598 67.0839 76 67.965 76 69.042C76 70.1189 75.1598 71 74.1329 71Z" fill="white"/>
<path d="M73.1818 62H66.8182C65.8182 62 65 61.1 65 60C65 58.9 65.8182 58 66.8182 58H73.1818C74.1818 58 75 58.9 75 60C75 61.125 74.1818 62 73.1818 62Z" fill="white"/>
<path d="M93.1329 71H83.8671C82.8402 71 82 70.1189 82 69.042V51.958C82 50.8811 82.8402 50 83.8671 50H93.1329C94.1598 50 95 50.8811 95 51.958C95 53.035 94.1598 53.9161 93.1329 53.9161H85.7343V67.0839H93.1329C94.1598 67.0839 95 67.965 95 69.042C95 70.1189 94.1598 71 93.1329 71Z" fill="white"/>
<path d="M91.1818 62H84.8182C83.8182 62 83 61.1 83 60C83 58.9 83.8182 58 84.8182 58H91.1818C92.1818 58 93 58.9 93 60C93 61.125 92.1818 62 91.1818 62Z" fill="white"/>
<path d="M56.3606 71.2273C55.746 71.2273 55.1541 70.9015 54.8127 70.343L50.442 63.0596C49.9185 62.1754 50.1916 61.0352 51.0339 60.5C51.8989 59.9648 53.0143 60.244 53.5379 61.105L57.9085 68.3884C58.4321 69.2726 58.1589 70.4129 57.3167 70.9481C57.0208 71.1342 56.6793 71.2273 56.3606 71.2273Z" fill="white"/>
<defs>
<linearGradient id="paint0_linear" x1="26" y1="25" x2="95.9928" y2="93.9929" gradientUnits="userSpaceOnUse">
<stop stop-color="#78A0FF"/>
<stop offset="1" stop-color="#5078E6"/>
</linearGradient>
<linearGradient id="paint1_linear" x1="13" y1="36" x2="51.8826" y2="112.145" gradientUnits="userSpaceOnUse">
<stop stop-color="#FFBE41"/>
<stop offset="1" stop-color="#FF9141"/>
</linearGradient>
</defs>
</svg>
