<svg width="120" height="120" viewBox="0 0 120 120" fill="none" xmlns="http://www.w3.org/2000/svg">
<path fill-rule="evenodd" clip-rule="evenodd" d="M33.8696 95H87.1533C88.1816 95 89.0229 94.1505 88.9995 93.1122V35.6301C88.9995 35.111 88.8126 34.639 88.462 34.2851L75.8422 21.5427C75.4916 21.1888 75.0009 21 74.5101 21H33.8696C32.8413 21 32 21.8495 32 22.8878V93.1122C32 94.1505 32.8413 95 33.8696 95ZM85 91H36V25H73.5998L85 36.5547V91Z" fill="url(#paint0_linear)"/>
<path d="M29 28V98H82V40.7016L69.4419 28H29Z" fill="url(#paint1_linear)"/>
<path d="M36.8732 72C36.2623 72 35.6515 71.6953 35.2991 71.1327C34.7353 70.2653 34.9937 69.0932 35.8629 68.5306L46.0824 61.92C46.6463 61.5684 47.3276 61.5215 47.9384 61.8028L57.0537 66.2567L68.8473 55.4969C69.6225 54.7937 70.7972 54.8405 71.502 55.6141C72.2068 56.3877 72.1598 57.5598 71.3845 58.2631L58.6513 69.8668C58.0874 70.3825 57.2417 70.4997 56.5604 70.1715L47.2571 65.6238L37.9303 71.6484C37.5779 71.9062 37.2255 72 36.8732 72Z" fill="white"/>
<path d="M69.0779 60.4095L71.4655 62.7447C72.0039 63.2585 72.8934 62.9549 72.987 62.2076L73.9936 54.0108C74.0638 53.427 73.5488 52.9366 72.9636 53.0067L64.7709 54.1743C64.0219 54.2911 63.741 55.1785 64.2793 55.7156L66.386 57.7706" fill="white"/>
<path fill-rule="evenodd" clip-rule="evenodd" d="M37 44.4999C37 49.1911 40.8087 52.9999 45.5 52.9999C50.1913 52.9999 54 49.1911 54 44.4999C54 39.8086 50.1913 35.9999 45.5 35.9999C40.8087 35.9999 37 39.8086 37 44.4999ZM40.7158 44.4999C40.7158 41.8523 42.8524 39.7157 45.5 39.7157C48.1475 39.7157 50.2841 41.8523 50.2841 44.4999C50.2841 47.1474 48.1475 49.284 45.5 49.284C42.8524 49.284 40.7158 47.1474 40.7158 44.4999Z" fill="white"/>
<path d="M61.8713 91C61.4049 91 60.9152 90.8134 60.5422 90.4634C59.8193 89.7402 59.8193 88.5505 60.5422 87.8273L69.8229 78.5424C70.5457 77.8192 71.735 77.8192 72.4578 78.5424C73.1807 79.2656 73.1807 80.4554 72.4578 81.1786L63.1771 90.4634C62.8274 90.8367 62.361 91 61.8713 91Z" fill="white"/>
<path d="M71.152 91C70.6856 91 70.196 90.8134 69.8229 90.4634L60.5422 81.1786C59.8193 80.4554 59.8193 79.2656 60.5422 78.5424C61.265 77.8192 62.4543 77.8192 63.1771 78.5424L72.4578 87.8273C73.1807 88.5505 73.1807 89.7402 72.4578 90.4634C72.1081 90.8367 71.6184 91 71.152 91Z" fill="white"/>
<defs>
<linearGradient id="paint0_linear" x1="32" y1="21" x2="103.549" y2="76.112" gradientUnits="userSpaceOnUse">
<stop stop-color="#78A0FF"/>
<stop offset="1" stop-color="#5078E6"/>
</linearGradient>
<linearGradient id="paint1_linear" x1="29" y1="28" x2="96.3758" y2="79.0131" gradientUnits="userSpaceOnUse">
<stop stop-color="#FFBE41"/>
<stop offset="1" stop-color="#FF9141"/>
</linearGradient>
</defs>
</svg>
