<svg width="120" height="120" viewBox="0 0 120 120" fill="none" xmlns="http://www.w3.org/2000/svg">
<path d="M97 63.5405V55.4595C97 53.6216 95.7013 52.0541 93.9156 51.7027L89.1266 50.7568C87.855 50.5135 86.7998 49.6216 86.3128 48.4324C86.3128 48.4324 86.3128 48.4054 86.2857 48.4054C85.7987 47.2162 85.9069 45.8378 86.6104 44.7568L89.316 40.7027C90.3442 39.1892 90.1277 37.1622 88.829 35.8649L83.1201 30.1622C81.8214 28.8649 79.7922 28.6757 78.2771 29.6757L74.2186 32.3784C73.1364 33.1081 71.7836 33.2162 70.566 32.7027C70.566 32.7027 70.539 32.7027 70.539 32.6757C69.3485 32.1892 68.4556 31.1351 68.2121 29.8649L67.2652 25.0811C66.9134 23.2973 65.3442 22 63.5043 22H55.4957C53.6558 22 52.0866 23.2973 51.7348 25.0811L50.7879 29.8649C50.5444 31.1351 49.6515 32.1892 48.461 32.6757C48.461 32.6757 48.434 32.6757 48.434 32.7027C47.2435 33.1892 45.8636 33.0811 44.7814 32.3784L40.7229 29.6757C39.2078 28.6486 37.1786 28.8649 35.8799 30.1622L30.171 35.8649C28.8723 37.1622 28.6829 39.1892 29.684 40.7027L32.3896 44.7568C33.1201 45.8378 33.2284 47.1892 32.7143 48.4054C32.7143 48.4054 32.7143 48.4324 32.6872 48.4324C32.2002 49.6216 31.145 50.5135 29.8734 50.7568L25.0844 51.7027C23.2987 52.0541 22 53.6216 22 55.4595V63.5405C22 65.3784 23.2987 66.9459 25.0844 67.2973L29.8734 68.2432C31.145 68.4865 32.2002 69.3784 32.6872 70.5676C32.6872 70.5676 32.6872 70.5946 32.7143 70.5946C33.2013 71.7838 33.0931 73.1622 32.3896 74.2432L29.684 78.2973C28.6558 79.8108 28.8723 81.8378 30.171 83.1351L35.8799 88.8378C37.1786 90.1351 39.2078 90.3243 40.7229 89.3243L44.7814 86.6216C45.8636 85.8919 47.2164 85.7838 48.434 86.2973C48.434 86.2973 48.461 86.2973 48.461 86.3243C49.6515 86.8108 50.5444 87.8649 50.7879 89.1351L51.7348 93.9189C52.0866 95.7027 53.6558 97 55.4957 97H63.5855C65.4253 97 66.9946 95.7027 67.3463 93.9189L68.2933 89.1351C68.5368 87.8649 69.4297 86.8108 70.6201 86.3243C70.6201 86.3243 70.6472 86.3243 70.6472 86.2973C71.8377 85.8108 73.2175 85.9189 74.2998 86.6216L78.3582 89.3243C79.8734 90.3513 81.9026 90.1351 83.2013 88.8378L88.9102 83.1351C90.2089 81.8378 90.3983 79.8108 89.3972 78.2973L86.6916 74.2432C85.961 73.1622 85.8528 71.8108 86.3669 70.5946C86.3669 70.5946 86.3669 70.5676 86.3939 70.5676C86.881 69.3784 87.9361 68.4865 89.2078 68.2432L93.9967 67.2973C95.7283 66.9459 97 65.3784 97 63.5405Z" fill="url(#paint0_linear)"/>
<path d="M59.5 81C71.3741 81 81 71.3741 81 59.5C81 47.6259 71.3741 38 59.5 38C47.6259 38 38 47.6259 38 59.5C38 71.3741 47.6259 81 59.5 81Z" fill="white"/>
<path fill-rule="evenodd" clip-rule="evenodd" d="M54.057 69.7067C54.3741 69.8933 54.7441 69.9999 55.114 69.9999C55.4576 69.9999 55.8275 69.8933 56.1711 69.7334L70.9166 61.3655C71.5772 60.9924 72 60.2729 72 59.5001C72 58.7272 71.5772 58.0077 70.9166 57.6346L56.1711 49.2667C55.5104 48.8936 54.7177 48.9203 54.057 49.2934C53.3964 49.6665 53 50.386 53 51.1322V67.8679C53 68.6141 53.3964 69.3336 54.057 69.7067ZM57.2281 64.217V54.7565L65.5522 59.5L57.2281 64.217Z" fill="url(#paint1_linear)"/>
<defs>
<linearGradient id="paint0_linear" x1="22" y1="22" x2="97" y2="97" gradientUnits="userSpaceOnUse">
<stop stop-color="#FFBE41"/>
<stop offset="1" stop-color="#FF9141"/>
</linearGradient>
<linearGradient id="paint1_linear" x1="53" y1="48.9999" x2="73.8953" y2="67.9051" gradientUnits="userSpaceOnUse">
<stop stop-color="#78A0FF"/>
<stop offset="1" stop-color="#5078E6"/>
</linearGradient>
</defs>
</svg>
