<svg width="120" height="120" viewBox="0 0 120 120" fill="none" xmlns="http://www.w3.org/2000/svg">
<path d="M60.4478 89.7952C76.6558 89.7952 89.795 76.656 89.795 60.448C89.795 44.24 76.6558 31.1008 60.4478 31.1008C44.2398 31.1008 31.1006 44.24 31.1006 60.448C31.1006 76.656 44.2398 89.7952 60.4478 89.7952Z" fill="url(#paint0_linear)"/>
<path d="M60.4482 60.448L85.533 45.184C80.3778 36.7456 71.0754 31.1008 60.4482 31.1008V60.448Z" fill="url(#paint1_linear)"/>
<path d="M60.448 98.896C39.2512 98.896 22 81.6448 22 60.448C22 39.2512 39.2512 22 60.448 22C81.6448 22 98.896 39.2512 98.896 60.448C98.896 81.6448 81.6448 98.896 60.448 98.896ZM60.448 26.608C41.7856 26.608 26.608 41.7856 26.608 60.448C26.608 79.1104 41.7856 94.288 60.448 94.288C79.1104 94.288 94.288 79.1104 94.288 60.448C94.288 41.7856 79.1104 26.608 60.448 26.608Z" fill="url(#paint2_linear)"/>
<path d="M76.0001 50.8576C75.3089 49.792 73.8977 49.4464 72.8321 50.1376L62.7809 56.4736V35.7664C62.7809 34.4992 61.7441 33.4624 60.4769 33.4624C59.2097 33.4624 58.1729 34.4992 58.1729 35.7664V60.448C58.1729 61.7152 59.2097 62.752 60.4769 62.752C60.8801 62.752 61.2833 62.6368 61.6001 62.464C61.8881 62.4064 62.1472 62.32 62.4064 62.1472L75.2801 54.0544C76.3457 53.3632 76.6625 51.952 76.0001 50.8576Z" fill="white"/>
<defs>
<linearGradient id="paint0_linear" x1="31.1006" y1="31.1008" x2="89.795" y2="89.7952" gradientUnits="userSpaceOnUse">
<stop stop-color="#FFBE41"/>
<stop offset="1" stop-color="#FF9141"/>
</linearGradient>
<linearGradient id="paint1_linear" x1="60.4482" y1="31.1008" x2="89.4377" y2="55.8799" gradientUnits="userSpaceOnUse">
<stop stop-color="#78A0FF"/>
<stop offset="1" stop-color="#5078E6"/>
</linearGradient>
<linearGradient id="paint2_linear" x1="22" y1="22" x2="98.896" y2="98.896" gradientUnits="userSpaceOnUse">
<stop stop-color="#78A0FF"/>
<stop offset="1" stop-color="#5078E6"/>
</linearGradient>
</defs>
</svg>
