<svg width="120" height="120" viewBox="0 0 120 120" fill="none" xmlns="http://www.w3.org/2000/svg">
<path d="M84.9765 30.2251C69.3985 21.925 50.5545 21.925 35 30.2251V41.452C35 61.4822 45.1974 78.7684 60 87C74.8026 78.7913 85 61.4822 85 41.452L84.9765 30.2251Z" fill="url(#paint0_linear)"/>
<path fill-rule="evenodd" clip-rule="evenodd" d="M56.3852 92.9821L60 95L63.6148 92.9594C72.0956 88.2206 79.2093 80.9651 84.2375 71.9411C89.3121 62.8491 92 52.3059 92 41.5134V39.9036C92 38.4751 91.2585 37.1827 90.0304 36.4345C81.0167 30.9249 70.6358 28 60 28C49.3642 28 38.9833 30.9249 29.9696 36.4572C28.7415 37.2054 28 38.5205 28 39.9262V41.536C28 52.3286 30.6879 62.8491 35.7625 71.9638C40.7907 80.9878 47.9276 88.2433 56.3852 92.9821ZM31.9391 39.5181C40.3736 34.3486 50.0593 31.6277 60 31.6277C69.9406 31.6277 79.6263 34.3712 88.0608 39.5181C88.1766 39.6088 88.2693 39.7448 88.2693 39.9036V41.5134C88.2693 51.7164 85.7436 61.6474 80.9703 70.2179C76.2664 78.6298 69.6394 85.4091 61.761 89.8078L60 90.8054L58.2389 89.8078C50.3606 85.4091 43.7103 78.6525 39.0296 70.2179C34.2563 61.6474 31.7306 51.7164 31.7306 41.5134V39.9036C31.7306 39.7448 31.8001 39.6088 31.9391 39.5181Z" fill="url(#paint1_linear)"/>
<path fill-rule="evenodd" clip-rule="evenodd" d="M70.3365 49.1988C70.0074 45.9168 67.1391 44.8305 63.5185 44.53V40H60.6973V44.4145C60.3329 44.4145 59.9567 44.4203 59.5806 44.426L59.5805 44.426L59.5804 44.426C59.2043 44.4318 58.8281 44.4376 58.4638 44.4376V40H55.666V44.53C55.0547 44.5532 54.467 44.5532 53.8792 44.5532V44.53H50V47.4884C50 47.4884 52.0689 47.4422 52.0454 47.4884C53.1739 47.4884 53.5501 48.1356 53.6676 48.6903V53.8675C53.7382 53.8675 53.8557 53.8675 53.9733 53.8906H53.6676V61.1248C53.6206 61.4715 53.409 62.0493 52.6097 62.0493C52.6567 62.0724 50.5643 62.0493 50.5643 62.0493L50 65.3544H53.6676C54.0115 65.3544 54.3494 65.3603 54.6844 65.3661L54.6847 65.3661C55.0137 65.3718 55.3399 65.3775 55.666 65.3775V69.9769H58.4638V65.4468C59.2395 65.47 59.9918 65.47 60.6971 65.47H60.6973V70H63.5185V65.4237C68.2441 65.1464 71.5591 63.9908 71.9588 59.6225C72.2879 56.1094 70.6187 54.5378 67.9385 53.9137C69.5607 53.0354 70.5717 51.6025 70.3365 49.1988ZM66.4103 59.0216C66.4103 62.1734 61.3404 62.1071 59.0538 62.0773C58.8588 62.0747 58.684 62.0724 58.5343 62.0724V55.9939C58.7043 55.9918 58.9067 55.9857 59.1343 55.9788L59.1344 55.9788C61.4573 55.9086 66.4103 55.759 66.4103 59.0216ZM58.9991 53.1797C60.9127 53.2116 65.0937 53.2815 65.0937 50.4237C65.0937 47.5449 61.1484 47.6115 59.1687 47.645C58.9233 47.6491 58.708 47.6528 58.5343 47.6502V53.1741C58.6668 53.1741 58.8234 53.1767 58.9991 53.1797Z" fill="white"/>
<defs>
<linearGradient id="paint0_linear" x1="35" y1="24" x2="96.3542" y2="72.6938" gradientUnits="userSpaceOnUse">
<stop stop-color="#FFBE41"/>
<stop offset="1" stop-color="#FF9141"/>
</linearGradient>
<linearGradient id="paint1_linear" x1="28" y1="28" x2="94.9298" y2="91.9329" gradientUnits="userSpaceOnUse">
<stop stop-color="#78A0FF"/>
<stop offset="1" stop-color="#5078E6"/>
</linearGradient>
</defs>
</svg>
