<svg width="120" height="120" viewBox="0 0 120 120" fill="none" xmlns="http://www.w3.org/2000/svg">
<path fill-rule="evenodd" clip-rule="evenodd" d="M22.9518 55H97.0238C98.0973 55 98.9756 54.178 99 53.121V30.879C99 29.8455 98.1217 29 97.0482 29H22.9518C21.8783 29 21 29.8455 21 30.879V53.121C21 54.1545 21.8783 55 22.9518 55ZM95 51H25V33H95V51Z" fill="url(#paint0_linear)"/>
<rect x="36" y="33" width="49" height="57" fill="url(#paint1_linear)"/>
<rect x="66" y="34" width="11" height="49" fill="white"/>
<path d="M44 83C42.9 83 42 82.1613 42 81.1362V58.8638C42 57.8387 42.9 57 44 57C45.1 57 46 57.8387 46 58.8638V81.1362C46 82.1846 45.1 83 44 83Z" fill="white"/>
<path d="M53 83C51.9 83 51 82.1434 51 81.0964V45.9036C51 44.8566 51.9 44 53 44C54.1 44 55 44.8566 55 45.9036V81.0964C55 82.1672 54.1 83 53 83Z" fill="white"/>
<defs>
<linearGradient id="paint0_linear" x1="21" y1="29" x2="36.6" y2="75.8" gradientUnits="userSpaceOnUse">
<stop stop-color="#78A0FF"/>
<stop offset="1" stop-color="#5078E6"/>
</linearGradient>
<linearGradient id="paint1_linear" x1="36" y1="33" x2="92.3543" y2="81.445" gradientUnits="userSpaceOnUse">
<stop stop-color="#FFBE41"/>
<stop offset="1" stop-color="#FF9141"/>
</linearGradient>
</defs>
</svg>
