<svg width="120" height="120" viewBox="0 0 120 120" fill="none" xmlns="http://www.w3.org/2000/svg">
<mask id="mask0" mask-type="alpha" maskUnits="userSpaceOnUse" x="58" y="27" width="27" height="34">
<path fill-rule="evenodd" clip-rule="evenodd" d="M60.3076 27C59.1381 27 58.1899 27.9366 58.1899 29.0923V46.6104V46.6172V58.581C58.1899 59.7365 59.1381 60.6733 60.3076 60.6733C61.4773 60.6733 62.4255 59.7365 62.4255 58.581V48.669L82.9124 48.2968C83.7431 48.2816 84.4882 47.7879 84.8175 47.0341C85.1468 46.2804 84.9996 45.4058 84.4408 44.798L77.8684 37.6485L84.4408 30.4989C85.0044 29.8858 85.1489 29.0023 84.8098 28.2454C84.4707 27.488 83.7116 27 82.8732 27H60.3076ZM62.4255 31.1846H78.0895L73.4402 36.2414C72.7067 37.0394 72.7067 38.2574 73.4402 39.0553L78.1673 44.1974L62.4255 44.4835V31.1846Z" fill="white"/>
</mask>
<g mask="url(#mask0)">
<path fill-rule="evenodd" clip-rule="evenodd" d="M60.3076 27C59.1381 27 58.1899 27.9366 58.1899 29.0923V46.6104V46.6172V58.581C58.1899 59.7365 59.1381 60.6733 60.3076 60.6733C61.4773 60.6733 62.4255 59.7365 62.4255 58.581V48.669L82.9124 48.2968C83.7431 48.2816 84.4882 47.7879 84.8175 47.0341C85.1468 46.2804 84.9996 45.4058 84.4408 44.798L77.8684 37.6485L84.4408 30.4989C85.0044 29.8858 85.1489 29.0023 84.8098 28.2454C84.4707 27.488 83.7116 27 82.8732 27H60.3076ZM62.4255 31.1846H78.0895L73.4402 36.2414C72.7067 37.0394 72.7067 38.2574 73.4402 39.0553L78.1673 44.1974L62.4255 44.4835V31.1846Z" fill="url(#paint0_linear)"/>
</g>
<mask id="mask1" mask-type="alpha" maskUnits="userSpaceOnUse" x="25" y="56" width="71" height="38">
<path fill-rule="evenodd" clip-rule="evenodd" d="M57.9021 57.8167L26.1927 87.1294C25.4223 87.8412 25.0072 88.8114 25 89.8101V89.8629C25.0032 90.3096 25.0882 90.7613 25.2594 91.1973C25.821 92.6258 27.1774 93.5487 28.7156 93.5487H92.135C93.6729 93.5487 95.0293 92.6258 95.591 91.1973C96.1518 89.7686 95.7859 88.1721 94.6579 87.1294L62.9484 57.8167C62.2408 57.1629 61.3329 56.8357 60.425 56.8357C59.5174 56.8357 58.6095 57.1626 57.9021 57.8167ZM60.425 61.2493L90.7915 89.3201H30.059L60.425 61.2493Z" fill="white"/>
</mask>
<g mask="url(#mask1)">
<path fill-rule="evenodd" clip-rule="evenodd" d="M57.9021 57.8167L26.1927 87.1294C25.4223 87.8412 25.0072 88.8114 25 89.8101V89.8629C25.0032 90.3096 25.0882 90.7613 25.2594 91.1973C25.821 92.6258 27.1774 93.5487 28.7156 93.5487H92.135C93.6729 93.5487 95.0293 92.6258 95.591 91.1973C96.1518 89.7686 95.7859 88.1721 94.6579 87.1294L62.9484 57.8167C62.2408 57.1629 61.3329 56.8357 60.425 56.8357C59.5174 56.8357 58.6095 57.1626 57.9021 57.8167ZM60.425 61.2493L90.7915 89.3201H30.059L60.425 61.2493Z" fill="url(#paint1_linear)"/>
</g>
<mask id="mask2" mask-type="alpha" maskUnits="userSpaceOnUse" x="28" y="74" width="66" height="19">
<path fill-rule="evenodd" clip-rule="evenodd" d="M54.9009 80.145L42.0938 76.4292L38.2742 78.7735L28.0273 90.3892L78.7763 92.5841L93.9553 89.8376L76.8787 74.9559L54.9009 80.145Z" fill="white"/>
</mask>
<g mask="url(#mask2)">
<path fill-rule="evenodd" clip-rule="evenodd" d="M54.9009 80.145L42.0938 76.4292L38.2742 78.7735L28.0273 90.3892L78.7763 92.5841L93.9553 89.8376L76.8787 74.9559L54.9009 80.145Z" fill="url(#paint2_linear)"/>
</g>
<defs>
<linearGradient id="paint0_linear" x1="58.1901" y1="60.6732" x2="84.9911" y2="60.6732" gradientUnits="userSpaceOnUse">
<stop stop-color="#5B8AFB"/>
<stop offset="1" stop-color="#83AFFF"/>
</linearGradient>
<linearGradient id="paint1_linear" x1="25" y1="56.8357" x2="54.994" y2="114.719" gradientUnits="userSpaceOnUse">
<stop stop-color="#FFBE41"/>
<stop offset="1" stop-color="#FF9141"/>
</linearGradient>
<linearGradient id="paint2_linear" x1="28.0273" y1="74.9559" x2="36.8254" y2="107.86" gradientUnits="userSpaceOnUse">
<stop stop-color="#FFBE41"/>
<stop offset="1" stop-color="#FF9141"/>
</linearGradient>
</defs>
</svg>
