<svg width="120" height="120" viewBox="0 0 120 120" fill="none" xmlns="http://www.w3.org/2000/svg">
<path fill-rule="evenodd" clip-rule="evenodd" d="M37.0478 35C37.6738 27.1813 44.3691 21 52.5 21C60.6309 21 67.3262 27.1813 67.9522 35H86.1871C87.1968 35 88 35.8372 88 36.8372V37.9926C88 38.6208 87.7049 39.2124 87.2031 39.5903L59.9551 60.1091C55.5981 63.1068 49.7427 63.1068 45.3857 60.1091L17.7773 38.7815C17.2871 38.4028 17 37.8183 17 37.1988V36.8372C17 35.814 17.8032 35 18.8129 35H37.0478ZM64.2632 35C63.6497 29.1665 58.6088 24.6026 52.5 24.6026C46.3912 24.6026 41.3503 29.1665 40.7368 35H64.2632Z" fill="url(#paint0_linear)"/>
<path d="M17 46.879C17 45.218 18.9075 44.2809 20.2222 45.2959L43.1193 62.9742C43.1341 62.9855 43.1502 62.995 43.1663 63.0045C43.1879 63.0172 43.2094 63.0299 43.2276 63.0471C43.236 63.0551 43.2467 63.0644 43.2562 63.071C46.0656 65.0095 49.3795 65.9902 52.6704 65.9902C55.9535 65.9902 59.2595 65.0142 62.0646 63.0848C62.0718 63.0799 62.0787 63.0747 62.0857 63.0696C62.101 63.0581 62.1164 63.0467 62.1336 63.0382C62.1451 63.0325 62.1566 63.0268 62.1681 63.0153L84.7975 45.9885C86.1156 44.9968 88 45.9371 88 47.5867V84.1628C88 85.1861 87.1968 86 86.1871 86H18.8129C17.8032 86 17 85.1861 17 84.1628V46.879Z" fill="url(#paint1_linear)"/>
<path d="M87 98C98.0457 98 107 88.8218 107 77.5C107 66.1782 98.0457 57 87 57C75.9543 57 67 66.1782 67 77.5C67 88.8218 75.9543 98 87 98Z" fill="url(#paint2_linear)"/>
<path d="M87 87C85.9 87 85 86.1671 85 85.1491V70.8509C85 69.8329 85.9 69 87 69C88.1 69 89 69.8329 89 70.8509V85.1491C89 86.1671 88.1 87 87 87Z" fill="white"/>
<path d="M94.1491 80H79.8509C78.8329 80 78 79.1 78 78C78 76.9 78.8329 76 79.8509 76H94.1491C95.1671 76 96 76.9 96 78C96 79.1 95.1671 80 94.1491 80Z" fill="white"/>
<defs>
<linearGradient id="paint0_linear" x1="17" y1="21" x2="81.7475" y2="91.7242" gradientUnits="userSpaceOnUse">
<stop stop-color="#FFBE41"/>
<stop offset="1" stop-color="#FF9141"/>
</linearGradient>
<linearGradient id="paint1_linear" x1="17" y1="21" x2="81.7475" y2="91.7242" gradientUnits="userSpaceOnUse">
<stop stop-color="#FFBE41"/>
<stop offset="1" stop-color="#FF9141"/>
</linearGradient>
<linearGradient id="paint2_linear" x1="67" y1="57" x2="107.988" y2="96.9878" gradientUnits="userSpaceOnUse">
<stop stop-color="#78A0FF"/>
<stop offset="1" stop-color="#5078E6"/>
</linearGradient>
</defs>
</svg>
