<svg width="120" height="120" viewBox="0 0 120 120" fill="none" xmlns="http://www.w3.org/2000/svg">
<mask id="mask0" mask-type="alpha" maskUnits="userSpaceOnUse" x="35" y="34" width="50" height="51">
<path fill-rule="evenodd" clip-rule="evenodd" d="M35 59.9976C35 73.8047 46.1931 84.9976 60 84.9976C73.8074 84.9976 85 73.8047 85 59.9976C85 46.1902 73.8074 34.9976 60 34.9976C46.1931 34.9976 35 46.1902 35 59.9976Z" fill="white"/>
</mask>
<g mask="url(#mask0)">
<path fill-rule="evenodd" clip-rule="evenodd" d="M35 59.9976C35 73.8047 46.1931 84.9976 60 84.9976C73.8074 84.9976 85 73.8047 85 59.9976C85 46.1902 73.8074 34.9976 60 34.9976C46.1931 34.9976 35 46.1902 35 59.9976Z" fill="url(#paint0_linear)"/>
</g>
<mask id="mask1" mask-type="alpha" maskUnits="userSpaceOnUse" x="27" y="27" width="66" height="66">
<path fill-rule="evenodd" clip-rule="evenodd" d="M27 59.999C27 78.1544 41.7383 92.9328 59.8789 92.9975H60.1189C78.2598 92.9328 92.9978 78.1544 92.9978 59.999C92.9978 41.8033 78.1945 27 59.9988 27C41.8033 27 27 41.8033 27 59.999ZM30.9551 59.999C30.9551 43.984 43.9843 30.9553 59.9988 30.9553C76.0138 30.9553 89.0427 43.984 89.0427 59.999C89.0427 76.0135 76.0138 89.0427 59.9988 89.0427C43.9843 89.0427 30.9551 76.0135 30.9551 59.999Z" fill="white"/>
</mask>
<g mask="url(#mask1)">
<path fill-rule="evenodd" clip-rule="evenodd" d="M27 59.999C27 78.1544 41.7383 92.9328 59.8789 92.9975H60.1189C78.2598 92.9328 92.9978 78.1544 92.9978 59.999C92.9978 41.8033 78.1945 27 59.9988 27C41.8033 27 27 41.8033 27 59.999ZM30.9551 59.999C30.9551 43.984 43.9843 30.9553 59.9988 30.9553C76.0138 30.9553 89.0427 43.984 89.0427 59.999C89.0427 76.0135 76.0138 89.0427 59.9988 89.0427C43.9843 89.0427 30.9551 76.0135 30.9551 59.999Z" fill="url(#paint1_linear)"/>
</g>
<path fill-rule="evenodd" clip-rule="evenodd" d="M64.253 68.8877C64.2436 68.8909 63.3558 69.1778 62.5854 69.1778C62.1603 69.1778 61.9885 69.0919 61.9339 69.0545C61.6645 68.8723 61.1636 68.531 62.0206 66.8726L63.6254 63.7651C64.5772 61.9198 64.7185 60.1354 64.0188 58.7389C63.4475 57.5968 62.3512 56.8129 60.9372 56.5322C60.4285 56.431 59.9118 56.3812 59.3999 56.3812C56.4321 56.3812 54.4342 58.0641 54.3506 58.1359C54.0633 58.3822 53.996 58.7904 54.1872 59.1114C54.3796 59.4325 54.776 59.5792 55.142 59.4575C55.15 59.4545 56.039 59.1661 56.8096 59.1661C57.2315 59.1661 57.4018 59.2518 57.4545 59.2877C57.726 59.4716 58.2281 59.8174 57.373 61.4726L55.7678 64.5817C54.8148 66.4285 54.6751 68.2129 55.3748 69.6077C55.946 70.75 57.0406 71.5339 58.4578 71.8144C58.9615 71.9129 59.4784 71.9659 59.9888 71.9659C62.9579 71.9659 64.9578 70.2827 65.0412 70.2109C65.3284 69.9661 65.3957 69.5562 65.2048 69.2352C65.0124 68.9156 64.6124 68.7723 64.253 68.8877Z" fill="white"/>
<path fill-rule="evenodd" clip-rule="evenodd" d="M62.9067 47.0317C65.1226 47.0317 66.9188 48.7763 66.9188 50.9278C66.9188 53.0798 65.1226 54.8241 62.9067 54.8241C60.6908 54.8241 58.8945 53.0798 58.8945 50.9278C58.8945 48.7763 60.6908 47.0317 62.9067 47.0317Z" fill="white"/>
<defs>
<linearGradient id="paint0_linear" x1="35" y1="34.9976" x2="85" y2="84.9976" gradientUnits="userSpaceOnUse">
<stop stop-color="#FFBE41"/>
<stop offset="1" stop-color="#FF9141"/>
</linearGradient>
<linearGradient id="paint1_linear" x1="27" y1="27" x2="92.9975" y2="92.9978" gradientUnits="userSpaceOnUse">
<stop stop-color="#78A0FF"/>
<stop offset="1" stop-color="#5078E6"/>
</linearGradient>
</defs>
</svg>
