<svg width="120" height="120" viewBox="0 0 120 120" fill="none" xmlns="http://www.w3.org/2000/svg">
<path d="M55.2346 20.1523C55.982 19.8427 56.8422 20.0138 57.4142 20.5858L73.4142 36.5858C73.7893 36.9609 74 37.4696 74 38.0001C74 38.5305 73.7893 39.0392 73.4142 39.4143L57.4142 55.4143C56.8422 55.9863 55.982 56.1574 55.2346 55.8478C54.4873 55.5383 54 54.809 54 54.0001V48.065C45.4125 48.6324 38.8988 50.0001 34.1106 62.051C34.0388 62.2318 33.9694 62.4138 33.9084 62.5984C33.6464 63.4339 32.8713 64.002 31.9956 64.0001C31.1192 63.9981 30.3461 63.4259 30.0884 62.5882C29.9697 62.201 29.8619 61.8102 29.7565 61.4192C29.562 60.6981 29.3036 59.6805 29.0452 58.4852C28.5333 56.1178 28 52.958 28 50.0001C28 44.454 30.2261 38.898 34.9268 34.7504C39.2822 30.9073 45.6279 28.3861 54 28.0407V22.0001C54 21.1911 54.4873 20.4619 55.2346 20.1523Z" fill="url(#paint0_linear)"/>
<path fill-rule="evenodd" clip-rule="evenodd" d="M64.7654 99.8478C64.018 100.157 63.1578 99.9862 62.5858 99.4142L46.5858 83.4142C46.2107 83.0391 46 82.5304 46 82C46 81.4696 46.2107 80.9609 46.5858 80.5858L62.5858 64.5858C63.1578 64.0138 64.018 63.8427 64.7654 64.1522C65.5127 64.4618 66 65.1911 66 66V71.935C73.693 71.4267 78.5961 68.0191 81.643 64.657C83.312 62.8153 84.4362 60.9706 85.1405 59.5908C85.4918 58.9025 85.736 58.3351 85.8894 57.949C85.9612 57.7683 86.0306 57.5863 86.0916 57.4016C86.3536 56.5661 87.1286 55.9981 88.0044 56C88.8808 56.0019 89.6538 56.5742 89.9116 57.4118C90.0303 57.7991 90.1381 58.1898 90.2435 58.5808C90.438 59.3019 90.6964 60.3196 90.9548 61.5148C91.4667 63.8822 92 67.0421 92 70C92 75.546 89.7739 81.102 85.0732 85.2497C80.7177 89.0927 74.3721 91.614 66 91.9593V98C66 98.8089 65.5127 99.5382 64.7654 99.8478ZM87.3335 63.786C86.6108 64.9069 85.7113 66.1245 84.607 67.343C80.66 71.6983 74.1445 76 64 76C63.4696 76 62.9609 75.7893 62.5858 75.4142C62.2107 75.0391 62 74.5304 62 74V70.8284L50.8284 82L62 93.1716V90C62 88.8954 62.8954 88 64 88C72.6319 88 78.6226 85.6069 82.4267 82.2503C86.226 78.898 88 74.454 88 70C88 67.9693 87.7021 65.7483 87.3335 63.786Z" fill="url(#paint1_linear)"/>
<defs>
<linearGradient id="paint0_linear" x1="28" y1="20" x2="71.9566" y2="65.9546" gradientUnits="userSpaceOnUse">
<stop stop-color="#FFBE41"/>
<stop offset="1" stop-color="#FF9141"/>
</linearGradient>
<linearGradient id="paint1_linear" x1="46" y1="56" x2="89.9566" y2="101.955" gradientUnits="userSpaceOnUse">
<stop stop-color="#78A0FF"/>
<stop offset="1" stop-color="#5078E6"/>
</linearGradient>
</defs>
</svg>
