<svg width="120" height="120" viewBox="0 0 120 120" fill="none" xmlns="http://www.w3.org/2000/svg">
<rect x="16" y="32" width="72" height="48" rx="4" fill="url(#paint0_linear)"/>
<path d="M45 80H59L60 87H44L45 80Z" fill="url(#paint1_linear)"/>
<rect x="80" y="54" width="22" height="36" rx="4" fill="white" stroke="url(#paint2_linear)" stroke-width="4" stroke-linecap="round" stroke-linejoin="round"/>
<circle cx="25" cy="41" r="1" fill="white"/>
<circle cx="29" cy="41" r="1" fill="white"/>
<circle cx="33" cy="41" r="1" fill="white"/>
<path d="M34 90C34 87.7909 35.7909 86 38 86H66C68.2091 86 70 87.7909 70 90H34Z" fill="url(#paint3_linear)"/>
<defs>
<linearGradient id="paint0_linear" x1="16" y1="80" x2="60.3077" y2="13.5385" gradientUnits="userSpaceOnUse">
<stop stop-color="#FFC75D"/>
<stop offset="1" stop-color="#FFA363"/>
</linearGradient>
<linearGradient id="paint1_linear" x1="60.5238" y1="88.625" x2="52.2955" y2="93.7833" gradientUnits="userSpaceOnUse">
<stop stop-color="#658BF5"/>
<stop offset="1" stop-color="#8DB0FF"/>
</linearGradient>
<linearGradient id="paint2_linear" x1="100.589" y1="95.4286" x2="87.9942" y2="97.3717" gradientUnits="userSpaceOnUse">
<stop stop-color="#658BF5"/>
<stop offset="1" stop-color="#8DB0FF"/>
</linearGradient>
<linearGradient id="paint3_linear" x1="34" y1="90" x2="34.878" y2="82.0976" gradientUnits="userSpaceOnUse">
<stop stop-color="#FFC75D"/>
<stop offset="1" stop-color="#FFA363"/>
</linearGradient>
</defs>
</svg>
