<svg width="120" height="120" viewBox="0 0 120 120" fill="none" xmlns="http://www.w3.org/2000/svg">
    <circle cx="60" cy="60" r="29" fill="#FA7364"/>
    <path fill-rule="evenodd" clip-rule="evenodd" d="M60 27C41.7746 27 27 41.7746 27 60C27 78.2254 41.7746 93 60 93C78.2254 93 93 78.2254 93 60C93 41.7746 78.2254 27 60 27ZM23 60C23 39.5655 39.5655 23 60 23C80.4345 23 97 39.5655 97 60C97 80.4345 80.4345 97 60 97C39.5655 97 23 80.4345 23 60Z" fill="url(#paint0_linear)"/>
    <path d="M70.5858 46.5858C71.3668 45.8047 72.6332 45.8047 73.4142 46.5858C74.1953 47.3668 74.1953 48.6332 73.4142 49.4142L62.8284 60L73.4142 70.5858C74.1953 71.3668 74.1953 72.6332 73.4142 73.4142C72.6332 74.1953 71.3668 74.1953 70.5858 73.4142L60 62.8284L49.4142 73.4142C48.6332 74.1953 47.3668 74.1953 46.5858 73.4142C45.8047 72.6332 45.8047 71.3668 46.5858 70.5858L57.1716 60L46.5858 49.4142C45.8047 48.6332 45.8047 47.3668 46.5858 46.5858C47.3668 45.8047 48.6332 45.8047 49.4142 46.5858L60 57.1716L70.5858 46.5858Z" fill="white"/>
    <defs>
        <linearGradient id="paint0_linear" x1="23" y1="23" x2="97" y2="97" gradientUnits="userSpaceOnUse">
            <stop stop-color="#78A0FF"/>
            <stop offset="1" stop-color="#5078E6"/>
        </linearGradient>
    </defs>
</svg>
