<svg width="24" height="24" viewBox="0 0 24 24" fill="none" xmlns="http://www.w3.org/2000/svg">
<path fill-rule="evenodd" clip-rule="evenodd" d="M3 5.99973C3 5.44744 3.44772 4.99973 4 4.99973H20C20.5523 4.99973 21 5.44744 21 5.99973C21 6.55201 20.5523 6.99973 20 6.99973H4C3.44772 6.99973 3 6.55201 3 5.99973ZM3 11.9997C3 11.4474 3.44772 10.9997 4 10.9997H20C20.5523 10.9997 21 11.4474 21 11.9997C21 12.552 20.5523 12.9997 20 12.9997H4C3.44772 12.9997 3 12.552 3 11.9997ZM7 17.9997C7 17.4474 7.44772 16.9997 8 16.9997H16C16.5523 16.9997 17 17.4474 17 17.9997C17 18.552 16.5523 18.9997 16 18.9997H8C7.44772 18.9997 7 18.552 7 17.9997Z" fill="#7B808C"/>
</svg>
