<svg width="24" height="24" viewBox="0 0 24 24" fill="none" xmlns="http://www.w3.org/2000/svg">
<path fill-rule="evenodd" clip-rule="evenodd" d="M7.28318 7.29289C6.90561 7.68342 6.90561 8.31658 7.28318 8.70711L9.78318 11.2929C10.1607 11.6834 10.1607 12.3166 9.78318 12.7071L7.28318 15.2929C6.90561 15.6834 6.90561 16.3166 7.28318 16.7071C7.66074 17.0976 8.2729 17.0976 8.65047 16.7071L11.1505 14.1213C12.2832 12.9497 12.2832 11.0503 11.1505 9.87868L8.65047 7.29289C8.2729 6.90237 7.66074 6.90237 7.28318 7.29289Z" fill="#7B808C"/>
<path fill-rule="evenodd" clip-rule="evenodd" d="M13.2832 7.29289C12.9056 7.68342 12.9056 8.31658 13.2832 8.70711L15.7832 11.2929C16.1607 11.6834 16.1607 12.3166 15.7832 12.7071L13.2832 15.2929C12.9056 15.6834 12.9056 16.3166 13.2832 16.7071C13.6607 17.0976 14.2729 17.0976 14.6505 16.7071L17.1505 14.1213C18.2832 12.9497 18.2832 11.0503 17.1505 9.87868L14.6505 7.29289C14.2729 6.90237 13.6607 6.90237 13.2832 7.29289Z" fill="#7B808C"/>
</svg>
