<svg width="24" height="24" viewBox="0 0 24 24" fill="none" xmlns="http://www.w3.org/2000/svg">
<path fill-rule="evenodd" clip-rule="evenodd" d="M10.7168 16.7071C11.0944 16.3166 11.0944 15.6834 10.7168 15.2929L8.21682 12.7071C7.83926 12.3166 7.83926 11.6834 8.21682 11.2929L10.7168 8.70711C11.0944 8.31658 11.0944 7.68342 10.7168 7.29289C10.3393 6.90237 9.7271 6.90237 9.34953 7.29289L6.84953 9.87868C5.71683 11.0503 5.71682 12.9497 6.84953 14.1213L9.34953 16.7071C9.7271 17.0976 10.3393 17.0976 10.7168 16.7071Z" fill="#7B808C"/>
<path fill-rule="evenodd" clip-rule="evenodd" d="M16.7168 16.7071C17.0944 16.3166 17.0944 15.6834 16.7168 15.2929L14.2168 12.7071C13.8393 12.3166 13.8393 11.6834 14.2168 11.2929L16.7168 8.70711C17.0944 8.31658 17.0944 7.68342 16.7168 7.29289C16.3393 6.90237 15.7271 6.90237 15.3495 7.29289L12.8495 9.87868C11.7168 11.0503 11.7168 12.9497 12.8495 14.1213L15.3495 16.7071C15.7271 17.0976 16.3393 17.0976 16.7168 16.7071Z" fill="#7B808C"/>
</svg>
