<svg width="24" height="24" viewBox="0 0 24 24" fill="none" xmlns="http://www.w3.org/2000/svg">
<path d="M9 12.9997C9 12.4474 9.44772 11.9997 10 11.9997H14C14.5523 11.9997 15 12.4474 15 12.9997C15 13.552 14.5523 13.9997 14 13.9997H10C9.44772 13.9997 9 13.552 9 12.9997Z" fill="#7B808C"/>
<path fill-rule="evenodd" clip-rule="evenodd" d="M2 5.99973C2 4.34287 3.34315 2.99973 5 2.99973H19C20.6569 2.99973 22 4.34287 22 5.99973V8.99973C22 9.55201 21.5523 9.99973 21 9.99973V17.9997C21 19.6566 19.6569 20.9997 18 20.9997H6C4.34315 20.9997 3 19.6566 3 17.9997V9.99973C2.44772 9.99973 2 9.55201 2 8.99973V5.99973ZM5 9.99973H19V17.9997C19 18.552 18.5523 18.9997 18 18.9997H6C5.44772 18.9997 5 18.552 5 17.9997V9.99973ZM20 7.99973H4V5.99973C4 5.44744 4.44772 4.99973 5 4.99973H19C19.5523 4.99973 20 5.44744 20 5.99973V7.99973Z" fill="#7B808C"/>
</svg>
