<svg width="24" height="24" viewBox="0 0 24 24" fill="none" xmlns="http://www.w3.org/2000/svg">
<path fill-rule="evenodd" clip-rule="evenodd" d="M7.29289 15.3139C7.68342 14.8945 8.31658 14.8945 8.70711 15.3139L12 18.851L15.2929 15.3139C15.6834 14.8945 16.3166 14.8945 16.7071 15.3139C17.0976 15.7334 17.0976 16.4135 16.7071 16.833L13.4142 20.3701C12.6332 21.2091 11.3668 21.2091 10.5858 20.3701L7.29289 16.833C6.90237 16.4135 6.90237 15.7334 7.29289 15.3139Z" fill="#7B808C" />
<path fill-rule="evenodd" clip-rule="evenodd" d="M7.29289 8.68539C7.68342 9.10487 8.31658 9.10487 8.70711 8.68539L12 5.14831L15.2929 8.68539C15.6834 9.10487 16.3166 9.10487 16.7071 8.68539C17.0976 8.2659 17.0976 7.58579 16.7071 7.1663L13.4142 3.62923C12.6332 2.79026 11.3668 2.79026 10.5858 3.62923L7.29289 7.1663C6.90237 7.58579 6.90237 8.2659 7.29289 8.68539Z" fill="#7B808C" />
</svg>
