<svg width="24" height="24" viewBox="0 0 24 24" fill="none" xmlns="http://www.w3.org/2000/svg">
<path fill-rule="evenodd" clip-rule="evenodd" d="M8.99988 19L7.16947 19C4.866 19 3.4219 16.5116 4.56474 14.5116L5.60466 12.6917C5.86369 12.2384 5.99993 11.7254 5.99993 11.2033V8C5.99993 4.68629 8.68622 2 11.9999 2C15.3136 2 17.9999 4.68629 17.9999 8V11.2033C17.9999 11.7254 18.1362 12.2384 18.3952 12.6917L19.4351 14.5116C20.578 16.5116 19.1339 19 16.8304 19L14.9999 19C14.9999 20.6569 13.6567 22 11.9999 22C10.343 22 8.99988 20.6569 8.99988 19ZM11.9999 4C14.2091 4 15.9999 5.79086 15.9999 8V11.2033C15.9999 12.0734 16.227 12.9285 16.6587 13.684L17.6986 15.5039C18.0796 16.1705 17.5982 17 16.8304 17H7.16947C6.40165 17 5.92028 16.1705 6.30123 15.5039L7.34115 13.684C7.77286 12.9285 7.99993 12.0734 7.99993 11.2033V8C7.99993 5.79086 9.79079 4 11.9999 4ZM11.9999 20C11.4476 20 10.9999 19.5523 10.9999 19H12.9999C12.9999 19.5523 12.5522 20 11.9999 20Z" fill="#7B808C"/>
</svg>
