<svg width="24" height="24" viewBox="0 0 24 24" fill="none" xmlns="http://www.w3.org/2000/svg">
<path fill-rule="evenodd" clip-rule="evenodd" d="M3 6C3 4.34315 4.34315 3 6 3H14C16.7614 3 19 5.23858 19 8C19 9.17369 18.5956 10.2529 17.9185 11.106C19.6849 11.521 21 13.1069 21 15V16C21 18.7614 18.7614 21 16 21H6C4.34315 21 3 19.6569 3 18V6ZM5 13V18C5 18.5523 5.44772 19 6 19H16C17.6569 19 19 17.6569 19 16V15C19 13.8954 18.1046 13 17 13H5ZM14 11C15.6569 11 17 9.65685 17 8C17 6.34315 15.6569 5 14 5H6C5.44772 5 5 5.44772 5 6V11H14Z" fill="#7B808C"/>
</svg>
