<svg width="24" height="24" viewBox="0 0 24 24" fill="none" xmlns="http://www.w3.org/2000/svg">
<path d="M9 15.9996C9 15.4473 9.44772 14.9996 10 14.9996H14C14.5523 14.9996 15 15.4473 15 15.9996C15 16.5519 14.5523 16.9996 14 16.9996H10C9.44772 16.9996 9 16.5519 9 15.9996Z" fill="#7B808C"/>
<path d="M8.5 12.9996C9.32843 12.9996 10 12.328 10 11.4996C10 10.6711 9.32843 9.99957 8.5 9.99957C7.67157 9.99957 7 10.6711 7 11.4996C7 12.328 7.67157 12.9996 8.5 12.9996Z" fill="#7B808C"/>
<path d="M17 11.4996C17 12.328 16.3284 12.9996 15.5 12.9996C14.6716 12.9996 14 12.328 14 11.4996C14 10.6711 14.6716 9.99957 15.5 9.99957C16.3284 9.99957 17 10.6711 17 11.4996Z" fill="#7B808C"/>
<path fill-rule="evenodd" clip-rule="evenodd" d="M13 3.99957C13 3.44729 12.5523 2.99957 12 2.99957C11.4477 2.99957 11 3.44729 11 3.99957V4.99957H7C4.23858 4.99957 2 7.23815 2 9.99957V15.9996C2 18.761 4.23858 20.9996 7 20.9996H17C19.7614 20.9996 22 18.761 22 15.9996V9.99957C22 7.23815 19.7614 4.99957 17 4.99957H13V3.99957ZM7 6.99957C5.34315 6.99957 4 8.34272 4 9.99957V15.9996C4 17.6564 5.34315 18.9996 7 18.9996H17C18.6569 18.9996 20 17.6564 20 15.9996V9.99957C20 8.34272 18.6569 6.99957 17 6.99957H7Z" fill="#7B808C"/>
</svg>
