<svg width="24" height="24" viewBox="0 0 24 24" fill="none" xmlns="http://www.w3.org/2000/svg">
<path fill-rule="evenodd" clip-rule="evenodd" d="M12.5 3.99976C8.35788 3.99976 5.00001 7.35762 5.00001 11.4998C5.00001 12.5871 5.23078 13.6179 5.64506 14.5479C5.99211 15.3271 6.10565 16.2919 5.71919 17.1936L4.71331 19.5407L8.50762 18.5921C9.12662 18.4373 9.741 18.4989 10.2757 18.6647C10.9773 18.8822 11.724 18.9998 12.5 18.9998C16.6421 18.9998 20 15.6419 20 11.4998C20 7.35762 16.6421 3.99976 12.5 3.99976ZM3.00001 11.4998C3.00001 6.25305 7.25331 1.99976 12.5 1.99976C17.7467 1.99976 22 6.25305 22 11.4998C22 16.7465 17.7467 20.9998 12.5 20.9998C11.5209 20.9998 10.5746 20.8513 9.68346 20.575C9.41986 20.4933 9.18456 20.4844 8.99269 20.5324L3.24255 21.9699C2.87397 22.062 2.48502 21.9374 2.23869 21.6481C1.99236 21.3589 1.93121 20.955 2.08087 20.6058L3.8809 16.4058C3.99994 16.128 3.99319 15.7548 3.8181 15.3617C3.29195 14.1805 3.00001 12.8729 3.00001 11.4998Z" fill="#7B808C"/>
</svg>
