<svg width="24" height="24" viewBox="0 0 24 24" fill="none" xmlns="http://www.w3.org/2000/svg">
<path fill-rule="evenodd" clip-rule="evenodd" d="M13.9701 8.24253C14.1041 7.70673 13.7783 7.1638 13.2425 7.02985C12.7067 6.8959 12.1638 7.22166 12.0299 7.75746L10.0299 15.7575C9.8959 16.2933 10.2217 16.8362 10.7575 16.9701C11.2933 17.1041 11.8362 16.7783 11.9701 16.2425L13.9701 8.24253ZM7.70711 7.29289C8.09763 7.68342 8.09763 8.31658 7.70711 8.70711L4.41421 12L7.70711 15.2929C8.09763 15.6834 8.09763 16.3166 7.70711 16.7071C7.31658 17.0976 6.68342 17.0976 6.29289 16.7071L2.29289 12.7071C1.90237 12.3166 1.90237 11.6834 2.29289 11.2929L6.29289 7.29289C6.68342 6.90237 7.31658 6.90237 7.70711 7.29289ZM16.2929 7.29289C15.9024 7.68342 15.9024 8.31658 16.2929 8.70711L19.5858 12L16.2929 15.2929C15.9024 15.6834 15.9024 16.3166 16.2929 16.7071C16.6834 17.0976 17.3166 17.0976 17.7071 16.7071L21.7071 12.7071C22.0976 12.3166 22.0976 11.6834 21.7071 11.2929L17.7071 7.29289C17.3166 6.90237 16.6834 6.90237 16.2929 7.29289Z" fill="#7B808C"/>
</svg>
