<svg width="24" height="24" viewBox="0 0 24 24" fill="none" xmlns="http://www.w3.org/2000/svg">
<path fill-rule="evenodd" clip-rule="evenodd" d="M14 8.99976C14.5523 8.99976 15 9.44747 15 9.99976V17.9998C15 18.552 14.5523 18.9998 14 18.9998H6C5.44771 18.9998 5 18.552 5 17.9998V9.99976C5 9.44747 5.44771 8.99976 6 8.99976H14ZM17 9.99976C17 8.3429 15.6569 6.99976 14 6.99976H6C4.34315 6.99976 3 8.3429 3 9.99976V17.9998C3 19.6566 4.34315 20.9998 6 20.9998H14C15.6569 20.9998 17 19.6566 17 17.9998V9.99976Z" fill="#7B808C"/>
<path fill-rule="evenodd" clip-rule="evenodd" d="M7 3.99976C7 3.44747 7.44771 2.99976 8 2.99976H18C19.6569 2.99976 21 4.3429 21 5.99976V15.9998C21 16.552 20.5523 16.9998 20 16.9998C19.4477 16.9998 19 16.552 19 15.9998V5.99976C19 5.44747 18.5523 4.99976 18 4.99976H8C7.44771 4.99976 7 4.55204 7 3.99976Z" fill="#7B808C"/>
</svg>
