<svg width="24" height="24" viewBox="0 0 24 24" fill="none" xmlns="http://www.w3.org/2000/svg">
<path fill-rule="evenodd" clip-rule="evenodd" d="M7.85333 5.73223C8.32217 5.26339 8.95805 5 9.62109 5H18.4998C19.8805 5 20.9998 6.11929 20.9998 7.5V16.5C20.9998 17.8807 19.8805 19 18.4998 19H9.62109C8.95805 19 8.32217 18.7366 7.85333 18.2678L3.35333 13.7678C2.37702 12.7915 2.37702 11.2085 3.35333 10.2322L7.85333 5.73223ZM9.62109 7C9.48848 7 9.36131 7.05268 9.26754 7.14645L4.76754 11.6464C4.57228 11.8417 4.57228 12.1583 4.76754 12.3536L9.26754 16.8536C9.36131 16.9473 9.48849 17 9.62109 17H18.4998C18.7759 17 18.9998 16.7761 18.9998 16.5V7.5C18.9998 7.22386 18.7759 7 18.4998 7H9.62109Z" fill="#7B808C"/>
<path d="M16.7071 10.7071C17.0976 10.3166 17.0976 9.68342 16.7071 9.29289C16.3166 8.90237 15.6834 8.90237 15.2929 9.29289L14 10.5858L12.7071 9.29289C12.3166 8.90237 11.6834 8.90237 11.2929 9.29289C10.9024 9.68342 10.9024 10.3166 11.2929 10.7071L12.5858 12L11.2929 13.2929C10.9024 13.6834 10.9024 14.3166 11.2929 14.7071C11.6834 15.0976 12.3166 15.0976 12.7071 14.7071L14 13.4142L15.2929 14.7071C15.6834 15.0976 16.3166 15.0976 16.7071 14.7071C17.0976 14.3166 17.0976 13.6834 16.7071 13.2929L15.4142 12L16.7071 10.7071Z" fill="#7B808C"/>
</svg>
