<svg width="24" height="24" fill="none" viewBox="0 0 24 24" xmlns="http://www.w3.org/2000/svg">
    <path fill-rule="evenodd" clip-rule="evenodd" d="M13 3C13 2.44772 12.5523 2 12 2C11.4477 2 11 2.44772 11 3V5H8C5.79086 5 4 6.79086 4 9C4 11.2091 5.79086 13 8 13H11V17H5.875C5.32272 17 4.875 17.4477 4.875 18C4.875 18.5523 5.32272 19 5.875 19H11V21C11 21.5523 11.4477 22 12 22C12.5523 22 13 21.5523 13 21V19H16C18.2091 19 20 17.2091 20 15C20 12.7909 18.2091 11 16 11H13V7H18.125C18.6773 7 19.125 6.55228 19.125 6C19.125 5.44772 18.6773 5 18.125 5H13V3ZM11 7H8C6.89543 7 6 7.89543 6 9C6 10.1046 6.89543 11 8 11H11V7ZM13 13V17H16C17.1046 17 18 16.1046 18 15C18 13.8954 17.1046 13 16 13H13Z" fill="#7B808C"/>
</svg>
