<svg width="24" height="24" viewBox="0 0 24 24" fill="none" xmlns="http://www.w3.org/2000/svg">
<path fill-rule="evenodd" clip-rule="evenodd" d="M13 3.99973C13 3.44744 13.4477 2.99973 14 2.99973H18C19.6569 2.99973 21 4.34287 21 5.99973V17.9997C21 19.6566 19.6569 20.9997 18 20.9997H14C13.4477 20.9997 13 20.552 13 19.9997C13 19.4474 13.4477 18.9997 14 18.9997H18C18.5523 18.9997 19 18.552 19 17.9997V5.99973C19 5.44744 18.5523 4.99973 18 4.99973H14C13.4477 4.99973 13 4.55201 13 3.99973ZM8.70711 6.29262C9.09763 6.68314 9.09763 7.31631 8.70711 7.70683L5.41421 10.9997H14C14.5523 10.9997 15 11.4474 15 11.9997C15 12.552 14.5523 12.9997 14 12.9997H5.41421L8.70711 16.2926C9.09763 16.6831 9.09763 17.3163 8.70711 17.7068C8.31658 18.0974 7.68342 18.0974 7.29289 17.7068L2.29289 12.7068C1.90237 12.3163 1.90237 11.6831 2.29289 11.2926L7.29289 6.29262C7.68342 5.90209 8.31658 5.90209 8.70711 6.29262Z" fill="#7B808C"/>
</svg>
