<svg width="24" height="24" viewBox="0 0 24 24" fill="none" xmlns="http://www.w3.org/2000/svg">
<path fill-rule="evenodd" clip-rule="evenodd" d="M12 6C9.34844 6 7.14048 6.96159 5.5917 8.13652C4.81839 8.72317 4.19277 9.37534 3.75178 10.0113C3.33278 10.6155 3 11.3217 3 12C3 12.6783 3.33278 13.3845 3.75178 13.9887C4.19277 14.6247 4.81839 15.2768 5.5917 15.8635C5.80386 16.0244 6.02839 16.1814 6.26474 16.3324L5.65828 17.5453C5.41129 18.0393 5.61152 18.64 6.1055 18.887C6.59947 19.1339 7.20015 18.9337 7.44714 18.4397L8.04478 17.2445C8.93394 17.5987 9.92449 17.8542 10.9999 17.9539V19.0001C10.9999 19.5523 11.4476 20.0001 11.9999 20.0001C12.5522 20.0001 12.9999 19.5523 12.9999 19.0001V17.9539C14.0753 17.8543 15.0659 17.5987 15.955 17.2445L16.5527 18.4399C16.7997 18.9338 17.4004 19.1341 17.8943 18.8871C18.3883 18.6401 18.5886 18.0394 18.3416 17.5454L17.7351 16.3325C17.9715 16.1814 18.1961 16.0245 18.4083 15.8635C19.1816 15.2768 19.8072 14.6247 20.2482 13.9887C20.6672 13.3845 21 12.6783 21 12C21 11.3217 20.6672 10.6155 20.2482 10.0113C19.8072 9.37534 19.1816 8.72317 18.4083 8.13652C16.8595 6.96159 14.6516 6 12 6ZM5 12C5 11.9226 5.06592 11.6259 5.39528 11.151C5.70266 10.7077 6.17508 10.2043 6.80047 9.72991C8.04908 8.78269 9.84112 8 12 8C14.1589 8 15.9509 8.78269 17.1995 9.72991C17.8249 10.2043 18.2973 10.7077 18.6047 11.151C18.9341 11.6259 19 11.9226 19 12C19 12.0774 18.9341 12.3741 18.6047 12.849C18.2973 13.2923 17.8249 13.7957 17.1995 14.2701C15.9509 15.2173 14.1589 16 12 16C9.84112 16 8.04908 15.2173 6.80047 14.2701C6.17508 13.7957 5.70266 13.2923 5.39528 12.849C5.06592 12.3741 5 12.0774 5 12Z" fill="#7B808C"/>
</svg>
