<svg width="24" height="24" viewBox="0 0 24 24" fill="none" xmlns="http://www.w3.org/2000/svg">
<path fill-rule="evenodd" clip-rule="evenodd" d="M5.39528 11.151C5.06592 11.6259 5 11.9226 5 12C5 12.0774 5.06592 12.3741 5.39528 12.849C5.70266 13.2923 6.17508 13.7957 6.80047 14.2701C8.04908 15.2173 9.84112 16 12 16C14.1589 16 15.9509 15.2173 17.1995 14.2701C17.8249 13.7957 18.2973 13.2923 18.6047 12.849C18.9341 12.3741 19 12.0774 19 12C19 11.9226 18.9341 11.6259 18.6047 11.151C18.2973 10.7077 17.8249 10.2043 17.1995 9.72991C15.9509 8.78269 14.1589 8 12 8C9.84112 8 8.04908 8.78269 6.80047 9.72991C6.17508 10.2043 5.70266 10.7077 5.39528 11.151ZM5.5917 8.13652C7.14048 6.96159 9.34844 6 12 6C14.6516 6 16.8595 6.96159 18.4083 8.13652C19.1816 8.72317 19.8072 9.37534 20.2482 10.0113C20.6672 10.6155 21 11.3217 21 12C21 12.6783 20.6672 13.3845 20.2482 13.9887C19.8072 14.6247 19.1816 15.2768 18.4083 15.8635C16.8595 17.0384 14.6516 18 12 18C9.34844 18 7.14048 17.0384 5.5917 15.8635C4.81839 15.2768 4.19277 14.6247 3.75178 13.9887C3.33278 13.3845 3 12.6783 3 12C3 11.3217 3.33278 10.6155 3.75178 10.0113C4.19277 9.37534 4.81839 8.72317 5.5917 8.13652Z" fill="#7B808C"/>
<path fill-rule="evenodd" clip-rule="evenodd" d="M12 11.5C11.7239 11.5 11.5 11.7239 11.5 12C11.5 12.2761 11.7239 12.5 12 12.5C12.2761 12.5 12.5 12.2761 12.5 12C12.5 11.7239 12.2761 11.5 12 11.5ZM9.5 12C9.5 10.6193 10.6193 9.5 12 9.5C13.3807 9.5 14.5 10.6193 14.5 12C14.5 13.3807 13.3807 14.5 12 14.5C10.6193 14.5 9.5 13.3807 9.5 12Z" fill="#7B808C"/>
</svg>
