<svg viewBox="0 0 24 24" fill="none" xmlns="http://www.w3.org/2000/svg">
<path fill-rule="evenodd" clip-rule="evenodd" d="M5 2C3.34315 2 2 3.34315 2 5V6C2 6.55228 1.55228 7 1 7C0.447715 7 0 6.55228 0 6V5C0 2.23858 2.23858 0 5 0H6C6.55228 0 7 0.447715 7 1C7 1.55228 6.55228 2 6 2H5Z" fill="#7B808C"/>
<path fill-rule="evenodd" clip-rule="evenodd" d="M19 2C20.6569 2 22 3.34315 22 5V6C22 6.55228 22.4477 7 23 7C23.5523 7 24 6.55228 24 6V5C24 2.23858 21.7614 0 19 0H18C17.4477 0 17 0.447715 17 1C17 1.55228 17.4477 2 18 2H19Z" fill="#7B808C"/>
<path fill-rule="evenodd" clip-rule="evenodd" d="M5 22C3.34315 22 2 20.6569 2 19V18C2 17.4477 1.55228 17 1 17C0.447715 17 0 17.4477 0 18V19C0 21.7614 2.23858 24 5 24H6C6.55228 24 7 23.5523 7 23C7 22.4477 6.55228 22 6 22H5Z" fill="#7B808C"/>
<path fill-rule="evenodd" clip-rule="evenodd" d="M19 22C20.6569 22 22 20.6569 22 19V18C22 17.4477 22.4477 17 23 17C23.5523 17 24 17.4477 24 18V19C24 21.7614 21.7614 24 19 24H18C17.4477 24 17 23.5523 17 23C17 22.4477 17.4477 22 18 22H19Z" fill="#7B808C"/>
<path fill-rule="evenodd" clip-rule="evenodd" d="M12 7C12.5523 7 13 7.44772 13 8V12.1C13 13.7016 11.7016 15 10.1 15H10C9.44772 15 9 14.5523 9 14C9 13.4477 9.44772 13 10 13H10.1C10.5971 13 11 12.5971 11 12.1V8C11 7.44772 11.4477 7 12 7Z" fill="#7B808C"/>
<path fill-rule="evenodd" clip-rule="evenodd" d="M7 7C7.55228 7 8 7.44772 8 8V9C8 9.55228 7.55228 10 7 10C6.44772 10 6 9.55228 6 9V8C6 7.44772 6.44772 7 7 7Z" fill="#7B808C"/>
<path fill-rule="evenodd" clip-rule="evenodd" d="M17 7C17.5523 7 18 7.44772 18 8V9C18 9.55228 17.5523 10 17 10C16.4477 10 16 9.55228 16 9V8C16 7.44772 16.4477 7 17 7Z" fill="#7B808C"/>
<path fill-rule="evenodd" clip-rule="evenodd" d="M7.70462 17.3939C8.03933 16.9546 8.66679 16.8699 9.1061 17.2046C9.75016 17.6953 10.8224 18 12.0001 18C13.1777 18 14.2499 17.6953 14.894 17.2046C15.3333 16.8699 15.9608 16.9546 16.2955 17.3939C16.6302 17.8333 16.5454 18.4607 16.1061 18.7954C15.0002 19.638 13.4474 20 12.0001 20C10.5527 20 8.99994 19.638 7.89401 18.7954C7.45471 18.4607 7.36991 17.8333 7.70462 17.3939Z" fill="#7B808C"/>
</svg>
