<svg width="24" height="24" viewBox="0 0 24 24" fill="none" xmlns="http://www.w3.org/2000/svg">
<path fill-rule="evenodd" clip-rule="evenodd" d="M12 3.99976C7.58172 3.99976 4 7.58148 4 11.9998C4 16.418 7.58172 19.9998 12 19.9998C16.4183 19.9998 20 16.418 20 11.9998C20 7.58148 16.4183 3.99976 12 3.99976ZM2 11.9998C2 6.47691 6.47715 1.99976 12 1.99976C17.5228 1.99976 22 6.47691 22 11.9998C22 17.5226 17.5228 21.9998 12 21.9998C6.47715 21.9998 2 17.5226 2 11.9998Z" fill="#7B808C"/>
<path fill-rule="evenodd" clip-rule="evenodd" d="M7.75736 14.8282C8.14788 14.4377 8.78105 14.4377 9.17157 14.8282C10.7337 16.3903 13.2663 16.3903 14.8284 14.8282C15.219 14.4377 15.8521 14.4377 16.2426 14.8282C16.6332 15.2187 16.6332 15.8519 16.2426 16.2424C13.8995 18.5855 10.1005 18.5855 7.75736 16.2424C7.36683 15.8519 7.36683 15.2187 7.75736 14.8282Z" fill="#7B808C"/>
<path fill-rule="evenodd" clip-rule="evenodd" d="M8.5 11.9998C9.32843 11.9998 10 11.3282 10 10.4998C10 9.67133 9.32843 8.99976 8.5 8.99976C7.67157 8.99976 7 9.67133 7 10.4998C7 11.3282 7.67157 11.9998 8.5 11.9998Z" fill="#7B808C"/>
<path fill-rule="evenodd" clip-rule="evenodd" d="M15.5 11.9998C16.3284 11.9998 17 11.3282 17 10.4998C17 9.67133 16.3284 8.99976 15.5 8.99976C14.6716 8.99976 14 9.67133 14 10.4998C14 11.3282 14.6716 11.9998 15.5 11.9998Z" fill="#7B808C"/>
</svg>
