<svg width="24" height="24" viewBox="0 0 24 24" fill="none" xmlns="http://www.w3.org/2000/svg">
<path fill-rule="evenodd" clip-rule="evenodd" d="M3 5C2.44772 5 2 5.44772 2 6V18C2 18.5523 2.44772 19 3 19H10C10.5523 19 11 18.5523 11 18C11 17.4477 10.5523 17 10 17H7.46905C7.24343 15.1906 5.80936 13.7566 4 13.5309V10.4691C5.80936 10.2434 7.24343 8.80936 7.46905 7H16.5309C16.7566 8.80936 18.1906 10.2434 20 10.4691V14C20 14.5523 20.4477 15 21 15C21.5523 15 22 14.5523 22 14V6C22 5.44772 21.5523 5 21 5H3ZM20 8.43699V7H18.563C18.7439 7.7028 19.2972 8.2561 20 8.43699ZM5.43699 7H4V8.43699C4.7028 8.2561 5.2561 7.7028 5.43699 7ZM4 15.563V17H5.43699C5.2561 16.2972 4.7028 15.7439 4 15.563Z" fill="#7B808C"/>
<path d="M13 18C13 17.4477 13.4477 17 14 17H20C20.5523 17 21 17.4477 21 18C21 18.5523 20.5523 19 20 19H14C13.4477 19 13 18.5523 13 18Z" fill="#7B808C"/>
<path fill-rule="evenodd" clip-rule="evenodd" d="M14.5 12C14.5 13.3807 13.3807 14.5 12 14.5C10.6193 14.5 9.5 13.3807 9.5 12C9.5 10.6193 10.6193 9.5 12 9.5C13.3807 9.5 14.5 10.6193 14.5 12ZM12.5 12C12.5 12.2761 12.2761 12.5 12 12.5C11.7239 12.5 11.5 12.2761 11.5 12C11.5 11.7239 11.7239 11.5 12 11.5C12.2761 11.5 12.5 11.7239 12.5 12Z" fill="#7B808C"/>
</svg>
