<svg width="24" height="24" viewBox="0 0 24 24" fill="none" xmlns="http://www.w3.org/2000/svg">
<path fill-rule="evenodd" clip-rule="evenodd" d="M2 6C2 5.44772 2.44772 5 3 5H6.45852H17.5415H21C21.5523 5 22 5.44772 22 6V9.45852V14C22 14.5523 21.5523 15 21 15C20.4477 15 20 14.5523 20 14V10.4691C18.1906 10.2434 16.7566 8.80936 16.5309 7H7.46905C7.24343 8.80936 5.80936 10.2434 4 10.4691V13.5309C5.80936 13.7566 7.24343 15.1906 7.46905 17H10C10.5523 17 11 17.4477 11 18C11 18.5523 10.5523 19 10 19H6.45852H3C2.44772 19 2 18.5523 2 18V14.5415V9.45852V6ZM20 7V8.43699C19.2972 8.2561 18.7439 7.7028 18.563 7H20ZM4 7H5.43699C5.2561 7.7028 4.7028 8.2561 4 8.43699V7ZM4 17V15.563C4.7028 15.7439 5.2561 16.2972 5.43699 17H4ZM14 17C13.4477 17 13 17.4477 13 18C13 18.5523 13.4477 19 14 19H16V21C16 21.5523 16.4477 22 17 22C17.5523 22 18 21.5523 18 21V19H20C20.5523 19 21 18.5523 21 18C21 17.4477 20.5523 17 20 17H18V15C18 14.4477 17.5523 14 17 14C16.4477 14 16 14.4477 16 15V17H14ZM12.5 12C12.5 12.2761 12.2761 12.5 12 12.5C11.7239 12.5 11.5 12.2761 11.5 12C11.5 11.7239 11.7239 11.5 12 11.5C12.2761 11.5 12.5 11.7239 12.5 12ZM14.5 12C14.5 13.3807 13.3807 14.5 12 14.5C10.6193 14.5 9.5 13.3807 9.5 12C9.5 10.6193 10.6193 9.5 12 9.5C13.3807 9.5 14.5 10.6193 14.5 12Z" fill="#7B808C"/>
</svg>
