<svg width="24" height="24" viewBox="0 0 24 24" fill="none" xmlns="http://www.w3.org/2000/svg">
<path fill-rule="evenodd" clip-rule="evenodd" d="M2 6C2 5.44772 2.44772 5 3 5H21C21.5523 5 22 5.44772 22 6V18C22 18.5523 21.5523 19 21 19H3C2.44772 19 2 18.5523 2 18V6ZM5.43699 7H4V8.43699C4.7028 8.2561 5.2561 7.7028 5.43699 7ZM4 10.4691V13.5309C5.80936 13.7566 7.24343 15.1906 7.46905 17H16.5309C16.7566 15.1906 18.1906 13.7566 20 13.5309V10.4691C18.1906 10.2434 16.7566 8.80936 16.5309 7H7.46905C7.24343 8.80936 5.80936 10.2434 4 10.4691ZM18.563 7C18.7439 7.7028 19.2972 8.2561 20 8.43699V7H18.563ZM20 15.563C19.2972 15.7439 18.7439 16.2972 18.563 17H20V15.563ZM5.43699 17C5.2561 16.2972 4.7028 15.7439 4 15.563V17H5.43699Z" fill="#7B808C"/>
<path fill-rule="evenodd" clip-rule="evenodd" d="M12 12.5C12.2761 12.5 12.5 12.2761 12.5 12C12.5 11.7239 12.2761 11.5 12 11.5C11.7239 11.5 11.5 11.7239 11.5 12C11.5 12.2761 11.7239 12.5 12 12.5ZM12 14.5C13.3807 14.5 14.5 13.3807 14.5 12C14.5 10.6193 13.3807 9.5 12 9.5C10.6193 9.5 9.5 10.6193 9.5 12C9.5 13.3807 10.6193 14.5 12 14.5Z" fill="#7B808C"/>
</svg>
