<svg width="24" height="24" viewBox="0 0 24 24" fill="none" xmlns="http://www.w3.org/2000/svg">
<path fill-rule="evenodd" clip-rule="evenodd" d="M2.17877 4.17357C2.50304 3.45894 3.21528 3 4.00003 3H20C20.7848 3 21.497 3.45894 21.8213 4.17357C22.1456 4.88819 22.0219 5.72642 21.5052 6.31701L15 13.7515V20C15 20.6932 14.6411 21.3369 14.0515 21.7013C13.4619 22.0657 12.7256 22.0988 12.1056 21.7889L10.1056 20.7889C9.42804 20.4501 9.00003 19.7575 9.00003 19V13.7515L2.49488 6.31701C1.97811 5.72642 1.85449 4.88819 2.17877 4.17357ZM4.00003 5L10.7526 12.7172C10.9121 12.8995 11 13.1335 11 13.3757V19L13 20V13.3757C13 13.1335 13.088 12.8995 13.2475 12.7172L20 5H4.00003Z" fill="#FFA041"/>
</svg>
