<svg width="24" height="24" viewBox="0 0 24 24" fill="none" xmlns="http://www.w3.org/2000/svg">
<path fill-rule="evenodd" clip-rule="evenodd" d="M3 6C3 4.34315 4.34315 3 6 3H9C9.55228 3 10 3.44772 10 4C10 4.55228 9.55228 5 9 5H6C5.44772 5 5 5.44772 5 6V9C5 9.55228 4.55228 10 4 10C3.44772 10 3 9.55228 3 9V6Z" fill="#7B808C"/>
<path fill-rule="evenodd" clip-rule="evenodd" d="M21 6C21 4.34315 19.6569 3 18 3H15C14.4477 3 14 3.44772 14 4C14 4.55228 14.4477 5 15 5H18C18.5523 5 19 5.44772 19 6V9C19 9.55228 19.4477 10 20 10C20.5523 10 21 9.55228 21 9V6Z" fill="#7B808C"/>
<path fill-rule="evenodd" clip-rule="evenodd" d="M3 18C3 19.6569 4.34315 21 6 21H9C9.55228 21 10 20.5523 10 20C10 19.4477 9.55228 19 9 19H6C5.44772 19 5 18.5523 5 18V15C5 14.4477 4.55228 14 4 14C3.44772 14 3 14.4477 3 15V18Z" fill="#7B808C"/>
<path fill-rule="evenodd" clip-rule="evenodd" d="M21 18C21 19.6569 19.6569 21 18 21H15C14.4477 21 14 20.5523 14 20C14 19.4477 14.4477 19 15 19H18C18.5523 19 19 18.5523 19 18V15C19 14.4477 19.4477 14 20 14C20.5523 14 21 14.4477 21 15V18Z" fill="#7B808C"/>
</svg>
