<svg width="48" height="48" viewBox="0 0 48 48" fill="none" xmlns="http://www.w3.org/2000/svg">
<g clip-path="url(#clip0)">
<path d="M24.001 48.0019C37.2563 48.0019 48.0019 37.2563 48.0019 24.001C48.0019 10.7456 37.2563 0 24.001 0C10.7456 0 0 10.7456 0 24.001C0 37.2563 10.7456 48.0019 24.001 48.0019Z" fill="#595E6B"/>
<path d="M24.001 39.2738C15.5648 39.2738 8.72815 32.4371 8.72815 24.001C8.72815 15.5648 15.5648 8.72815 24.001 8.72815C28.2171 8.72815 32.0348 10.4378 34.8004 13.2015L40.9718 7.0301C36.6281 2.68633 30.6269 0 24.001 0C10.7453 0 0 10.7453 0 24.001C0 37.2566 10.7453 48.0019 24.001 48.0019C30.6288 48.0019 36.6281 45.3156 40.9738 40.9738L34.8024 34.8024C32.0348 37.5641 28.2171 39.2738 24.001 39.2738Z" fill="#9EA2AD"/>
<path d="M39.274 24.001H31.6366C31.6366 19.7848 28.2173 16.3636 23.9992 16.3636C19.7812 16.3636 16.3638 19.7829 16.3638 24.001C16.3638 26.0549 17.1761 27.9173 18.497 29.2924L18.4912 29.2982L27.9465 38.7535L27.9484 38.7555C34.4699 37.0149 39.274 31.0697 39.274 24.001Z" fill="#2E323E"/>
<path d="M48 24.001H39.2718C39.2718 31.0698 34.4658 37.0149 27.9482 38.7555L34.6882 45.4955C42.579 41.5637 48 33.4157 48 24.001Z" fill="#595E6B"/>
<path d="M24.001 47.7273C10.7917 47.7273 0.0773601 37.0555 0.00193401 23.8637C0.00193401 23.9101 0 23.9546 0 24.001C0 37.2566 10.7453 48.002 24.001 48.002C37.2566 48.002 48.0019 37.2566 48.0019 24.001C48.0019 23.9546 48 23.9101 48 23.8637C47.9246 37.0555 37.2083 47.7273 24.001 47.7273Z" fill="#212121" fill-opacity="0.1"/>
<path d="M27.9502 38.7555L28.1629 38.9683C34.5722 37.158 39.2738 31.2671 39.2738 24.2737V24.001C39.2738 31.0698 34.4678 37.0149 27.9502 38.7555Z" fill="white" fill-opacity="0.05"/>
<path d="M43.6382 21.8185H24.0004C22.7955 21.8185 21.8188 22.7952 21.8188 24.0001C21.8188 25.205 22.7955 26.1817 24.0004 26.1817H43.6363C44.8412 26.1817 45.8179 25.205 45.8179 24.0001C45.8198 22.7952 44.8431 21.8185 43.6382 21.8185Z" fill="#9E9E9E"/>
<path opacity="0.5" d="M43.6382 21.8185H24.0004C22.7955 21.8185 21.8188 22.7952 21.8188 24.0001C21.8188 25.205 22.7955 26.1817 24.0004 26.1817H43.6363C44.8412 26.1817 45.8179 25.205 45.8179 24.0001C45.8198 22.7952 44.8431 21.8185 43.6382 21.8185Z" fill="#C9CCD4"/>
<path d="M4.36322 25.6373C5.26685 25.6373 5.99938 24.9047 5.99938 24.0011C5.99938 23.0975 5.26685 22.3649 4.36322 22.3649C3.45959 22.3649 2.72705 23.0975 2.72705 24.0011C2.72705 24.9047 3.45959 25.6373 4.36322 25.6373Z" fill="#C9CCD4"/>
<path d="M24.0009 5.99932C24.9045 5.99932 25.6371 5.26678 25.6371 4.36316C25.6371 3.45953 24.9045 2.72699 24.0009 2.72699C23.0973 2.72699 22.3647 3.45953 22.3647 4.36316C22.3647 5.26678 23.0973 5.99932 24.0009 5.99932Z" fill="#C9CCD4"/>
<path d="M24.0009 45.273C24.9045 45.273 25.6371 44.5405 25.6371 43.6369C25.6371 42.7332 24.9045 42.0007 24.0009 42.0007C23.0973 42.0007 22.3647 42.7332 22.3647 43.6369C22.3647 44.5405 23.0973 45.273 24.0009 45.273Z" fill="#C9CCD4"/>
<path d="M10.0917 11.7511C10.9954 11.7511 11.7279 11.0185 11.7279 10.1149C11.7279 9.21127 10.9954 8.47873 10.0917 8.47873C9.1881 8.47873 8.45557 9.21127 8.45557 10.1149C8.45557 11.0185 9.1881 11.7511 10.0917 11.7511Z" fill="#C9CCD4"/>
<path d="M10.0917 39.5465C10.9954 39.5465 11.7279 38.814 11.7279 37.9103C11.7279 37.0067 10.9954 36.2742 10.0917 36.2742C9.1881 36.2742 8.45557 37.0067 8.45557 37.9103C8.45557 38.814 9.1881 39.5465 10.0917 39.5465Z" fill="#C9CCD4"/>
<path d="M37.9101 39.5465C38.8137 39.5465 39.5463 38.8139 39.5463 37.9103C39.5463 37.0067 38.8137 36.2741 37.9101 36.2741C37.0065 36.2741 36.2739 37.0067 36.2739 37.9103C36.2739 38.8139 37.0065 39.5465 37.9101 39.5465Z" fill="#7B808C"/>
<path d="M24.0009 22.0921H43.6368C44.7953 22.0921 45.7429 22.9972 45.8106 24.1383C45.8126 24.0918 45.8184 24.0474 45.8184 24.0009C45.8184 22.7961 44.8417 21.8194 43.6368 21.8194H24.0009C22.796 21.8194 21.8193 22.7961 21.8193 24.0009C21.8193 24.0474 21.8213 24.0918 21.8271 24.1383C21.8948 22.9972 22.8405 22.0921 24.0009 22.0921Z" fill="white" fill-opacity="0.2"/>
<path d="M45.8106 24.1364C45.7391 25.2755 44.7933 26.1826 43.6368 26.1826H24.0009C22.8424 26.1826 21.8948 25.2775 21.8271 24.1364C21.8213 24.1828 21.8193 24.2273 21.8193 24.2718C21.8193 25.4767 22.796 26.4534 24.0009 26.4534H43.6368C44.8417 26.4534 45.8184 25.4767 45.8184 24.2718C45.8184 24.2273 45.8164 24.1828 45.8106 24.1364Z" fill="#212121" fill-opacity="0.2"/>
<path d="M24.0008 9.00079C28.217 9.00079 32.0347 10.7104 34.8003 13.4741L41.1051 7.16542C41.0587 7.119 41.0143 7.07259 40.9698 7.02811L34.8003 13.1995C32.0347 10.4358 28.217 8.72616 24.0008 8.72616C15.5647 8.72616 8.72803 15.5629 8.72803 23.999C8.72803 24.0454 8.72996 24.0899 8.72996 24.1363C8.80345 15.764 15.6111 9.00079 24.0008 9.00079Z" fill="#212121" fill-opacity="0.1"/>
<path d="M24.001 48.0019C37.2563 48.0019 48.0019 37.2563 48.0019 24.001C48.0019 10.7456 37.2563 0 24.001 0C10.7456 0 0 10.7456 0 24.001C0 37.2563 10.7456 48.0019 24.001 48.0019Z" fill="url(#paint0_radial)"/>
</g>
<defs>
<radialGradient id="paint0_radial" cx="0" cy="0" r="1" gradientUnits="userSpaceOnUse" gradientTransform="translate(7.03843 6.98378) scale(47.919)">
<stop stop-color="white" stop-opacity="0.1"/>
<stop offset="1" stop-color="white" stop-opacity="0"/>
</radialGradient>
<clipPath id="clip0">
<path d="M0 0H48V48H0V0Z" fill="white"/>
</clipPath>
</defs>
</svg>
