<svg width="24" height="24" viewBox="0 0 24 24" fill="none" xmlns="http://www.w3.org/2000/svg">
<path fill-rule="evenodd" clip-rule="evenodd" d="M15.9308 5.64273C14.5029 4.98446 12.8949 4.82609 11.366 5.19314C9.83715 5.5602 8.47636 6.4313 7.50294 7.66608C6.73767 8.63681 6.24686 9.78787 6.07194 10.9997H9.00016C9.55244 10.9997 10.0002 11.4474 10.0002 11.9997C10.0002 12.552 9.55244 12.9997 9.00016 12.9997H4.00016C3.51181 12.9997 3.09488 12.647 3.01398 12.1654L2.01398 6.21265C1.92248 5.668 2.28984 5.1523 2.83449 5.0608C3.37914 4.9693 3.89484 5.33666 3.98634 5.88131L4.51171 9.00871C4.83802 8.08263 5.31592 7.20976 5.9323 6.42789C7.18385 4.84031 8.93343 3.72033 10.8991 3.2484C12.8649 2.77648 14.9322 2.98009 16.7681 3.82644C18.604 4.67279 20.1014 6.11259 21.0192 7.91382C21.937 9.71505 22.2216 11.7728 21.8272 13.7555C21.4328 15.7383 20.3824 17.5305 18.8452 18.8434C17.308 20.1563 15.3735 20.9134 13.3535 20.9928C11.3335 21.0722 9.34558 20.4691 7.71009 19.2809C7.26329 18.9563 7.16424 18.3309 7.48886 17.8841C7.81349 17.4373 8.43885 17.3382 8.88566 17.6629C10.1577 18.587 11.7039 19.0561 13.275 18.9943C14.8461 18.9326 16.3507 18.3437 17.5463 17.3226C18.7419 16.3014 19.5589 14.9075 19.8657 13.3654C20.1724 11.8232 19.951 10.2228 19.2372 8.8218C18.5234 7.42084 17.3587 6.301 15.9308 5.64273Z" fill="#7B808C"/>
<path fill-rule="evenodd" clip-rule="evenodd" d="M13.0002 6.99973C13.5524 6.99973 14.0002 7.44744 14.0002 7.99973V11.5855L16.7073 14.2926C17.0978 14.6831 17.0978 15.3163 16.7073 15.7068C16.3167 16.0974 15.6836 16.0974 15.2931 15.7068L12.0002 12.4139V7.99973C12.0002 7.44744 12.4479 6.99973 13.0002 6.99973Z" fill="#7B808C"/>
</svg>
