<svg width="24" height="24" viewBox="0 0 24 24" fill="none" xmlns="http://www.w3.org/2000/svg">
<path fill-rule="evenodd" clip-rule="evenodd" d="M12.5548 4.57136C12.2189 4.34743 11.7813 4.34743 11.4454 4.57136L3.55481 9.83176C3.09528 10.1381 2.47441 10.0139 2.16806 9.55441C1.8617 9.09488 1.98588 8.47401 2.44541 8.16766L10.336 2.90726C11.3437 2.23546 12.6565 2.23546 13.6642 2.90726L21.5548 8.16766C22.0143 8.47401 22.1385 9.09488 21.8322 9.55441C21.5258 10.0139 20.9049 10.1381 20.4454 9.83176L12.5548 4.57136ZM5.00011 9.99971C5.55239 9.99971 6.00011 10.4474 6.00011 10.9997V17.9997C6.00011 18.552 6.44782 18.9997 7.00011 18.9997H9.00011V12.9997C9.00011 12.4474 9.44782 11.9997 10.0001 11.9997H14.0001C14.5524 11.9997 15.0001 12.4474 15.0001 12.9997V18.9997H17.0001C17.5524 18.9997 18.0001 18.552 18.0001 17.9997V10.9997C18.0001 10.4474 18.4478 9.99971 19.0001 9.99971C19.5524 9.99971 20.0001 10.4474 20.0001 10.9997V17.9997C20.0001 19.6566 18.657 20.9997 17.0001 20.9997H7.00011C5.34325 20.9997 4.00011 19.6566 4.00011 17.9997V10.9997C4.00011 10.4474 4.44782 9.99971 5.00011 9.99971ZM13.0001 18.9997V13.9997H11.0001V18.9997H13.0001Z" fill="#7B808C"/>
</svg>
