<svg width="24" height="24" viewBox="0 0 24 24" fill="none" xmlns="http://www.w3.org/2000/svg">
<path fill-rule="evenodd" clip-rule="evenodd" d="M15 2C11.6863 2 9 4.68629 9 8C9 9.29583 9.41079 10.4957 10.1093 11.4765L6.2959 15.2899L6.29289 15.2929L6.28989 15.2959L3.29289 18.2929C2.90237 18.6834 2.90237 19.3166 3.29289 19.7071L5.29289 21.7071C5.68342 22.0976 6.31658 22.0976 6.70711 21.7071C7.09763 21.3166 7.09763 20.6834 6.70711 20.2929L5.41421 19L7.00001 17.4142L8.29289 18.7071C8.68342 19.0976 9.31658 19.0976 9.70711 18.7071C10.0976 18.3166 10.0976 17.6834 9.70711 17.2929L8.41422 16L11.5235 12.8908C12.5043 13.5892 13.7042 14 15 14C18.3137 14 21 11.3137 21 8C21 4.68629 18.3137 2 15 2ZM11 8C11 5.79086 12.7909 4 15 4C17.2091 4 19 5.79086 19 8C19 10.2091 17.2091 12 15 12C12.7909 12 11 10.2091 11 8Z" fill="#7B808C"/>
</svg>
