<svg width="24" height="24" viewBox="0 0 24 24" fill="none" xmlns="http://www.w3.org/2000/svg">
<path fill-rule="evenodd" clip-rule="evenodd" d="M6 2.99976C4.34315 2.99976 3 4.3429 3 5.99976V17.9998C3 19.6566 4.34315 20.9998 6 20.9998H18C19.6569 20.9998 21 19.6566 21 17.9998V5.99976C21 4.3429 19.6569 2.99976 18 2.99976H6ZM18 4.99976H6C5.44772 4.99976 5 5.44747 5 5.99976V8.99979H19V5.99976C19 5.44747 18.5523 4.99976 18 4.99976ZM19 10.9998H11V18.9998H18C18.5523 18.9998 19 18.552 19 17.9998V10.9998ZM9 10.9998H5V17.9998C5 18.552 5.44772 18.9998 6 18.9998H9V10.9998Z" fill="#7B808C"/>
</svg>
