<svg width="24" height="24" viewBox="0 0 24 24" fill="none" xmlns="http://www.w3.org/2000/svg">
<path fill-rule="evenodd" clip-rule="evenodd" d="M12.2093 8.00548C11.3658 7.96128 10.5299 8.18525 9.82145 8.64532C9.11301 9.10539 8.5684 9.77792 8.26568 10.5665C7.96296 11.3551 7.91767 12.2193 8.1363 13.0353C8.35493 13.8512 8.82625 14.577 9.48272 15.1086C10.1392 15.6402 10.9471 15.9503 11.7907 15.9945C12.6342 16.0387 13.4701 15.8148 14.1786 15.3547C14.887 14.8946 15.4316 14.2221 15.7343 13.4335C16.037 12.6449 16.0823 11.7807 15.8637 10.9647C15.7208 10.4313 16.0373 9.88292 16.5708 9.73998C17.1043 9.59704 17.6526 9.91362 17.7956 10.4471C18.1235 11.671 18.0556 12.9673 17.6015 14.1502C17.1474 15.3331 16.3305 16.3419 15.2678 17.032C14.2052 17.7221 12.9513 18.0581 11.686 17.9918C10.4206 17.9255 9.20878 17.4603 8.22408 16.6629C7.23937 15.8655 6.53239 14.7768 6.20445 13.5529C5.8765 12.329 5.94444 11.0327 6.39852 9.84979C6.8526 8.66688 7.66951 7.65808 8.73217 6.96798C9.79483 6.27788 11.0487 5.94191 12.314 6.00823C12.8655 6.03713 13.2892 6.50766 13.2603 7.05919C13.2314 7.61072 12.7609 8.03439 12.2093 8.00548Z" fill="#7B808C"/>
</svg>
