<svg width="18" height="19" viewBox="0 0 18 19" fill="none" xmlns="http://www.w3.org/2000/svg">
    <path fill-rule="evenodd" clip-rule="evenodd" d="M10 13.7324C10.5978 13.3866 11 12.7403 11 12C11 10.8954 10.1046 10 9 10C7.89543 10 7 10.8954 7 12C7 12.7403 7.4022 13.3866 8 13.7324V15C8 15.5523 8.44772 16 9 16C9.55228 16 10 15.5523 10 15V13.7324ZM9 12.5C9.27614 12.5 9.5 12.2761 9.5 12C9.5 11.7239 9.27614 11.5 9 11.5C8.72386 11.5 8.5 11.7239 8.5 12C8.5 12.2761 8.72386 12.5 9 12.5Z" fill="#7B808C"/>
    <path fill-rule="evenodd" clip-rule="evenodd" d="M9 0C6.23858 0 4 2.23858 4 5V7.42007L2.44713 7.71123C1.02822 7.97728 0 9.21621 0 10.6599V16C0 17.6569 1.34315 19 3 19H15C16.6569 19 18 17.6569 18 16V10.6599C18 9.21621 16.9718 7.97728 15.5529 7.71123L14 7.42007V5C14 2.23858 11.7614 0 9 0ZM12 7.04507V5C12 3.34315 10.6569 2 9 2C7.34315 2 6 3.34315 6 5V7.04507L8.44713 6.58623C8.81253 6.51772 9.18747 6.51772 9.55287 6.58623L12 7.04507ZM2.81571 9.67698L8.81571 8.55198C8.93751 8.52914 9.06249 8.52914 9.18429 8.55198L15.1843 9.67698C15.6573 9.76566 16 10.1786 16 10.6599V16C16 16.5523 15.5523 17 15 17H3C2.44772 17 2 16.5523 2 16V10.6599C2 10.1786 2.34274 9.76566 2.81571 9.67698Z" fill="#7B808C"/>
</svg>
