<svg width="48" height="48" viewBox="0 0 48 48" fill="none" xmlns="http://www.w3.org/2000/svg">
<path fill-rule="evenodd" clip-rule="evenodd" d="M32 22V12C32 7.58172 28.4183 4 24 4C19.5817 4 16 7.58172 16 12V22H32ZM24 0C17.3726 0 12 5.37258 12 12V26H36V12C36 5.37258 30.6274 0 24 0Z" fill="#C9CCD4"/>
<rect x="4" y="20" width="40" height="26" rx="4" fill="#7B808C"/>
<rect x="9" y="29" width="7" height="9" rx="1" fill="#C9CCD4"/>
<rect x="17" y="29" width="7" height="9" rx="1" fill="#C9CCD4"/>
<rect x="25" y="29" width="7" height="9" rx="1" fill="#C9CCD4"/>
<rect x="33" y="29" width="7" height="9" rx="1" fill="#C9CCD4"/>
<rect x="16" y="30" width="1" height="7" fill="#9EA2AD"/>
<path d="M8 31C8 30.4477 8.44772 30 9 30V37C8.44772 37 8 36.5523 8 36V31Z" fill="#9EA2AD"/>
<rect x="24" y="30" width="1" height="7" fill="#9EA2AD"/>
<rect x="32" y="30" width="1" height="7" fill="#9EA2AD"/>
<path d="M13.5156 33.5L15 34.3203L14.4922 35.2057L12.9818 34.3203L12.9948 36H12.0052L12.0182 34.3333L10.5208 35.2057L10 34.3203L11.4974 33.5L10 32.6797L10.5208 31.7812L12.0182 32.6667L12.0052 31H12.9948L12.9818 32.6797L14.4922 31.7812L15 32.6797L13.5156 33.5Z" fill="#595E6B"/>
<path d="M21.5156 33.5L23 34.3203L22.4922 35.2057L20.9818 34.3203L20.9948 36H20.0052L20.0182 34.3333L18.5208 35.2057L18 34.3203L19.4974 33.5L18 32.6797L18.5208 31.7812L20.0182 32.6667L20.0052 31H20.9948L20.9818 32.6797L22.4922 31.7812L23 32.6797L21.5156 33.5Z" fill="#595E6B"/>
<path d="M29.5156 33.5L31 34.3203L30.4922 35.2057L28.9818 34.3203L28.9948 36H28.0052L28.0182 34.3333L26.5208 35.2057L26 34.3203L27.4974 33.5L26 32.6797L26.5208 31.7812L28.0182 32.6667L28.0052 31H28.9948L28.9818 32.6797L30.4922 31.7812L31 32.6797L29.5156 33.5Z" fill="#595E6B"/>
<path d="M37.5156 33.5L39 34.3203L38.4922 35.2057L36.9818 34.3203L36.9948 36H36.0052L36.0182 34.3333L34.5208 35.2057L34 34.3203L35.4974 33.5L34 32.6797L34.5208 31.7812L36.0182 32.6667L36.0052 31H36.9948L36.9818 32.6797L38.4922 31.7812L39 32.6797L37.5156 33.5Z" fill="#595E6B"/>
<rect x="8" y="24" width="32" height="2" rx="1" fill="#9EA2AD"/>
<rect x="8" y="41" width="32" height="2" rx="1" fill="#9EA2AD"/>
</svg>
