<svg width="48" height="48" viewBox="0 0 48 48" fill="none" xmlns="http://www.w3.org/2000/svg">
<g clip-path="url(#clip0)">
<path d="M2 19.0859C2 18.4887 2.26683 17.9228 2.72753 17.5429L22.7275 1.04937C23.4664 0.44003 24.5336 0.440031 25.2725 1.04938L45.2725 17.5429C45.7332 17.9228 46 18.4887 46 19.0859V44C46 45.1046 45.1046 46 44 46H4C2.89543 46 2 45.1046 2 44V19.0859Z" fill="#595E6B"/>
<rect x="4.99976" y="2" width="38" height="40" rx="2" fill="#E4E6ED"/>
<rect x="9.99976" y="20.5" width="28" height="1.5" fill="#C9CCD4"/>
<rect width="14" height="1.5" transform="matrix(-1 0 0 1 30.9998 25)" fill="#C9CCD4"/>
<rect x="9.99976" y="7" width="28" height="1.5" fill="#C9CCD4"/>
<path d="M14.4714 14.5L16.3595 15.4844L15.7136 16.5469L13.7924 15.4844L13.809 17.5H12.5503L12.5668 15.5L10.6622 16.5469L9.99976 15.4844L11.9044 14.5L9.99976 13.5156L10.6622 12.4375L12.5668 13.5L12.5503 11.5H13.809L13.7924 13.5156L15.7136 12.4375L16.3595 13.5156L14.4714 14.5Z" fill="#7B808C"/>
<path d="M21.6849 14.5L23.5729 15.4844L22.927 16.5469L21.0058 15.4844L21.0224 17.5H19.7637L19.7803 15.5L17.8757 16.5469L17.2132 15.4844L19.1178 14.5L17.2132 13.5156L17.8757 12.4375L19.7803 13.5L19.7637 11.5H21.0224L21.0058 13.5156L22.927 12.4375L23.5729 13.5156L21.6849 14.5Z" fill="#7B808C"/>
<path d="M28.8983 14.5L30.7863 15.4844L30.1404 16.5469L28.2193 15.4844L28.2358 17.5H26.9771L26.9937 15.5L25.0891 16.5469L24.4266 15.4844L26.3312 14.5L24.4266 13.5156L25.0891 12.4375L26.9937 13.5L26.9771 11.5H28.2358L28.2193 13.5156L30.1404 12.4375L30.7863 13.5156L28.8983 14.5Z" fill="#7B808C"/>
<path d="M36.1117 14.5L37.9998 15.4844L37.3538 16.5469L35.4327 15.4844L35.4492 17.5H34.1905L34.2071 15.5L32.3025 16.5469L31.64 15.4844L33.5446 14.5L31.64 13.5156L32.3025 12.4375L34.2071 13.5L34.1905 11.5H35.4492L35.4327 13.5156L37.3538 12.4375L37.9998 13.5156L36.1117 14.5Z" fill="#7B808C"/>
<path d="M46 19.2856V43.9999C46 45.1045 45.1045 45.9999 44 45.9999H5.14282L46 19.2856Z" fill="#7B808C"/>
<path d="M45.9998 23V44C45.9998 45.1046 45.1043 46 43.9998 46H10.9998L45.9998 23Z" fill="#595E6B"/>
<path d="M1.99979 19.2856V43.9999C1.99979 45.1045 2.89522 45.9999 3.99979 45.9999H42.8569L1.99979 19.2856Z" fill="#9EA2AD"/>
<path d="M1.99976 23V44C1.99976 45.1046 2.89519 46 3.99976 46H36.9998L1.99976 23Z" fill="#7B808C"/>
</g>
<defs>
<clipPath id="clip0">
<path d="M0 0H48V48H0V0Z" fill="white"/>
</clipPath>
</defs>
</svg>
