<svg width="24" height="24" viewBox="0 0 24 24" fill="none" xmlns="http://www.w3.org/2000/svg">
<path d="M5 3.99963C5.83566 3.37194 6.87439 3 8 3C9.6356 3 11.0878 3.78534 12 4.99952C12.9122 3.78534 14.3644 3 16 3C18.7614 3 21 5.23858 21 8V20C21 20.5523 20.5523 21 20 21C19.4477 21 19 20.5523 19 20V8C19 6.34315 17.6569 5 16 5C14.3431 5 13 6.34315 13 8V20C13 20.5523 12.5523 21 12 21C11.4477 21 11 20.5523 11 20V8C11 6.34315 9.65685 5 8 5C6.34315 5 5 6.34315 5 8V20C5 20.5523 4.55228 21 4 21C3.44772 21 3 20.5523 3 20V4C3 3.44772 3.44772 3 4 3C4.55216 3 4.9998 3.44752 5 3.99963Z" fill="#7B808C"/>
</svg>
