<svg width="24" height="24" viewBox="0 0 24 24" fill="none" xmlns="http://www.w3.org/2000/svg">
    <path fill-rule="evenodd" clip-rule="evenodd" d="M12 2.25C12.2508 2.25 12.4849 2.37533 12.624 2.58398L18.624 11.584C18.7967 11.8431 18.7905 12.1801 18.6134 12.4317L16.4102 15.7364C16.2218 16.019 15.8669 16.1397 15.5452 16.0306L13.9636 15.4939L14.9634 17.1202C15.1167 17.3696 15.1109 17.6854 14.9485 17.929L12.624 21.4158C12.4849 21.6245 12.2507 21.7498 12 21.7498C11.7492 21.7498 11.515 21.6245 11.3759 21.4158L5.37596 12.4158C5.20801 12.1638 5.20801 11.8356 5.37596 11.5837L7.93277 7.74846C7.95138 7.71897 7.97222 7.69052 7.99526 7.66337C8.11113 7.52681 8.26821 7.43992 8.43622 7.41011C8.46818 7.40443 8.50066 7.40081 8.53348 7.39932C8.54932 7.39861 8.56523 7.39839 8.58121 7.39869C8.6802 7.40051 8.77619 7.42181 8.86443 7.45987L11.1166 8.37942L9.7072 5.81451C9.57257 5.56949 9.58539 5.26993 9.74046 5.03732L11.376 2.58399C11.515 2.37533 11.7492 2.25 12 2.25ZM16.0194 10.3812L13.3232 9.28036L11.2409 5.49084L12 4.3521L16.0194 10.3812ZM12.4978 10.5636L10.4079 9.7103L12.7331 13.4924L15.4817 14.425L16.8667 12.3475L12.5104 10.5688C12.5062 10.5671 12.502 10.5654 12.4978 10.5636ZM8.54169 9.53924L6.90139 11.9997L12 19.6477L13.434 17.4966L11.6064 14.5238C11.6031 14.5187 11.5998 14.5136 11.5967 14.5084L8.54169 9.53924Z" fill="#7B808C"/>
</svg>
