<svg width="24" height="24" viewBox="0 0 24 24" fill="none" xmlns="http://www.w3.org/2000/svg">
<path fill-rule="evenodd" clip-rule="evenodd" d="M2 8.5C2 6.567 3.567 5 5.5 5C7.433 5 9 6.567 9 8.5V15.5C9 17.433 7.433 19 5.5 19C3.567 19 2 17.433 2 15.5V8.5ZM5.5 7C4.67157 7 4 7.67157 4 8.5V15.5C4 16.3284 4.67157 17 5.5 17C6.32843 17 7 16.3284 7 15.5V8.5C7 7.67157 6.32843 7 5.5 7Z" fill="#7B808C"/>
<path fill-rule="evenodd" clip-rule="evenodd" d="M11 6C11 5.44772 11.4477 5 12 5H15C15.5523 5 16 5.44772 16 6C16 6.55228 15.5523 7 15 7H13V11H14C14.5523 11 15 11.4477 15 12C15 12.5523 14.5523 13 14 13H13V18C13 18.5523 12.5523 19 12 19C11.4477 19 11 18.5523 11 18V6Z" fill="#7B808C"/>
<path fill-rule="evenodd" clip-rule="evenodd" d="M17 6C17 5.44772 17.4477 5 18 5H21C21.5523 5 22 5.44772 22 6C22 6.55228 21.5523 7 21 7H19V11H20C20.5523 11 21 11.4477 21 12C21 12.5523 20.5523 13 20 13H19V18C19 18.5523 18.5523 19 18 19C17.4477 19 17 18.5523 17 18V6Z" fill="#7B808C"/>
</svg>
