<svg width="24" height="24" viewBox="0 0 24 24" fill="none" xmlns="http://www.w3.org/2000/svg">
<path fill-rule="evenodd" clip-rule="evenodd" d="M4 8.50001C4 6.56701 5.567 5.00001 7.5 5.00001C9.433 5.00001 11 6.56701 11 8.50001V15.5C11 17.433 9.433 19 7.5 19C5.567 19 4 17.433 4 15.5V8.50001ZM7.5 7.00001C6.67157 7.00001 6 7.67158 6 8.50001V15.5C6 16.3284 6.67157 17 7.5 17C8.32843 17 9 16.3284 9 15.5V8.50001C9 7.67158 8.32843 7.00001 7.5 7.00001Z" fill="#7B808C"/>
<path fill-rule="evenodd" clip-rule="evenodd" d="M13.8039 5.01943C14.2713 4.92594 14.7397 5.17538 14.9231 5.61539L18 13V6.00001C18 5.44772 18.4477 5.00001 19 5.00001C19.5523 5.00001 20 5.44772 20 6.00001V18C20 18.4767 19.6635 18.8871 19.1961 18.9806C18.7287 19.0741 18.2603 18.8246 18.0769 18.3846L15 11V18C15 18.5523 14.5523 19 14 19C13.4477 19 13 18.5523 13 18V6.00001C13 5.52333 13.3365 5.11291 13.8039 5.01943Z" fill="#7B808C"/>
</svg>
