<svg width="24" height="24" viewBox="0 0 24 24" fill="none" xmlns="http://www.w3.org/2000/svg">
<path fill-rule="evenodd" clip-rule="evenodd" d="M3 5.99973C3 4.34287 4.34315 2.99973 6 2.99973H18C19.6569 2.99973 21 4.34287 21 5.99973V17.9997C21 19.6566 19.6569 20.9997 18 20.9997H6C4.34315 20.9997 3 19.6566 3 17.9997V5.99973ZM6 4.99973C5.44772 4.99973 5 5.44744 5 5.99973V17.9997C5 18.552 5.44772 18.9997 6 18.9997H18C18.5523 18.9997 19 18.552 19 17.9997V5.99973C19 5.44744 18.5523 4.99973 18 4.99973H6Z" fill="#7B808C"/>
<path fill-rule="evenodd" clip-rule="evenodd" d="M6.5 7.99973C6.5 7.44744 6.94772 6.99973 7.5 6.99973H10.5C11.0523 6.99973 11.5 7.44744 11.5 7.99973C11.5 8.55201 11.0523 8.99973 10.5 8.99973H10V15.9997C10 16.552 9.55228 16.9997 9 16.9997C8.44772 16.9997 8 16.552 8 15.9997V8.99973H7.5C6.94772 8.99973 6.5 8.55201 6.5 7.99973Z" fill="#7B808C"/>
<path fill-rule="evenodd" clip-rule="evenodd" d="M12.5 15.9997C12.5 16.552 12.9477 16.9997 13.5 16.9997H16.5C17.0523 16.9997 17.5 16.552 17.5 15.9997C17.5 15.4474 17.0523 14.9997 16.5 14.9997H16V7.99973C16 7.44744 15.5523 6.99973 15 6.99973C14.4477 6.99973 14 7.44744 14 7.99973V14.9997H13.5C12.9477 14.9997 12.5 15.4474 12.5 15.9997Z" fill="#7B808C"/>
</svg>
