<svg width="24" height="24" viewBox="0 0 24 24" fill="none" xmlns="http://www.w3.org/2000/svg">
<path fill-rule="evenodd" clip-rule="evenodd" d="M6 4.99973C5.44772 4.99973 5 5.44744 5 5.99973V17.9997C5 18.552 5.44772 18.9997 6 18.9997H8V4.99973H6ZM10 4.99973V18.9997H14V4.99973H10ZM16 4.99973V18.9997H18C18.5523 18.9997 19 18.552 19 17.9997V5.99973C19 5.44744 18.5523 4.99973 18 4.99973H16ZM3 5.99973C3 4.34287 4.34315 2.99973 6 2.99973H18C19.6569 2.99973 21 4.34287 21 5.99973V17.9997C21 19.6566 19.6569 20.9997 18 20.9997H6C4.34315 20.9997 3 19.6566 3 17.9997V5.99973Z" fill="#7B808C"/>
</svg>
