<svg width="24" height="24" viewBox="0 0 24 24" fill="none" xmlns="http://www.w3.org/2000/svg">
<path fill-rule="evenodd" clip-rule="evenodd" d="M19.7071 4.29265C20.0976 4.68317 20.0976 5.31634 19.7071 5.70686L5.70711 19.7069C5.31658 20.0974 4.68342 20.0974 4.29289 19.7069C3.90237 19.3163 3.90237 18.6832 4.29289 18.2926L18.2929 4.29265C18.6834 3.90212 19.3166 3.90212 19.7071 4.29265Z" fill="#7B808C"/>
<path fill-rule="evenodd" clip-rule="evenodd" d="M6.5 4.99976C5.67157 4.99976 5 5.67133 5 6.49976C5 7.32818 5.67157 7.99976 6.5 7.99976C7.32843 7.99976 8 7.32818 8 6.49976C8 5.67133 7.32843 4.99976 6.5 4.99976ZM3 6.49976C3 4.56676 4.567 2.99976 6.5 2.99976C8.433 2.99976 10 4.56676 10 6.49976C10 8.43275 8.433 9.99976 6.5 9.99976C4.567 9.99976 3 8.43275 3 6.49976Z" fill="#7B808C"/>
<path fill-rule="evenodd" clip-rule="evenodd" d="M17.5 15.9998C16.6716 15.9998 16 16.6713 16 17.4998C16 18.3282 16.6716 18.9998 17.5 18.9998C18.3284 18.9998 19 18.3282 19 17.4998C19 16.6713 18.3284 15.9998 17.5 15.9998ZM14 17.4998C14 15.5668 15.567 13.9998 17.5 13.9998C19.433 13.9998 21 15.5668 21 17.4998C21 19.4328 19.433 20.9998 17.5 20.9998C15.567 20.9998 14 19.4328 14 17.4998Z" fill="#7B808C"/>
</svg>
