<svg width="24" height="24" viewBox="0 0 24 24" fill="none" xmlns="http://www.w3.org/2000/svg">
<path fill-rule="evenodd" clip-rule="evenodd" d="M17.6019 4.49741C17.2633 4.79836 17 5.27136 17 6V14.1838C17.3079 14.0779 17.648 14 18 14C18.7421 14 19.4314 14.3464 19.8775 14.5706L19.9472 14.6056C20.5053 14.8846 20.782 15 21 15C21.5523 15 22 15.4477 22 16C22 16.5523 21.5523 17 21 17C20.2579 17 19.5686 16.6536 19.1225 16.4294L19.0528 16.3944C18.4947 16.1154 18.218 16 18 16C17.782 16 17.5053 16.1154 16.9472 16.3944L16.8775 16.4294C16.4314 16.6536 15.7421 17 15 17C14.2579 17 13.5686 16.6536 13.1225 16.4294L13.0528 16.3944C12.4947 16.1154 12.218 16 12 16C11.782 16 11.5053 16.1154 10.9472 16.3944L10.8775 16.4294C10.4314 16.6536 9.74214 17 9 17C8.25786 17 7.56862 16.6536 7.12253 16.4294L7.05279 16.3944C6.49474 16.1154 6.21801 16 6 16C5.78199 16 5.50526 16.1154 4.94721 16.3944L4.87747 16.4294C4.43138 16.6536 3.74214 17 3 17C2.44772 17 2 16.5523 2 16C2 15.4477 2.44772 15 3 15C3.21801 15 3.49474 14.8846 4.05279 14.6056L4.12253 14.5706C4.56862 14.3464 5.25786 14 6 14C6.352 14 6.6921 14.0779 7 14.1838V6C7 4.72864 7.4867 3.70164 8.27314 3.00259C9.04117 2.3199 10.0369 2 11 2C11.5523 2 12 2.44772 12 3C12 3.55228 11.5523 4 11 4C10.4631 4 9.95883 4.1801 9.60186 4.49741C9.2633 4.79836 9 5.27136 9 6H15C15 4.72864 15.4867 3.70164 16.2731 3.00259C17.0412 2.3199 18.0369 2 19 2C19.5523 2 20 2.44772 20 3C20 3.55228 19.5523 4 19 4C18.4631 4 17.9588 4.1801 17.6019 4.49741ZM15 8H9V10H15V8ZM9 15V12H15V15C14.782 15 14.5053 14.8846 13.9472 14.6056L13.8775 14.5706C13.4314 14.3464 12.7421 14 12 14C11.2579 14 10.5686 14.3464 10.1225 14.5706L10.0528 14.6056C9.49474 14.8846 9.21801 15 9 15ZM21 21C21.5523 21 22 20.5523 22 20C22 19.4477 21.5523 19 21 19C20.782 19 20.5053 18.8846 19.9472 18.6056L19.8775 18.5706C19.4314 18.3464 18.7421 18 18 18C17.2579 18 16.5686 18.3464 16.1225 18.5706L16.0528 18.6056C15.4947 18.8846 15.218 19 15 19C14.782 19 14.5053 18.8846 13.9472 18.6056L13.8775 18.5706C13.4314 18.3464 12.7421 18 12 18C11.2579 18 10.5686 18.3464 10.1225 18.5706L10.0528 18.6056C9.49474 18.8846 9.21801 19 9 19C8.78199 19 8.50526 18.8846 7.94721 18.6056L7.87747 18.5706C7.43138 18.3464 6.74214 18 6 18C5.25786 18 4.56862 18.3464 4.12253 18.5706L4.05279 18.6056C3.49474 18.8846 3.21801 19 3 19C2.44772 19 2 19.4477 2 20C2 20.5523 2.44772 21 3 21C3.74213 21 4.43137 20.6536 4.87746 20.4294L4.87747 20.4294L4.94721 20.3944C5.50526 20.1154 5.78199 20 6 20C6.21801 20 6.49474 20.1154 7.05279 20.3944L7.12253 20.4294C7.56862 20.6536 8.25786 21 9 21C9.74214 21 10.4314 20.6536 10.8775 20.4294L10.9472 20.3944C11.5053 20.1154 11.782 20 12 20C12.218 20 12.4947 20.1154 13.0528 20.3944L13.1225 20.4294C13.5686 20.6536 14.2579 21 15 21C15.7421 21 16.4314 20.6536 16.8775 20.4294L16.9472 20.3944C17.5053 20.1154 17.782 20 18 20C18.218 20 18.4947 20.1154 19.0528 20.3944L19.1225 20.4294C19.5686 20.6536 20.2579 21 21 21Z" fill="#7B808C"/>
</svg>
