<svg width="24" height="24" viewBox="0 0 24 24" fill="none" xmlns="http://www.w3.org/2000/svg">
<path fill-rule="evenodd" clip-rule="evenodd" d="M12 2C12.5523 2 13 2.44772 13 3V10C13 10.5523 12.5523 11 12 11C11.4477 11 11 10.5523 11 10V3C11 2.44772 11.4477 2 12 2ZM7.85763 3.94551C8.16332 4.40547 8.03826 5.02616 7.5783 5.33186C5.41944 6.76665 4 9.21778 4 12C4 16.4183 7.58172 20 12 20C16.4183 20 20 16.4183 20 12C20 9.21778 18.5806 6.76665 16.4217 5.33186C15.9617 5.02616 15.8367 4.40547 16.1424 3.94551C16.4481 3.48554 17.0688 3.36048 17.5287 3.66617C20.2216 5.45588 22 8.52004 22 12C22 17.5228 17.5228 22 12 22C6.47715 22 2 17.5228 2 12C2 8.52004 3.77839 5.45588 6.47128 3.66617C6.93124 3.36048 7.55193 3.48554 7.85763 3.94551Z" fill="#7B808C"/>
</svg>
