<svg width="24" height="24" viewBox="0 0 24 24" fill="none" xmlns="http://www.w3.org/2000/svg">
<path fill-rule="evenodd" clip-rule="evenodd" d="M4.78947 4.96703C5.26316 4.34066 5.92105 3.81319 6.76316 3.38462L5.97368 2C4.71053 2.59341 3.72807 3.38461 3.02632 4.37363C2.34211 5.36264 2 6.49176 2 7.76099C2 8.78297 2.22807 9.58242 2.68421 10.1593C3.15789 10.7198 3.7807 11 4.55263 11C5.16667 11 5.66667 10.8104 6.05263 10.4313C6.4386 10.0522 6.63158 9.54945 6.63158 8.92308C6.63158 8.36264 6.44737 7.90934 6.07895 7.56319C5.71053 7.20055 5.22807 7.01923 4.63158 7.01923C4.4386 7.01923 4.22807 7.06044 4 7.14286C4.05263 6.3022 4.31579 5.57692 4.78947 4.96703ZM11.0263 4.96703C11.5 4.34066 12.1579 3.81319 13 3.38462L12.2105 2C10.9474 2.59341 9.96491 3.38461 9.26316 4.37363C8.57895 5.36264 8.23684 6.49176 8.23684 7.76099C8.23684 8.78297 8.46491 9.58242 8.92105 10.1593C9.39474 10.7198 10.0175 11 10.7895 11C11.4035 11 11.9035 10.8104 12.2895 10.4313C12.6754 10.0522 12.8684 9.54945 12.8684 8.92308C12.8684 8.36264 12.6842 7.90934 12.3158 7.56319C11.9474 7.20055 11.4649 7.01923 10.8684 7.01923C10.6754 7.01923 10.4649 7.06044 10.2368 7.14286C10.2895 6.3022 10.5526 5.57692 11.0263 4.96703ZM19.2105 19.033C18.7368 19.6593 18.0789 20.1868 17.2368 20.6154L18.0263 22C19.2895 21.4066 20.2719 20.6154 20.9737 19.6264C21.6579 18.6374 22 17.5082 22 16.239C22 15.217 21.7719 14.4176 21.3158 13.8407C20.8421 13.2802 20.2193 13 19.4474 13C18.8333 13 18.3333 13.1896 17.9474 13.5687C17.5614 13.9478 17.3684 14.4505 17.3684 15.0769C17.3684 15.6374 17.5526 16.0907 17.9211 16.4368C18.2895 16.7994 18.7719 16.9808 19.3684 16.9808C19.5614 16.9808 19.7719 16.9396 20 16.8571C19.9474 17.6978 19.6842 18.4231 19.2105 19.033ZM12.9737 19.033C12.5 19.6593 11.8421 20.1868 11 20.6154L11.7895 22C13.0526 21.4066 14.0351 20.6154 14.7368 19.6264C15.4211 18.6374 15.7632 17.5082 15.7632 16.239C15.7632 15.217 15.5351 14.4176 15.0789 13.8407C14.6053 13.2802 13.9825 13 13.2105 13C12.5965 13 12.0965 13.1896 11.7105 13.5687C11.3246 13.9478 11.1316 14.4505 11.1316 15.0769C11.1316 15.6374 11.3158 16.0907 11.6842 16.4368C12.0526 16.7994 12.5351 16.9808 13.1316 16.9808C13.3246 16.9808 13.5351 16.9396 13.7632 16.8571C13.7105 17.6978 13.4474 18.4231 12.9737 19.033Z" fill="#7B808C"/>
</svg>
