<svg width="24" height="24" viewBox="0 0 24 24" fill="none" xmlns="http://www.w3.org/2000/svg">
<path fill-rule="evenodd" clip-rule="evenodd" d="M4 13.9997C4.55228 13.9997 5 14.4474 5 14.9997V17.9997C5 18.5519 5.44772 18.9997 6 18.9997H18C18.5523 18.9997 19 18.5519 19 17.9997V14.9997C19 14.4474 19.4477 13.9997 20 13.9997C20.5523 13.9997 21 14.4474 21 14.9997V17.9997C21 19.6565 19.6569 20.9997 18 20.9997H6C4.34315 20.9997 3 19.6565 3 17.9997V14.9997C3 14.4474 3.44772 13.9997 4 13.9997Z" fill="#7B808C"/>
<path fill-rule="evenodd" clip-rule="evenodd" d="M18.9154 9.59735C19.075 9.96035 19.0051 10.3834 18.7371 10.6757L13.2369 16.6757C13.0474 16.8824 12.78 17 12.4997 17C12.2194 17 11.952 16.8823 11.7626 16.6757L6.26283 10.6757C5.99487 10.3834 5.92497 9.96031 6.08466 9.59732C6.24434 9.23433 6.60344 9 7 9H9.0095C9.01398 8.60062 9.01449 8.22605 8.99373 7.85229C8.95768 7.20344 8.85994 6.70582 8.66807 6.32207C8.35592 5.69776 7.59468 4.99984 5.00006 5C4.59562 5.00002 4.23098 4.75642 4.07617 4.38279C3.92135 4.00915 4.00684 3.57904 4.29278 3.29301L5 4C4.29278 3.29301 4.29383 3.29196 4.29383 3.29196L4.2949 3.29089L4.29712 3.28869L4.30188 3.28401L4.31263 3.27363C4.32035 3.26626 4.32919 3.25801 4.33917 3.24893C4.35913 3.23078 4.38366 3.20936 4.413 3.18519C4.4717 3.13682 4.54949 3.07762 4.6483 3.01173C4.84628 2.8797 5.12644 2.72227 5.5035 2.5714C6.25941 2.26893 7.38724 1.99966 9 1.99966C10.5789 1.99966 12.3868 2.25561 13.7894 3.50245C15.0558 4.62824 15.8192 6.40279 15.9717 9H18C18.3966 9 18.7557 9.23434 18.9154 9.59735ZM9.22331 4.00175C9.75952 4.37297 10.1671 4.84796 10.4569 5.42767C10.8276 6.16896 10.9486 6.98391 10.9906 7.74136C11.0196 8.26226 11.0124 8.8285 11.0056 9.35919C11.0028 9.58097 11 9.79654 11 10C11 10.5523 10.5523 11 10 11H9.27316L12.4998 14.5201L15.7267 11H15C14.4477 11 14 10.5523 14 10C14 7.1491 13.2878 5.73259 12.4606 4.99721C11.658 4.28369 10.5461 4.02689 9.22331 4.00175Z" fill="#7B808C"/>
</svg>
