<svg width="24" height="24" viewBox="0 0 24 24" fill="none" xmlns="http://www.w3.org/2000/svg">
<path fill-rule="evenodd" clip-rule="evenodd" d="M15.9306 5.643C14.5027 4.98473 12.8948 4.82636 11.3659 5.19342C9.83699 5.56047 8.4762 6.43157 7.50278 7.66635C6.73752 8.63708 6.2467 9.78814 6.07179 11H10C10.5523 11 11 11.4477 11 12C11 12.5523 10.5523 13 10 13H4C3.44772 13 3 12.5523 3 12V5.00001C3 4.44772 3.44772 4.00001 4 4.00001C4.55228 4.00001 5 4.44772 5 5.00001V7.87687C5.26218 7.36816 5.57375 6.88278 5.93215 6.42816C7.18369 4.84059 8.93328 3.7206 10.899 3.24868C12.8647 2.77675 14.9321 2.98037 16.7679 3.82672C18.6038 4.67307 20.1013 6.11286 21.0191 7.91409C21.9368 9.71532 22.2215 11.7731 21.8271 13.7558C21.4327 15.7385 20.3822 17.5308 18.845 18.8437C17.3078 20.1566 15.3734 20.9137 13.3533 20.9931C11.3333 21.0724 9.34542 20.4694 7.70994 19.2812C7.26313 18.9565 7.16408 18.3312 7.4887 17.8844C7.81333 17.4376 8.4387 17.3385 8.8855 17.6631C10.1575 18.5873 11.7037 19.0563 13.2748 18.9946C14.8459 18.9329 16.3505 18.344 17.5461 17.3228C18.7417 16.3017 19.5588 14.9078 19.8655 13.3656C20.1722 11.8235 19.9509 10.223 19.237 8.82207C18.5232 7.42111 17.3585 6.30128 15.9306 5.643Z" fill="#7B808C"/>
</svg>
