<svg width="24" height="24" viewBox="0 0 24 24" fill="none" xmlns="http://www.w3.org/2000/svg">
<path fill-rule="evenodd" clip-rule="evenodd" d="M10.5 4.99973C7.46243 4.99973 5 7.46216 5 10.4997C5 13.5373 7.46243 15.9997 10.5 15.9997C13.5376 15.9997 16 13.5373 16 10.4997C16 7.46216 13.5376 4.99973 10.5 4.99973ZM3 10.4997C3 6.35759 6.35786 2.99973 10.5 2.99973C14.6421 2.99973 18 6.35759 18 10.4997C18 12.5127 17.207 14.3404 15.9163 15.6875C16.3072 15.406 16.8555 15.441 17.2071 15.7926L21.7071 20.2926C22.0976 20.6831 22.0976 21.3163 21.7071 21.7068C21.3166 22.0974 20.6834 22.0974 20.2929 21.7068L15.7929 17.2068C15.4413 16.8552 15.4062 16.3069 15.6878 15.9161C14.3407 17.2067 12.5129 17.9997 10.5 17.9997C6.35786 17.9997 3 14.6419 3 10.4997Z" fill="#7B808C"/>
</svg>
