<svg width="24" height="24" viewBox="0 0 24 24" fill="none" xmlns="http://www.w3.org/2000/svg">
<path fill-rule="evenodd" clip-rule="evenodd" d="M14.5974 2.08436C14.9604 1.92468 15.3835 1.9946 15.6758 2.26258L21.6758 7.76285C21.8824 7.95227 22 8.21971 22 8.50001C22 8.78032 21.8824 9.04776 21.6757 9.23716L15.6757 14.7369C15.3834 15.0048 14.9604 15.0747 14.5974 14.9151C14.2344 14.7554 14 14.3963 14 13.9997V12.0849C11.7653 12.4639 9.69498 14.0772 8.94872 16.3159C8.81007 16.7319 8.41665 17.009 7.97832 16.9995C7.53998 16.99 7.15897 16.696 7.03851 16.2744C5.93865 12.4251 7.03623 9.54927 8.9179 7.66761C10.4117 6.17379 12.372 5.33256 14 5.0809V2.99972C14 2.60314 14.2344 2.24404 14.5974 2.08436ZM16 5.27303V5.99971C16 6.552 15.5523 6.99971 15 6.99971C13.7598 6.99971 11.7658 7.64816 10.3321 9.08182C9.40919 10.0047 8.69823 11.2715 8.60938 12.9652C10.2154 11.113 12.6053 9.99971 15 9.99971C15.5523 9.99971 16 10.4474 16 10.9997V11.7266L19.5201 8.49995L16 5.27303Z" fill="#7B808C"/>
<path fill-rule="evenodd" clip-rule="evenodd" d="M3 5.99972C3 4.34286 4.34315 2.99972 6 2.99972H7C7.55228 2.99972 8 3.44743 8 3.99972C8 4.552 7.55228 4.99972 7 4.99972H6C5.44772 4.99972 5 5.44743 5 5.99972V17.9997C5 18.552 5.44772 18.9997 6 18.9997H18C18.5523 18.9997 19 18.552 19 17.9997V16.9997C19 16.4474 19.4477 15.9997 20 15.9997C20.5523 15.9997 21 16.4474 21 16.9997V17.9997C21 19.6566 19.6569 20.9997 18 20.9997H6C4.34315 20.9997 3 19.6566 3 17.9997V5.99972Z" fill="#7B808C"/>
</svg>
