<svg width="24" height="24" viewBox="0 0 24 24" fill="none" xmlns="http://www.w3.org/2000/svg">
<path fill-rule="evenodd" clip-rule="evenodd" d="M9.70267 6.4553C9.93445 6.35915 10.1274 6.1815 10.2206 5.94852L10.7487 4.62833C10.9005 4.24868 11.2682 3.99973 11.6771 3.99973H12.3231C12.732 3.99973 13.0997 4.24868 13.2516 4.62833L13.7796 5.9485C13.8728 6.18149 14.0658 6.35916 14.2976 6.45531C14.5295 6.55153 14.7897 6.56149 15.0205 6.46256L16.3275 5.90246C16.7033 5.74138 17.1393 5.82536 17.4285 6.1145L17.8852 6.57124C18.1744 6.86038 18.2583 7.29643 18.0973 7.67227L17.5372 8.979C17.4383 9.20989 17.4482 9.47018 17.5445 9.70221C17.6407 9.93406 17.8184 10.1271 18.0514 10.2203L19.3714 10.7483C19.751 10.9001 20 11.2678 20 11.6768V12.3227C20 12.7316 19.751 13.0993 19.3714 13.2512L18.0514 13.7792C17.8184 13.8724 17.6407 14.0654 17.5445 14.2972C17.4483 14.5292 17.4383 14.7894 17.5373 15.0202L18.0974 16.3271C18.2584 16.7029 18.1745 17.139 17.8853 17.4281L17.4286 17.8849C17.1394 18.174 16.7034 18.258 16.3275 18.0969L15.0208 17.5369C14.7899 17.4379 14.5296 17.4479 14.2976 17.5441C14.0658 17.6403 13.8728 17.818 13.7796 18.051L13.2516 19.3711C13.0997 19.7508 12.732 19.9997 12.3231 19.9997H11.6771C11.2682 19.9997 10.9005 19.7508 10.7487 19.3711L10.2206 18.051C10.1274 17.818 9.93442 17.6403 9.7026 17.5441C9.47061 17.4479 9.21037 17.4379 8.97951 17.5369L7.67254 18.097C7.2967 18.2581 6.86066 18.1741 6.57152 17.885L6.11477 17.4282C5.82563 17.1391 5.74166 16.703 5.90274 16.3272L6.46294 15.02C6.56184 14.7893 6.5519 14.5291 6.45569 14.2972C6.35955 14.0654 6.18191 13.8725 5.94896 13.7793L4.62861 13.2512C4.24895 13.0993 4 12.7316 4 12.3227V11.6768C4 11.2678 4.24895 10.9001 4.62861 10.7483L5.9489 10.2202C6.1819 10.127 6.35956 9.934 6.45572 9.70221C6.55195 9.47025 6.5619 9.21003 6.46297 8.97921L5.90282 7.67218C5.74175 7.29634 5.82572 6.8603 6.11486 6.57116L6.5716 6.11441C6.86074 5.82527 7.29679 5.7413 7.67263 5.90237L8.97972 6.46256C9.21053 6.56147 9.47072 6.55152 9.70267 6.4553ZM11.6771 1.99973H12.3231C13.5498 1.99973 14.6529 2.74658 15.1085 3.88555L15.2326 4.19576L15.5396 4.06417C16.6671 3.58094 17.9753 3.83287 18.8427 4.70028L19.2994 5.15703C20.1669 6.02445 20.4188 7.33258 19.9356 8.46011L19.8039 8.76723L20.1142 8.89132C21.2531 9.34691 22 10.45 22 11.6768V12.3227C22 13.5494 21.2531 14.6525 20.1142 15.1081L19.804 15.2322L19.9356 15.5393C20.4189 16.6668 20.1669 17.9749 19.2995 18.8423L18.8428 19.2991C17.9754 20.1665 16.6672 20.4184 15.5397 19.9352L15.2326 19.8036L15.1085 20.1139C14.6529 21.2529 13.5498 21.9997 12.3231 21.9997H11.6771C10.4504 21.9997 9.3473 21.2529 8.89171 20.1139L8.7676 19.8036L8.46038 19.9353C7.33286 20.4185 6.02472 20.1666 5.1573 19.2992L4.70056 18.8424C3.83314 17.975 3.58122 16.6669 4.06445 15.5393L4.19607 15.2322L3.88583 15.1081C2.74685 14.6525 2 13.5494 2 12.3227V11.6768C2 10.45 2.74685 9.34691 3.88583 8.89132L4.19617 8.76719L4.06453 8.46002C3.5813 7.33249 3.83323 6.02436 4.70065 5.15694L5.15739 4.7002C6.02481 3.83278 7.33294 3.58086 8.46047 4.06408L8.76764 4.19573L8.89171 3.88555C9.3473 2.74658 10.4504 1.99973 11.6771 1.99973ZM12.0001 13.9997C13.1047 13.9997 14.0001 13.1043 14.0001 11.9997C14.0001 10.8952 13.1047 9.99973 12.0001 9.99973C10.8955 9.99973 10.0001 10.8952 10.0001 11.9997C10.0001 13.1043 10.8955 13.9997 12.0001 13.9997ZM16.0001 11.9997C16.0001 14.2089 14.2092 15.9997 12.0001 15.9997C9.79097 15.9997 8.00011 14.2089 8.00011 11.9997C8.00011 9.79059 9.79097 7.99973 12.0001 7.99973C14.2092 7.99973 16.0001 9.79059 16.0001 11.9997Z" fill="#7B808C"/>
</svg>
