<svg width="24" height="24" viewBox="0 0 24 24" fill="none" xmlns="http://www.w3.org/2000/svg">
<path fill-rule="evenodd" clip-rule="evenodd" d="M20 6C20 8.20914 18.2091 10 16 10C14.7961 10 13.7164 9.46811 12.983 8.62649L9.91207 10.162C9.96968 10.4322 10 10.7126 10 11C10 11.3945 9.94289 11.7757 9.83648 12.1357L13.1934 14.1499C13.9155 13.4388 14.9065 13 16 13C18.2091 13 20 14.7909 20 17C20 19.2091 18.2091 21 16 21C13.7909 21 12 19.2091 12 17C12 16.6055 12.0571 16.2243 12.1635 15.8643L8.80656 13.8501C8.08449 14.5612 7.09349 15 6 15C3.79086 15 2 13.2091 2 11C2 8.79086 3.79086 7 6 7C7.20392 7 8.28362 7.53188 9.01693 8.37348L12.0879 6.83798C12.0303 6.56775 12 6.28741 12 6C12 3.79086 13.7909 2 16 2C18.2091 2 20 3.79086 20 6ZM18 6C18 7.10457 17.1046 8 16 8C14.8954 8 14 7.10457 14 6C14 4.89543 14.8954 4 16 4C17.1046 4 18 4.89543 18 6ZM18 17C18 18.1046 17.1046 19 16 19C14.8954 19 14 18.1046 14 17C14 15.8954 14.8954 15 16 15C17.1046 15 18 15.8954 18 17ZM8 11C8 12.1046 7.10457 13 6 13C4.89543 13 4 12.1046 4 11C4 9.89543 4.89543 9 6 9C7.10457 9 8 9.89543 8 11Z" fill="#7B808C"/>
</svg>
