<svg width="24" height="24" viewBox="0 0 24 24" fill="none" xmlns="http://www.w3.org/2000/svg">
<path fill-rule="evenodd" clip-rule="evenodd" d="M12 3C12.3806 3 12.7282 3.2161 12.8967 3.55743L15.3091 8.44542L20.7033 9.22924C21.08 9.28398 21.3929 9.54782 21.5105 9.90983C21.6282 10.2718 21.5301 10.6692 21.2575 10.9349L17.3542 14.7397L18.2756 20.1121C18.34 20.4873 18.1858 20.8664 17.8778 21.0902C17.5699 21.3139 17.1616 21.3434 16.8247 21.1663L12 18.6298L7.17524 21.1663C6.83832 21.3434 6.43006 21.3139 6.12211 21.0902C5.81417 20.8664 5.65995 20.4873 5.72429 20.1121L6.64573 14.7397L2.74245 10.9349C2.46987 10.6692 2.37178 10.2718 2.4894 9.90983C2.60703 9.54782 2.91997 9.28398 3.29666 9.22924L8.69087 8.44542L11.1032 3.55743C11.2717 3.2161 11.6193 3 12 3ZM12 6.25955L10.2517 9.80199C10.106 10.0971 9.82444 10.3017 9.49873 10.349L5.58942 10.9171L8.41822 13.6745C8.65391 13.9042 8.76146 14.2352 8.70582 14.5596L8.03803 18.4531L11.5346 16.6149C11.826 16.4617 12.174 16.4617 12.4653 16.6149L15.9619 18.4531L15.2941 14.5596C15.2385 14.2352 15.346 13.9042 15.5817 13.6745L18.4105 10.9171L14.5012 10.349C14.1755 10.3017 13.8939 10.0971 13.7483 9.80199L12 6.25955Z" fill="#7B808C"/>
</svg>
