<svg width="24" height="24" viewBox="0 0 24 24" fill="none" xmlns="http://www.w3.org/2000/svg">
<path fill-rule="evenodd" clip-rule="evenodd" d="M16 5.99973C15.4477 5.99973 15 5.55201 15 4.99973C15 4.44744 15.4477 3.99973 16 3.99973H21C21.5523 3.99973 22 4.44744 22 4.99973V9.99973C22 10.552 21.5523 10.9997 21 10.9997C20.4477 10.9997 20 10.552 20 9.99973V7.41394L15.3415 12.0724C14.3473 13.0666 12.7959 13.237 11.6096 12.4821L8.81665 10.7047C8.42122 10.4531 7.90408 10.5099 7.57266 10.8413L3.70711 14.7068C3.31658 15.0974 2.68342 15.0974 2.29289 14.7068C1.90237 14.3163 1.90237 13.6831 2.29289 13.2926L6.15845 9.42706C7.15271 8.4328 8.70413 8.2625 9.8904 9.0174L12.6834 10.7947C13.0788 11.0464 13.5959 10.9896 13.9273 10.6582L18.5858 5.99973H16ZM21 19.9997H3C2.44772 19.9997 2 19.552 2 18.9997C2 18.4474 2.44772 17.9997 3 17.9997H21C21.5523 17.9997 22 18.4474 22 18.9997C22 19.552 21.5523 19.9997 21 19.9997Z" fill="#7B808C"/>
</svg>
