<svg width="24" height="24" viewBox="0 0 24 24" fill="none" xmlns="http://www.w3.org/2000/svg">
<path fill-rule="evenodd" clip-rule="evenodd" d="M7.29289 3.29289C7.68342 2.90237 8.31658 2.90237 8.70711 3.29289L11.7071 6.29289C12.0976 6.68342 12.0976 7.31658 11.7071 7.70711C11.3166 8.09763 10.6834 8.09763 10.2929 7.70711L9 6.41421V20C9 20.5523 8.55228 21 8 21C7.44772 21 7 20.5523 7 20V6.41421L5.70711 7.70711C5.31658 8.09763 4.68342 8.09763 4.29289 7.70711C3.90237 7.31658 3.90237 6.68342 4.29289 6.29289L7.29289 3.29289Z" fill="#7B808C"/>
<path fill-rule="evenodd" clip-rule="evenodd" d="M16.7071 20.7071C16.3166 21.0976 15.6834 21.0976 15.2929 20.7071L12.2929 17.7071C11.9024 17.3166 11.9024 16.6834 12.2929 16.2929C12.6834 15.9024 13.3166 15.9024 13.7071 16.2929L15 17.5858V4C15 3.44772 15.4477 3 16 3C16.5523 3 17 3.44772 17 4V17.5858L18.2929 16.2929C18.6834 15.9024 19.3166 15.9024 19.7071 16.2929C20.0976 16.6834 20.0976 17.3166 19.7071 17.7071L16.7071 20.7071Z" fill="#7B808C"/>
</svg>
