<svg viewBox="0 0 24 24" fill="none" xmlns="http://www.w3.org/2000/svg">
<path d="M12 0C7.03812 0 2.76581 3.01879 0.942909 7.32692C0.893113 7.43898 0.866141 7.55983 0.863567 7.68243C0.860992 7.80502 0.882867 7.9269 0.927915 8.04095C0.972962 8.155 1.04028 8.25893 1.12594 8.34668C1.21159 8.43442 1.31387 8.50422 1.4268 8.55201C1.53973 8.59979 1.66105 8.62459 1.78367 8.62498C1.90629 8.62536 2.02776 8.6013 2.14098 8.55422C2.25421 8.50714 2.35692 8.43798 2.44311 8.35076C2.52931 8.26355 2.59727 8.16004 2.64303 8.04627C4.18382 4.40486 7.78649 1.84615 12 1.84615C14.4859 1.84615 16.7523 2.73432 18.5174 4.21334C18.6104 4.29127 18.7177 4.35013 18.8334 4.38656C18.9491 4.42299 19.0708 4.43628 19.1916 4.42566C19.3124 4.41504 19.4299 4.38073 19.5375 4.32468C19.645 4.26863 19.7405 4.19195 19.8184 4.09901C19.8963 4.00606 19.9551 3.89868 19.9915 3.783C20.0279 3.66732 20.0412 3.5456 20.0305 3.42479C20.0199 3.30398 19.9855 3.18646 19.9295 3.07893C19.8734 2.97139 19.7967 2.87596 19.7037 2.79808C17.6197 1.05187 14.9271 0 12 0ZM12 3.69231C11.0316 3.69231 10.0979 3.85796 9.23077 4.16466C9.11639 4.20513 9.01111 4.26774 8.92093 4.3489C8.83076 4.43006 8.75745 4.52819 8.7052 4.63769C8.65295 4.74719 8.62279 4.8659 8.61642 4.98706C8.61006 5.10821 8.62762 5.22944 8.66811 5.34381C8.7086 5.45817 8.77123 5.56344 8.8524 5.65361C8.93358 5.74377 9.03173 5.81706 9.14123 5.86929C9.25074 5.92152 9.36946 5.95166 9.49062 5.95801C9.61178 5.96435 9.733 5.94676 9.84736 5.90625C10.52 5.66834 11.2422 5.53846 12 5.53846C15.5792 5.53846 18.4615 8.42078 18.4615 12C18.4615 14.7242 17.5493 20.9261 17.5493 20.9261C17.5261 21.0481 17.5279 21.1736 17.5543 21.2949C17.5808 21.4163 17.6315 21.531 17.7034 21.6323C17.7753 21.7336 17.8669 21.8194 17.9727 21.8844C18.0785 21.9495 18.1963 21.9925 18.3192 22.011C18.442 22.0294 18.5673 22.0229 18.6875 21.9918C18.8078 21.9607 18.9205 21.9056 19.019 21.8299C19.1175 21.7542 19.1996 21.6594 19.2606 21.5512C19.3216 21.443 19.3601 21.3236 19.3738 21.2001C19.3738 21.2001 20.3077 15.1134 20.3077 12C20.3077 7.42291 16.5771 3.69231 12 3.69231ZM21.6959 5.74579C21.5359 5.74852 21.3794 5.79279 21.2417 5.87425C21.104 5.95571 20.9898 6.07157 20.9103 6.21047C20.8309 6.34936 20.7889 6.50652 20.7885 6.66653C20.7881 6.82654 20.8293 6.98391 20.9081 7.1232C21.7018 8.57098 22.1538 10.229 22.1538 12C22.1538 13.0119 22.005 13.985 21.7284 14.9062C21.6884 15.0237 21.6724 15.1479 21.6815 15.2716C21.6906 15.3953 21.7245 15.5159 21.7812 15.6262C21.8379 15.7365 21.9163 15.8342 22.0117 15.9136C22.107 15.9929 22.2173 16.0522 22.3361 16.088C22.4549 16.1238 22.5796 16.1352 22.7029 16.1217C22.8262 16.1081 22.9455 16.0699 23.0537 16.0092C23.1619 15.9486 23.2567 15.8667 23.3326 15.7686C23.4084 15.6705 23.4637 15.5581 23.4952 15.4381C23.8223 14.3489 24 13.1942 24 12C24 9.91438 23.465 7.94717 22.527 6.23618C22.4472 6.08573 22.3273 5.96029 22.1807 5.87374C22.034 5.78719 21.8662 5.74291 21.6959 5.74579ZM6.13702 6.52644C6.00293 6.53354 5.872 6.5698 5.75336 6.6327C5.63473 6.6956 5.53124 6.78362 5.45012 6.89062C4.34992 8.29909 3.69231 10.078 3.69231 12C3.69231 16.3419 2.97296 19.1611 2.97296 19.1611C2.93939 19.2797 2.92992 19.4038 2.94509 19.5261C2.96027 19.6484 2.99979 19.7665 3.06131 19.8733C3.12284 19.9801 3.20513 20.0735 3.30334 20.148C3.40154 20.2224 3.51366 20.2765 3.6331 20.307C3.75253 20.3374 3.87686 20.3437 3.99874 20.3253C4.12062 20.307 4.2376 20.2644 4.34276 20.2001C4.44792 20.1358 4.53914 20.0511 4.61105 19.951C4.68295 19.8509 4.73408 19.7374 4.76142 19.6172C4.76142 19.6172 5.53846 16.5492 5.53846 12C5.53846 10.4974 6.04833 9.12321 6.90505 8.02644C7.01661 7.88754 7.0856 7.71933 7.10369 7.5421C7.12178 7.36487 7.0882 7.18619 7.00701 7.02761C6.92582 6.86904 6.80047 6.73734 6.6461 6.64842C6.49173 6.55949 6.31493 6.51713 6.13702 6.52644ZM12 7.38462C9.46199 7.38462 7.38462 9.46199 7.38462 12C7.38462 18.4784 6.49219 21.8654 6.49219 21.8654C6.45606 21.9843 6.4443 22.1093 6.45763 22.2328C6.47096 22.3564 6.5091 22.476 6.56976 22.5844C6.63043 22.6929 6.71236 22.788 6.81066 22.864C6.90896 22.94 7.0216 22.9955 7.14182 23.0269C7.26205 23.0584 7.38739 23.0652 7.51033 23.0471C7.63327 23.0289 7.75128 22.9861 7.85728 22.9213C7.96328 22.8564 8.0551 22.7708 8.12723 22.6696C8.19936 22.5684 8.25032 22.4537 8.27704 22.3323C8.27704 22.3323 9.23077 18.6515 9.23077 12C9.23077 10.4599 10.4599 9.23077 12 9.23077C13.5401 9.23077 14.7692 10.4599 14.7692 12C14.7692 13.1056 14.7222 14.2596 14.6502 15.3822C14.6415 15.5038 14.6569 15.6259 14.6955 15.7415C14.7342 15.8571 14.7954 15.9639 14.8755 16.0557C14.9557 16.1476 15.0532 16.2226 15.1625 16.2766C15.2719 16.3305 15.3908 16.3622 15.5124 16.37C15.6341 16.3777 15.756 16.3613 15.8713 16.3216C15.9866 16.282 16.0928 16.2199 16.184 16.139C16.2751 16.058 16.3494 15.9598 16.4024 15.8501C16.4554 15.7403 16.4861 15.6211 16.4928 15.4994C16.5666 14.3476 16.6154 13.1578 16.6154 12C16.6154 9.46199 14.538 7.38462 12 7.38462ZM0.905048 10.3161C0.67661 10.327 0.460335 10.4222 0.298123 10.5834C0.135912 10.7447 0.0393136 10.9603 0.0270433 11.1887C0.00902859 11.4569 0 11.7277 0 12C0 13.0105 0.126459 13.9912 0.36238 14.9279C0.390476 15.047 0.441982 15.1594 0.513902 15.2584C0.585821 15.3575 0.676719 15.4412 0.781305 15.5048C0.885891 15.5684 1.00208 15.6105 1.12311 15.6288C1.24414 15.6471 1.36759 15.6411 1.48628 15.6112C1.60498 15.5813 1.71655 15.5281 1.8145 15.4547C1.91245 15.3813 1.99482 15.2892 2.05683 15.1837C2.11884 15.0781 2.15925 14.9613 2.17569 14.84C2.19214 14.7187 2.18431 14.5954 2.15264 14.4772C1.95287 13.684 1.84615 12.8559 1.84615 12C1.84615 11.7683 1.85438 11.5397 1.86959 11.3131C1.88024 11.1822 1.86286 11.0506 1.81861 10.927C1.77435 10.8034 1.70424 10.6907 1.61295 10.5963C1.52167 10.502 1.4113 10.4282 1.28923 10.3798C1.16716 10.3315 1.03618 10.3098 0.905048 10.3161ZM11.9856 11.0643C11.7411 11.0681 11.5081 11.1688 11.3377 11.3442C11.1674 11.5196 11.0736 11.7555 11.0769 12C11.0769 14.51 10.9415 16.5805 10.765 18.2127C10.7496 18.3344 10.7586 18.458 10.7914 18.5762C10.8243 18.6944 10.8804 18.8048 10.9564 18.9011C11.0324 18.9974 11.1269 19.0775 11.2342 19.1369C11.3416 19.1962 11.4597 19.2336 11.5817 19.2468C11.7036 19.2599 11.827 19.2487 11.9446 19.2136C12.0621 19.1786 12.1715 19.1205 12.2664 19.0427C12.3612 18.9648 12.4396 18.8689 12.4969 18.7605C12.5543 18.652 12.5894 18.5332 12.6004 18.4111C12.7839 16.7129 12.9231 14.5761 12.9231 12C12.9248 11.8765 12.9017 11.7539 12.8551 11.6395C12.8086 11.5251 12.7396 11.4212 12.6521 11.334C12.5647 11.2467 12.4607 11.1779 12.3462 11.1316C12.2317 11.0852 12.1091 11.0624 11.9856 11.0643ZM15.1911 18.6779C14.9623 18.6776 14.7416 18.7623 14.5717 18.9155C14.4018 19.0688 14.2949 19.2796 14.2716 19.5072C14.0578 21.3554 13.857 22.6064 13.857 22.6064C13.8378 22.7262 13.8423 22.8486 13.8705 22.9667C13.8986 23.0847 13.9496 23.196 14.0208 23.2943C14.0919 23.3926 14.1818 23.476 14.2851 23.5395C14.3885 23.6031 14.5033 23.6457 14.6232 23.6649C14.743 23.6841 14.8654 23.6795 14.9834 23.6513C15.1015 23.6232 15.2128 23.5721 15.3111 23.5009C15.4094 23.4297 15.4927 23.3399 15.5562 23.2365C15.6198 23.1331 15.6623 23.0183 15.6815 22.8984C15.6815 22.8984 15.8889 21.6047 16.107 19.72C16.1239 19.5897 16.1128 19.4574 16.0745 19.3318C16.0362 19.2062 15.9716 19.0902 15.8849 18.9916C15.7982 18.893 15.6915 18.814 15.5719 18.7599C15.4522 18.7058 15.3224 18.6778 15.1911 18.6779ZM11.1004 21.119C10.8876 21.1188 10.6814 21.1921 10.5165 21.3265C10.3516 21.4608 10.2381 21.648 10.1953 21.8564C10.0545 22.5001 9.96454 22.7831 9.96454 22.7831C9.92782 22.8988 9.91429 23.0207 9.92475 23.1417C9.9352 23.2627 9.96942 23.3804 10.0255 23.4882C10.0815 23.5959 10.1582 23.6915 10.2513 23.7696C10.3443 23.8476 10.4519 23.9065 10.5677 23.9429C10.6836 23.9793 10.8055 23.9925 10.9265 23.9817C11.0474 23.971 11.1651 23.9364 11.2727 23.8801C11.3803 23.8237 11.4757 23.7467 11.5535 23.6535C11.6313 23.5602 11.6899 23.4525 11.726 23.3365C11.726 23.3365 11.8455 22.9496 11.9982 22.2512C12.0296 22.1159 12.0302 21.9753 11.9997 21.8398C11.9693 21.7043 11.9086 21.5774 11.8223 21.4686C11.7361 21.3597 11.6263 21.2718 11.5013 21.2113C11.3763 21.1507 11.2392 21.1192 11.1004 21.119Z" fill="#7B808C"/>
</svg>
