<svg width="24" height="24" viewBox="0 0 24 24" fill="none" xmlns="http://www.w3.org/2000/svg">
<path fill-rule="evenodd" clip-rule="evenodd" d="M7 8C7.55228 8 8 8.44772 8 9V17C8 17.5523 8.44772 18 9 18H15C15.5523 18 16 17.5523 16 17V9C16 8.44772 16.4477 8 17 8C17.5523 8 18 8.44772 18 9V17C18 18.6569 16.6569 20 15 20H9C7.34315 20 6 18.6569 6 17V9C6 8.44772 6.44772 8 7 8Z" fill="#7B808C"/>
<path fill-rule="evenodd" clip-rule="evenodd" d="M10.4721 4C10.0064 4 9.54704 4.10844 9.13047 4.31672L7.76391 5H6C5.44772 5 5 5.44772 5 6C5 6.55228 5.44772 7 6 7H7.97985C7.99376 7.00029 8.0077 7.00029 8.02164 7H15.9783C15.9923 7.00029 16.0062 7.00029 16.0201 7H18C18.5523 7 19 6.55228 19 6C19 5.44772 18.5523 5 18 5H16.236L14.8695 4.31672C14.4529 4.10844 13.9936 4 13.5278 4H10.4721Z" fill="#7B808C"/>
</svg>
