<svg width="24" height="24" viewBox="0 0 24 24" fill="none" xmlns="http://www.w3.org/2000/svg">
<path fill-rule="evenodd" clip-rule="evenodd" d="M6 3C6.55228 3 7 3.44772 7 4V10C7 12.7614 9.23858 15 12 15C14.7614 15 17 12.7614 17 10V4C17 3.44772 17.4477 3 18 3C18.5523 3 19 3.44772 19 4V10C19 13.866 15.866 17 12 17C8.13401 17 5 13.866 5 10V4C5 3.44772 5.44772 3 6 3ZM3 20C3 19.4477 3.44772 19 4 19H20C20.5523 19 21 19.4477 21 20C21 20.5523 20.5523 21 20 21H4C3.44772 21 3 20.5523 3 20Z" fill="#7B808C"/>
</svg>
