<svg width="24" height="24" viewBox="0 0 24 24" fill="none" xmlns="http://www.w3.org/2000/svg">
<path fill-rule="evenodd" clip-rule="evenodd" d="M7.9842 11.3099C7.60382 11.0248 7.29452 10.6211 7.08272 10.1768C7.02648 10.0591 6.9786 9.94209 6.93839 9.82658C6.70616 9.15954 6.82169 8.47543 7.166 7.94631C7.15173 7.74774 7.14405 7.54985 7.14382 7.35446L7.1407 6.98584C7.1367 6.6507 7.13648 6.30411 7.16023 5.99176C7.18265 5.69684 7.23622 5.25613 7.43678 4.81292C7.67511 4.28626 8.07589 3.85184 8.61958 3.58084C8.8627 3.45965 9.10442 3.38695 9.31891 3.34196C9.47684 3.10045 9.75178 2.75709 10.189 2.48854C10.7922 2.11794 11.4634 2.02479 12.0468 2.00475C12.0587 2.00434 12.0707 2.00404 12.0826 2.00384L12.3265 1.99984L12.3593 1.99957C12.8734 1.99957 13.6631 2.0426 14.4563 2.27989C15.2236 2.50947 16.3127 3.02056 16.9238 4.18714C17.2373 4.78552 17.3011 5.51576 17.0292 6.19633C17.0098 6.24493 16.9902 6.29186 16.9779 6.32155L16.9762 6.32551C16.9008 6.50657 16.8694 6.58996 16.8481 6.69177C16.8293 6.7812 16.8114 6.92405 16.8401 7.1491C16.8724 7.3931 16.8692 7.64165 16.8544 7.85261C17.1192 8.24664 17.255 8.75479 17.1565 9.37051C17.1236 9.57608 17.0687 9.78863 16.9886 10.0042C16.9082 10.2244 16.815 10.4106 16.7266 10.5621C16.5195 10.9171 16.2465 11.1559 16.0262 11.3077C15.777 11.8924 15.4423 12.4991 14.9999 12.989V13.2061C16.0835 13.4237 17.1461 13.8023 18.0936 14.2898C19.239 14.8791 20.3461 15.6949 21.0974 16.7181C21.8098 17.6884 21.762 18.8928 21.1576 19.7734C20.6105 20.5705 19.6989 20.9996 18.7775 20.9995L5.22088 20.9986C4.29953 20.9986 3.38954 20.5696 2.84233 19.7753C2.23856 18.8989 2.18443 17.6966 2.89263 16.7232C3.64468 15.6894 4.75599 14.871 5.90419 14.2823C6.85324 13.7957 7.9166 13.4198 8.99992 13.2042V12.9695C8.5643 12.4808 8.23262 11.8859 7.9842 11.3099ZM14.3479 10.1092L14.4265 9.88957C14.4528 9.81617 14.5224 9.76719 14.6003 9.76719C14.7265 9.76719 14.9355 9.66317 14.9991 9.55418C15.0131 9.53026 15.0273 9.50432 15.0415 9.47634C15.0658 9.42806 15.0899 9.3737 15.1117 9.31322C15.1476 9.21781 15.1694 9.13079 15.1816 9.05456C15.2002 8.93845 15.0963 8.85098 14.9793 8.86283C14.8455 8.87638 14.7336 8.76251 14.7494 8.62895L14.8141 8.0843C14.8334 7.94795 14.852 7.81604 14.8609 7.69383C14.8683 7.59109 14.8689 7.49521 14.8571 7.40935C14.8318 7.2137 14.8227 7.03404 14.8256 6.86883C14.8878 6.86423 14.9515 6.86278 15.0161 6.86447C14.9533 6.86258 14.8898 6.864 14.8256 6.86883C14.836 6.26229 15.0076 5.85038 15.13 5.55647C15.1431 5.52496 15.158 5.4891 15.1719 5.45444C15.2165 5.34268 15.2081 5.22185 15.1522 5.11525C14.6473 4.15143 13.2035 3.99957 12.3593 3.99957L12.1154 4.00357C11.213 4.03457 11.0733 4.28555 10.9122 4.57753C10.7789 4.81755 10.5564 5.21851 9.97105 5.26649C9.19538 5.33148 9.12448 5.62446 9.14059 6.96537L9.14382 7.34535C9.14382 7.6425 9.16716 7.96137 9.21175 8.28921C9.21202 8.29124 9.2123 8.29326 9.21257 8.29529L9.27598 8.75571C9.2949 8.89314 9.16813 9.00572 9.0339 8.97069C8.90396 8.93678 8.78304 9.04219 8.8272 9.16902C8.84338 9.2155 8.86343 9.26473 8.88813 9.31622C8.90013 9.34141 8.91243 9.36541 8.92492 9.38825C9.028 9.57678 9.14376 9.68609 9.20951 9.7274C9.23052 9.7406 9.25496 9.74618 9.27946 9.75013C9.45058 9.77776 9.59158 9.89939 9.64401 10.0646L9.64768 10.0762C9.72849 10.3036 9.81602 10.5165 9.90851 10.7121C9.9225 10.7417 9.9366 10.7709 9.95081 10.7997C10.2102 11.3252 10.5052 11.716 10.7986 11.9138C10.812 11.9228 10.8262 11.9301 10.8412 11.9361C10.9371 11.9744 10.9999 12.0673 10.9999 12.1705V13.9996C10.9999 14.5519 10.5508 14.9951 10.003 15.0653C8.30327 15.2831 6.55138 16.0236 5.3742 16.9987C5.37008 17.0021 5.36597 17.0055 5.36187 17.0089C5.31398 17.0488 5.26704 17.089 5.22112 17.1297C4.94452 17.3744 4.70434 17.6325 4.5099 17.8998C4.13841 18.4104 4.58954 18.9986 5.221 18.9986L18.7776 18.9995C19.4095 18.9995 19.8592 18.4111 19.4852 17.9017C19.2915 17.6378 19.0526 17.3822 18.7778 17.1394C18.7289 17.0962 18.6789 17.0535 18.6278 17.0111C18.6231 17.0072 18.6185 17.0034 18.6138 16.9995C17.4366 16.0293 15.6905 15.2857 13.9968 15.0661C13.4491 14.9951 12.9999 14.5519 12.9999 13.9996V12.2549C12.9999 12.0992 13.0903 11.9576 13.2315 11.8921C13.253 11.8821 13.2737 11.8704 13.2927 11.8562C13.5746 11.6448 13.8597 11.2367 14.1097 10.6958C14.1182 10.6773 14.1267 10.6587 14.1352 10.6399C14.2098 10.4743 14.281 10.2968 14.3479 10.1092Z" fill="#7B808C"/>
</svg>
