<svg width="24" height="24" viewBox="0 0 24 24" fill="none" xmlns="http://www.w3.org/2000/svg">
<path fill-rule="evenodd" clip-rule="evenodd" d="M6.52284 4.63716C7.60285 3.01525 9.36478 2 12.0001 2C14.6354 2 16.3974 3.01525 17.4774 4.63716C18.5035 6.17804 18.833 8.14922 18.9449 9.93863C19.0528 11.6642 17.6329 13 16.0001 13H15.3689C15.29 13.1185 15.2073 13.233 15.121 13.3433C17.9552 13.9872 20.3478 15.5125 21.4191 17.6232C21.8716 18.5147 21.665 19.4266 21.1253 20.0574C20.6147 20.6542 19.8218 21 19.0001 21H5.00015C4.17849 21 3.3856 20.6542 2.875 20.0574C2.33532 19.4266 2.12874 18.5147 2.58121 17.6232C3.65252 15.5125 6.04505 13.9872 8.87924 13.3433C8.79295 13.233 8.71028 13.1185 8.63135 13H8.00011C6.36734 13 4.9474 11.6642 5.05534 9.93863C5.16727 8.14922 5.49679 6.17804 6.52284 4.63716ZM16.256 10.9683C16.6914 10.8569 16.9741 10.468 16.9488 10.0635C16.8424 8.3619 16.5365 6.83256 15.8127 5.74566C15.2618 4.91835 14.4184 4.27103 13.0009 4.06729C13.0258 5.10418 13.6306 5.57204 14.5878 6.24194L14.6289 6.27071C14.9879 6.52175 15.4406 6.83824 15.7922 7.22844C16.1898 7.66972 16.5001 8.247 16.5001 9C16.5001 9.68104 16.4158 10.3449 16.256 10.9683ZM8.18754 5.74566C8.73843 4.91835 9.58186 4.27104 10.9993 4.06729C10.9687 5.25981 10.1324 7.27005 8.12875 8.07152C7.74909 8.22339 7.50014 8.5911 7.50014 9C7.50014 9.68104 7.58449 10.3449 7.74425 10.9683C7.30883 10.8569 7.02613 10.468 7.05144 10.0635C7.15788 8.3619 7.46379 6.83256 8.18754 5.74566ZM12.2129 6.90536C11.6557 7.94863 10.7827 8.95052 9.53114 9.62125C9.65289 10.8274 10.1206 11.8121 10.706 12.3954C10.8943 12.5831 11.0001 12.838 11.0001 13.1038V14.1487C11.0001 14.6432 10.6387 15.0635 10.1497 15.1374C7.27401 15.5725 5.16109 16.9592 4.36465 18.5284C4.32864 18.5994 4.33289 18.6343 4.3346 18.646C4.33723 18.6637 4.34829 18.7029 4.39471 18.7572C4.49656 18.8762 4.71724 19 5.00015 19H19.0001C19.2831 19 19.5037 18.8762 19.6056 18.7572C19.652 18.7029 19.6631 18.6637 19.6657 18.646C19.6674 18.6343 19.6717 18.5994 19.6356 18.5284C18.8392 16.9592 16.7263 15.5725 13.8506 15.1374C13.3616 15.0635 13.0001 14.6432 13.0001 14.1487V13.1038C13.0001 12.838 13.106 12.5831 13.2943 12.3954C13.9774 11.7148 14.5001 10.4877 14.5001 9C14.5001 8.85402 14.4569 8.73436 14.3063 8.56723C14.1233 8.36407 13.8546 8.16992 13.441 7.88052L13.3849 7.84124C13.0328 7.59522 12.6069 7.29754 12.2129 6.90536Z" fill="#7B808C"/>
</svg>
