<svg width="24" height="24" viewBox="0 0 24 24" fill="none" xmlns="http://www.w3.org/2000/svg">
<path fill-rule="evenodd" clip-rule="evenodd" d="M2 6.99973C2 5.34287 3.34315 3.99973 5 3.99973H18C19.6569 3.99973 21 5.34287 21 6.99973V8.76362C21.6137 9.31294 22 10.1112 22 10.9997V16.9997C22 18.6566 20.6569 19.9997 19 19.9997H5C3.34315 19.9997 2 18.6566 2 16.9997V6.99973ZM4 9.82902V16.9997C4 17.552 4.44772 17.9997 5 17.9997H19C19.5523 17.9997 20 17.552 20 16.9997V10.9997C20 10.4474 19.5523 9.99973 19 9.99973H5C4.64936 9.99973 4.31278 9.93957 4 9.82902ZM4 6.99973C4 7.55201 4.44772 7.99973 5 7.99973H19V6.99973C19 6.44744 18.5523 5.99973 18 5.99973H5C4.44772 5.99973 4 6.44744 4 6.99973Z" fill="#7B808C"/>
<path d="M18 14.4997C18 15.3282 17.3284 15.9997 16.5 15.9997C15.6716 15.9997 15 15.3282 15 14.4997C15 13.6713 15.6716 12.9997 16.5 12.9997C17.3284 12.9997 18 13.6713 18 14.4997Z" fill="#7B808C"/>
</svg>
