<svg width="16" height="16" viewBox="0 0 16 16" fill="none" xmlns="http://www.w3.org/2000/svg">
<path fill-rule="evenodd" clip-rule="evenodd" d="M1 7C1 5.34315 2.34315 4 4 4H9C10.6569 4 12 5.34315 12 7V12C12 13.6569 10.6569 15 9 15H4C2.34315 15 1 13.6569 1 12V7ZM4 6C3.44772 6 3 6.44772 3 7V12C3 12.5523 3.44772 13 4 13H9C9.55228 13 10 12.5523 10 12V7C10 6.44772 9.55228 6 9 6H4Z" fill="#7B808C"/>
<path fill-rule="evenodd" clip-rule="evenodd" d="M12 3H6C5.44772 3 5 2.55228 5 2C5 1.44772 5.44772 1 6 1H12C13.6569 1 15 2.34315 15 4V10C15 10.5523 14.5523 11 14 11C13.4477 11 13 10.5523 13 10V4C13 3.44772 12.5523 3 12 3Z" fill="#7B808C"/>
</svg>
